<?xml version="1.0" encoding="UTF-8"?>
<svg width="955px" height="1393px" viewBox="0 0 955 1393" version="1.1" xmlns="http://www.w3.org/2000/svg" xmlns:xlink="http://www.w3.org/1999/xlink">
    <!-- Generator: Sketch 51.3 (57544) - http://www.bohemiancoding.com/sketch -->
    <title>Aquabot</title>
    <desc>Created with Sketch.</desc>
    <defs>
        <path d="M1.04313984,55.9005427 C0.361863465,52.3803105 0,48.6948378 0,44.8993711 C0,20.1021332 15.4461761,0 34.5,0 C53.5538239,0 69,20.1021332 69,44.8993711 C69,48.6948378 68.6381365,52.3803105 67.9568602,55.9005427 L68.311867,55.9005427 L51.6301894,230.762142 C43.8414242,235.02708 35.8586785,238.290568 27.6819523,240.552606 C19.5052262,242.814645 12.5668919,241.683626 6.86694936,237.159549 L0.675632516,55.9005427 L1.04313984,55.9005427 Z" id="path-1"></path>
        <path d="M1.78392031,60.2894283 C0.618838969,56.4928142 0,52.5179862 0,48.4245283 C0,21.6803998 26.4151998,0 59,0 C91.5848002,0 118,21.6803998 118,48.4245283 C118,52.5179862 117.381161,56.4928142 116.21608,60.2894283 L116.823193,60.2894283 L88.2951065,248.879831 C74.9751892,253.479619 61.3235371,256.999331 47.3401504,259.438968 C33.3567636,261.878605 21.4912064,260.658786 11.7434786,255.779513 L1.15542952,60.2894283 L1.78392031,60.2894283 Z" id="path-3"></path>
        <path d="M233.839844,13.2788044 C194.765625,3.06005444 176.730469,-1.17808448 134.921875,1.6328125 C107.049479,3.50674382 87.9817708,7.38874114 77.71875,13.2788044 C60.0390625,17.283039 40.1992187,43.9726563 18.1992187,93.3476563 C-14.8007813,167.410156 5.08203125,279.042969 18.1992187,312.53125 C26.9440104,334.856771 22.7539062,380.019531 5.62890625,448.019531 C3.82161458,462.02474 27.8515625,473.075521 77.71875,481.171875 C152.519531,493.316406 171.046875,496.867188 233.839844,481.171875 C275.701823,470.708333 303.200521,456.614583 316.335937,438.890625 C287.291667,393.104167 276.130208,347.380208 282.851562,301.71875 C292.933594,233.226563 339.738281,152.65625 316.335937,93.3476563 C292.933594,34.0390625 272.914062,23.4975544 233.839844,13.2788044 Z" id="path-5"></path>
        <path d="M1.04313984,55.9005427 C0.361863465,52.3803105 0,48.6948378 0,44.8993711 C0,20.1021332 15.4461761,0 34.5,0 C53.5538239,0 69,20.1021332 69,44.8993711 C69,48.6948378 68.6381365,52.3803105 67.9568602,55.9005427 L68.311867,55.9005427 L51.6301894,230.762142 C43.8414242,235.02708 35.8586785,238.290568 27.6819523,240.552606 C19.5052262,242.814645 12.5668919,241.683626 6.86694936,237.159549 L0.675632516,55.9005427 L1.04313984,55.9005427 Z" id="path-7"></path>
        <path d="M1.78392031,60.2894283 C0.618838969,56.4928142 0,52.5179862 0,48.4245283 C0,21.6803998 26.4151998,0 59,0 C91.5848002,0 118,21.6803998 118,48.4245283 C118,52.5179862 117.381161,56.4928142 116.21608,60.2894283 L116.823193,60.2894283 L88.2951065,248.879831 C74.9751892,253.479619 61.3235371,256.999331 47.3401504,259.438968 C33.3567636,261.878605 21.4912064,260.658786 11.7434786,255.779513 L1.15542952,60.2894283 L1.78392031,60.2894283 Z" id="path-9"></path>
    </defs>
    <g id="Aquabot" stroke="none" stroke-width="1" fill="none" fill-rule="evenodd">
        <g id="aquabot-arm" transform="translate(572.000000, 312.000000)">
            <g id="Hand" transform="translate(69.000000, 420.000000)" fill-rule="nonzero">
                <path d="M49.724264,7.24507168 C59.6737962,21.735215 69,32.3053196 69,48.7582275 C69,65.2111354 62.4965641,81.9797327 56.1104141,93.3390607 C49.724264,104.698389 36.1797221,109 30.092717,109 C26.0347135,109 22.2253386,106.019709 18.6645921,100.059127 C23.7601582,90.6387726 25.6393679,81.801757 24.3022211,73.5480806 C22.9650742,65.2944042 21.7232496,58.0404108 20.5767472,51.7861006 C18.1598675,53.5521311 16.2477124,57.0873949 14.8402819,62.3918918 C13.4328514,67.6963887 13.4328514,73.534355 14.8402819,79.9057906 C14.2411136,83.7178544 12.8881529,85.6238864 10.7813999,85.6238864 C8.67464687,85.6238864 6.37988503,83.7178544 3.89711436,79.9057906 C-0.387553919,65.3657774 -1.13914992,54.9832564 1.64232635,48.7582275 C4.42380261,42.5331986 9.48246981,31.2704074 16.8183279,14.969854 L45.8274738,7.24507168 C41.7923125,-2.41502389 43.0912426,-2.41502389 49.724264,7.24507168 Z" id="Path-12" fill="#000000"></path>
                <path d="M46.7023104,20.3129528 C42.2436854,21.7694988 37.5792778,23.4596359 32.5168999,26.5883979 C27.4545221,29.71716 26.5,36.4956295 26.5,43.6844285 C26.5,50.8732275 38.1694353,75.2414824 45.5572194,78.8417525 C52.9450034,82.4420227 57.5519402,82.2251166 63.0017828,70.7742059 C68.4516253,59.3232951 69.439753,46.3336489 65.7504957,37.543082 C62.0612384,28.752515 62.7267879,27.2020382 58.4319239,22.4851034 C54.1370599,17.7681686 51.1609354,18.8564068 46.7023104,20.3129528 Z" id="Path-2" fill="#4A4A4A"></path>
            </g>
            <path d="M74.0431398,261.973719 C73.3618635,258.448879 73,254.758581 73,250.958146 C73,226.128448 88.4461761,206 107.5,206 C126.553824,206 142,226.128448 142,250.958146 C142,254.758581 141.638137,258.448879 140.95686,261.973719 L141.311867,261.973719 L124.630189,437.06422 C116.841424,441.33474 108.858678,444.6025 100.681952,446.8675 C92.5052262,449.1325 85.5668919,448 79.8669494,443.470001 L73.6756325,261.973719 L74.0431398,261.973719 Z" id="SteelArm" fill="#6E6E6E" fill-rule="nonzero"></path>
            <g id="Path-13" stroke-width="1" fill-rule="evenodd" transform="translate(73.000000, 206.000000)">
                <mask id="mask-2" fill="white">
                    <use xlink:href="#path-1"></use>
                </mask>
                <use id="Mask" fill="#00A17D" fill-rule="nonzero" xlink:href="#path-1"></use>
                <path d="M20.1090064,258.014441 C16.2358204,224.537775 10.666911,135.079416 10.666911,110.184453 C10.666911,85.2894894 9.59552224,24.8464146 17.2898665,11.6453381 C24.9842108,-1.55573838 42.0806027,4.27490426 55.0235629,11.6453381 C63.652203,16.5589607 70.3194785,47.3781912 75.0253895,104.10303 L59.494106,252.281602 C35.819497,278.421272 22.6911305,280.332218 20.1090064,258.014441 Z" fill="#8CE6D1" fill-rule="nonzero" mask="url(#mask-2)"></path>
            </g>
            <path d="M74.0431398,261.973719 C73.3618635,258.448879 73,254.758581 73,250.958146 C73,226.128448 88.4461761,206 107.5,206 C126.553824,206 142,226.128448 142,250.958146 C142,254.758581 141.638137,258.448879 140.95686,261.973719 L141.311867,261.973719 L124.630189,437.06422 C116.841424,441.33474 108.858678,444.6025 100.681952,446.8675 C92.5052262,449.1325 85.5668919,448 79.8669494,443.470001 L73.6756325,261.973719 L74.0431398,261.973719 Z" id="Border" stroke="#000000" stroke-width="3" fill-rule="nonzero"></path>
            <path d="M131.411657,246.271312 C135.401164,243.062653 133.525513,225.072901 129.189874,221.769382 C124.613818,218.282678 119.446596,216.200938 114.369639,216.199234 C110.733314,216.198013 104.800427,239.394477 108.873954,241.669752 C119.672522,247.701311 123.862375,247.522661 134.51406,243.255549" id="Path-14" fill="#C5C5C5" fill-rule="nonzero"></path>
            <path d="M29.7839203,70.3683497 C28.618839,66.5667657 28,62.5867345 28,58.4879181 C28,31.7087804 54.4151998,10 87,10 C119.5848,10 146,31.7087804 146,58.4879181 C146,62.5867345 145.381161,66.5667657 144.21608,70.3683497 L144.823193,70.3683497 L116.295107,259.205626 C102.975189,263.811435 89.3235371,267.335755 75.3401504,269.778585 C61.3567636,272.221415 49.4912064,271 39.7434786,266.11434 L29.1554295,70.3683497 L29.7839203,70.3683497 Z" id="SteelArm" fill="#6E6E6E" fill-rule="nonzero" transform="translate(87.000000, 140.500000) rotate(-13.000000) translate(-87.000000, -140.500000) "></path>
            <g id="Path-13" stroke-width="1" fill-rule="evenodd" transform="translate(87.000000, 140.500000) rotate(-13.000000) translate(-87.000000, -140.500000) translate(28.000000, 10.000000)">
                <mask id="mask-4" fill="white">
                    <use xlink:href="#path-3"></use>
                </mask>
                <use id="Mask" fill="#00A17D" fill-rule="nonzero" xlink:href="#path-3"></use>
                <path d="M34.3893153,278.271773 C27.7656058,242.166773 18.2419638,145.684824 18.2419638,118.835298 C18.2419638,91.9857716 16.4097337,26.7971662 29.5681775,12.5596415 C42.7266214,-1.67788313 71.9639293,4.61053724 94.098267,12.5596415 C108.854492,17.8590444 120.2565,51.0979665 128.304289,112.276408 L101.743544,272.088836 C61.2565311,300.280793 38.8051217,302.341772 34.3893153,278.271773 Z" fill="#8CE6D1" fill-rule="nonzero" mask="url(#mask-4)"></path>
            </g>
            <path d="M29.7839203,70.3683497 C28.618839,66.5667657 28,62.5867345 28,58.4879181 C28,31.7087804 54.4151998,10 87,10 C119.5848,10 146,31.7087804 146,58.4879181 C146,62.5867345 145.381161,66.5667657 144.21608,70.3683497 L144.823193,70.3683497 L116.295107,259.205626 C102.975189,263.811435 89.3235371,267.335755 75.3401504,269.778585 C61.3567636,272.221415 49.4912064,271 39.7434786,266.11434 L29.1554295,70.3683497 L29.7839203,70.3683497 Z" id="Border" stroke="#000000" stroke-width="3" fill-rule="nonzero" transform="translate(87.000000, 140.500000) rotate(-13.000000) translate(-87.000000, -140.500000) "></path>
            <path d="M104.075322,50.8831298 C110.897956,47.4225516 107.690322,28.0203812 100.275751,24.4574947 C92.4500309,20.6970408 83.6133325,18.4518588 74.9309997,18.4500208 C68.7123582,18.4487044 58.5662609,43.466378 65.532582,45.9202908 C83.9996985,52.4254019 91.164955,52.2327254 109.38088,47.6305919" id="Path-14" fill="#CFFFF4" fill-rule="nonzero" transform="translate(86.281901, 34.705105) rotate(-13.000000) translate(-86.281901, -34.705105) "></path>
        </g>
        <g id="Aqua-Leg" transform="translate(473.000000, 695.000000)">
            <g id="SilverFoot" transform="translate(0.000000, 401.000000)">
                <path d="M55.9369401,3.31399456 C75.8983447,14.0149537 122.919918,35.3331 128.658298,46.9555509 C132.483885,54.7038515 134.403356,63.7773276 134.416711,74.1759792 C105.366047,88.069986 88.4404661,96.0817434 83.6399678,98.2112513 C76.4392203,101.405513 64.6382987,98.8195086 55.9369401,94.1847331 C47.2355816,89.5499576 9.01552886,63.3712156 4.71219897,58.6690583 C0.40886907,53.9669009 0.525421382,46.8644944 0.525421382,38.108502 C0.525421382,32.2711737 4.38257446,25.5961256 12.0968806,18.0833579 C28.0159839,1.10314289 42.6293371,-3.81997821 55.9369401,3.31399456 Z" id="Footmain" fill="#00A17D" fill-rule="nonzero"></path>
                <path d="M129.912351,49.7047259 C119.492672,51.4515682 111.373703,53.5321493 105.555445,55.9464691 C94.6450556,60.473798 77.0329086,67.0571825 77.0329086,72.0488995 C77.0329086,77.0406164 70.3985325,73.6605994 65.0380367,68.4594525 C59.6775409,63.2583055 35.6531956,53.1856362 28.4815861,43.3260391 C21.3099767,33.4664419 9.55458331,38.2796882 9.55458331,29.6730284 C9.55458331,23.9352552 21.3597542,16.2312688 44.970096,6.56106913 C49.6442595,5.52881219 53.9720991,4.80294759 57.9536147,4.38347535 C78.8929,15.3820053 123.10527,35.7085093 128.658298,46.9555509 C129.101951,47.8541203 129.519969,48.7705119 129.912351,49.7047259 Z" id="Combined-Shape" fill="#CFFFF4" fill-rule="nonzero"></path>
                <path d="M55.9369401,3.31399456 C75.8983447,14.0149537 122.919918,35.3331 128.658298,46.9555509 C132.483885,54.7038515 134.403356,63.7773276 134.416711,74.1759792 C105.366047,88.069986 88.4404661,96.0817434 83.6399678,98.2112513 C76.4392203,101.405513 64.6382987,98.8195086 55.9369401,94.1847331 C47.2355816,89.5499576 9.01552886,63.3712156 4.71219897,58.6690583 C0.40886907,53.9669009 0.525421382,46.8644944 0.525421382,38.108502 C0.525421382,32.2711737 4.38257446,25.5961256 12.0968806,18.0833579 C28.0159839,1.10314289 42.6293371,-3.81997821 55.9369401,3.31399456 Z" id="outline" stroke="#000000" stroke-width="3" fill-rule="nonzero"></path>
            </g>
            <g id="SilverLeg" transform="translate(1.000000, 0.000000)">
                <path d="M2.35994251,24.8492336 L2.35994251,419.964762 C1.3082988,423.258367 0.847868722,425.488164 0.978652287,426.654151 C1.49780244,431.28258 5.47563306,432.330003 15.2101885,433.030606 C23.5808683,433.63305 29.2168772,431.040128 36.8497177,428.079575 C49.3116731,423.245951 56.7062374,418.414778 61.1319265,414.260719 C64.6634359,410.945958 65.265505,404.444084 63.68004,401.562026 C63.1204203,400.54475 61.5637936,399.079482 59.0101599,397.166225 C83.9045225,306.917962 102.15098,237.023425 113.749534,187.482614 C125.348087,137.941802 131.347602,75.740222 131.748078,0.877873196 L2.35994251,24.8492336 Z" fill="#8CE6D1" fill-rule="nonzero"></path>
                <path d="M57.7324618,399 C73.9095541,416.178711 28.0206942,431.602631 12.8361297,424.192095 C-5.79301088,415.1005 34.3802089,427.699928 49.1031517,411.409517 C52.0237192,408.178014 54.0804586,404.25999 56.569112,400.685226 L57.7324618,399 Z" id="Path-13" fill="#CFFFF4" fill-rule="nonzero"></path>
                <path d="M27,192.56033 C27,218.279812 34.1513982,232.125371 36.2322859,257.217277 C36.7399406,263.338715 38.5614995,269.255594 40.245535,275.110068 C50.7527214,311.637831 78.1083151,263.765436 84.2078655,252.839201 C106.804856,212.360799 113.796146,164.250875 121.54828,120.249237 C127.548516,86.1914835 114.797276,67.7633874 103.601515,60.1421012 C91.8137508,52.1178202 54.080462,60.0210152 36.2322859,77.4961354 C28.9594706,84.616937 32.1244135,111.592407 30.1535937,127.942951 C28.7195715,139.840051 27,174.661337 27,192.56033 Z" id="Path-12" fill="#CFFFF4" fill-rule="nonzero"></path>
                <path d="M2.35994251,24.8492336 L2.35994251,419.964762 C1.3082988,423.258367 0.847868722,425.488164 0.978652287,426.654151 C1.49780244,431.28258 5.47563306,432.330003 15.2101885,433.030606 C23.5808683,433.63305 29.2168772,431.040128 36.8497177,428.079575 C49.3116731,423.245951 56.7062374,418.414778 61.1319265,414.260719 C64.6634359,410.945958 65.265505,404.444084 63.68004,401.562026 C63.1204203,400.54475 61.5637936,399.079482 59.0101599,397.166225 C83.9045225,306.917962 102.15098,237.023425 113.749534,187.482614 C125.348087,137.941802 131.347602,75.740222 131.748078,0.877873196 L2.35994251,24.8492336 Z" stroke="#000000" stroke-width="3" fill-rule="nonzero"></path>
            </g>
        </g>
        <g id="Aqua-Leg" transform="translate(401.500000, 945.500000) scale(-1, 1) translate(-401.500000, -945.500000) translate(334.000000, 695.000000)">
            <g id="SilverFoot" transform="translate(0.000000, 401.000000)">
                <path d="M55.9369401,3.31399456 C75.8983447,14.0149537 122.919918,35.3331 128.658298,46.9555509 C132.483885,54.7038515 134.403356,63.7773276 134.416711,74.1759792 C105.366047,88.069986 88.4404661,96.0817434 83.6399678,98.2112513 C76.4392203,101.405513 64.6382987,98.8195086 55.9369401,94.1847331 C47.2355816,89.5499576 9.01552886,63.3712156 4.71219897,58.6690583 C0.40886907,53.9669009 0.525421382,46.8644944 0.525421382,38.108502 C0.525421382,32.2711737 4.38257446,25.5961256 12.0968806,18.0833579 C28.0159839,1.10314289 42.6293371,-3.81997821 55.9369401,3.31399456 Z" id="Footmain" fill="#00A17D" fill-rule="nonzero"></path>
                <path d="M129.912351,49.7047259 C119.492672,51.4515682 111.373703,53.5321493 105.555445,55.9464691 C94.6450556,60.473798 77.0329086,67.0571825 77.0329086,72.0488995 C77.0329086,77.0406164 70.3985325,73.6605994 65.0380367,68.4594525 C59.6775409,63.2583055 35.6531956,53.1856362 28.4815861,43.3260391 C21.3099767,33.4664419 9.55458331,38.2796882 9.55458331,29.6730284 C9.55458331,23.9352552 21.3597542,16.2312688 44.970096,6.56106913 C49.6442595,5.52881219 53.9720991,4.80294759 57.9536147,4.38347535 C78.8929,15.3820053 123.10527,35.7085093 128.658298,46.9555509 C129.101951,47.8541203 129.519969,48.7705119 129.912351,49.7047259 Z" id="Combined-Shape" fill="#CFFFF4" fill-rule="nonzero"></path>
                <path d="M55.9369401,3.31399456 C75.8983447,14.0149537 122.919918,35.3331 128.658298,46.9555509 C132.483885,54.7038515 134.403356,63.7773276 134.416711,74.1759792 C105.366047,88.069986 88.4404661,96.0817434 83.6399678,98.2112513 C76.4392203,101.405513 64.6382987,98.8195086 55.9369401,94.1847331 C47.2355816,89.5499576 9.01552886,63.3712156 4.71219897,58.6690583 C0.40886907,53.9669009 0.525421382,46.8644944 0.525421382,38.108502 C0.525421382,32.2711737 4.38257446,25.5961256 12.0968806,18.0833579 C28.0159839,1.10314289 42.6293371,-3.81997821 55.9369401,3.31399456 Z" id="outline" stroke="#000000" stroke-width="3" fill-rule="nonzero"></path>
            </g>
            <g id="SilverLeg" transform="translate(1.000000, 0.000000)">
                <path d="M2.35994251,24.8492336 L2.35994251,419.964762 C1.3082988,423.258367 0.847868722,425.488164 0.978652287,426.654151 C1.49780244,431.28258 5.47563306,432.330003 15.2101885,433.030606 C23.5808683,433.63305 29.2168772,431.040128 36.8497177,428.079575 C49.3116731,423.245951 56.7062374,418.414778 61.1319265,414.260719 C64.6634359,410.945958 65.265505,404.444084 63.68004,401.562026 C63.1204203,400.54475 61.5637936,399.079482 59.0101599,397.166225 C83.9045225,306.917962 102.15098,237.023425 113.749534,187.482614 C125.348087,137.941802 131.347602,75.740222 131.748078,0.877873196 L2.35994251,24.8492336 Z" fill="#8CE6D1" fill-rule="nonzero"></path>
                <path d="M57.7324618,399 C73.9095541,416.178711 28.0206942,431.602631 12.8361297,424.192095 C-5.79301088,415.1005 34.3802089,427.699928 49.1031517,411.409517 C52.0237192,408.178014 54.0804586,404.25999 56.569112,400.685226 L57.7324618,399 Z" id="Path-13" fill="#CFFFF4" fill-rule="nonzero"></path>
                <path d="M27,192.56033 C27,218.279812 34.1513982,232.125371 36.2322859,257.217277 C36.7399406,263.338715 38.5614995,269.255594 40.245535,275.110068 C50.7527214,311.637831 78.1083151,263.765436 84.2078655,252.839201 C106.804856,212.360799 113.796146,164.250875 121.54828,120.249237 C127.548516,86.1914835 114.797276,67.7633874 103.601515,60.1421012 C91.8137508,52.1178202 54.080462,60.0210152 36.2322859,77.4961354 C28.9594706,84.616937 32.1244135,111.592407 30.1535937,127.942951 C28.7195715,139.840051 27,174.661337 27,192.56033 Z" id="Path-12" fill="#CFFFF4" fill-rule="nonzero"></path>
                <path d="M2.35994251,24.8492336 L2.35994251,419.964762 C1.3082988,423.258367 0.847868722,425.488164 0.978652287,426.654151 C1.49780244,431.28258 5.47563306,432.330003 15.2101885,433.030606 C23.5808683,433.63305 29.2168772,431.040128 36.8497177,428.079575 C49.3116731,423.245951 56.7062374,418.414778 61.1319265,414.260719 C64.6634359,410.945958 65.265505,404.444084 63.68004,401.562026 C63.1204203,400.54475 61.5637936,399.079482 59.0101599,397.166225 C83.9045225,306.917962 102.15098,237.023425 113.749534,187.482614 C125.348087,137.941802 131.347602,75.740222 131.748078,0.877873196 L2.35994251,24.8492336 Z" stroke="#000000" stroke-width="3" fill-rule="nonzero"></path>
            </g>
        </g>
        <g id="AquaHead" transform="translate(325.000000, 25.000000)">
            <ellipse id="Oval" fill="#CFFFF4" fill-rule="nonzero" cx="150" cy="153.5" rx="150" ry="153.5"></ellipse>
            <ellipse id="Oval" stroke="#000000" stroke-width="3" fill-rule="nonzero" cx="150" cy="153.5" rx="150" ry="153.5"></ellipse>
            <path d="M112,14.9280693 C126.446889,9.15318499 142.061849,6 158.355262,6 C232.443062,6 292.50309,71.1956652 292.50309,151.618594 C292.50309,161.802838 291.539964,171.742896 289.707189,181.337298 C274.715478,88.4408024 201.197299,17.4458413 112,14.9280693 Z" id="Combined-Shape" fill="#FFFFFF" fill-rule="nonzero"></path>
            <g id="Group-2" stroke-width="1" fill-rule="evenodd" transform="translate(147.929308, 192.880103) rotate(17.000000) translate(-147.929308, -192.880103) translate(84.929308, 111.880103)">
                <path d="M115.671071,147.344073 C129.881826,127.306628 127.696036,93.5018317 115.671071,51.9281145 C103.646106,10.3543973 90.7249673,0 73.1949352,0 C55.664903,0 9.99751427,19.678351 3.05919374,31.8688116 C-3.87912679,44.0592721 1.64155309,74.9913168 13.0139038,98.963183 C24.3862546,122.935049 74.3908743,160.31205 84.3330942,160.31205 C94.275314,160.31205 101.460317,167.381518 115.671071,147.344073 Z" id="Path-3" stroke="#000000" stroke-width="3" fill="#6E6E6E" fill-rule="nonzero"></path>
                <path d="M19.5676986,25.9401254 C23.2896404,18.8710825 33.8796306,13.7496754 43.758407,9.52375897 C59.6141711,2.74102284 78.7759498,0.874534501 86.748534,5.69796778 C92.433937,9.13765078 101.697158,18.282364 108.464901,35.0954247 C117.100358,56.5484357 122.794579,86.9600992 123.922057,95.8553328 C125.933156,111.7219 121.83624,129.961462 117.518997,134.920082 C113.201754,139.878702 105.832307,144.656601 99.9672832,144.656601 C94.1022594,144.656601 82.8525511,152.519198 48.8385432,107.685532 C14.8245353,62.8518657 7.18640358,49.4557825 19.5676986,25.9401254 Z" id="Path-4" fill="#9B9B9B" fill-rule="nonzero"></path>
                <ellipse id="Oval" fill="#000000" fill-rule="nonzero" cx="48" cy="44.5" rx="7" ry="7.5"></ellipse>
                <ellipse id="Oval-Copy-2" fill="#C5C5C5" fill-rule="nonzero" transform="translate(50.500000, 44.000000) rotate(-19.000000) translate(-50.500000, -44.000000) " cx="50.5" cy="44" rx="1.5" ry="3"></ellipse>
                <ellipse id="Oval-Copy" fill="#000000" fill-rule="nonzero" transform="translate(93.417087, 31.018448) rotate(-26.000000) translate(-93.417087, -31.018448) " cx="93.4170872" cy="31.0184479" rx="5.00392404" ry="6.5"></ellipse>
                <ellipse id="Oval-Copy" fill="#C5C5C5" fill-rule="nonzero" transform="translate(95.331580, 30.341781) rotate(-26.000000) translate(-95.331580, -30.341781) " cx="95.33158" cy="30.3417805" rx="1" ry="2.33013726"></ellipse>
                <path d="M115.23214,109.497756 L115.23214,106.237757 C111.563112,109.726082 107.509149,112.155787 103.07025,113.526873 C95.328387,115.918177 85.8755389,117.228463 74.7117054,117.457732 L77.4815466,121.263229 C89.1818646,121.07553 98.4348097,119.807031 105.240382,117.457732 C110.230802,115.735028 113.561388,113.081703 115.23214,109.497756 Z" id="Path-5" stroke="#000000" fill="#6E6E6E" fill-rule="nonzero"></path>
            </g>
        </g>
        <g id="Aqua-body" transform="translate(308.000000, 288.000000)">
            <g stroke-width="1" fill-rule="evenodd">
                <path d="M233.839844,13.2788044 C194.765625,3.06005444 176.730469,-1.17808448 134.921875,1.6328125 C107.049479,3.50674382 87.9817708,7.38874114 77.71875,13.2788044 C60.0390625,17.283039 40.1992188,43.9726563 18.1992188,93.3476563 C-14.8007812,167.410156 5.08203125,279.042969 18.1992188,312.53125 C26.9440104,334.856771 22.7539062,380.019531 5.62890625,448.019531 C3.82161458,462.02474 27.8515625,473.075521 77.71875,481.171875 C152.519531,493.316406 171.046875,496.867188 233.839844,481.171875 C275.701823,470.708333 303.200521,456.614583 316.335938,438.890625 C287.291667,393.104167 276.130208,347.380208 282.851562,301.71875 C292.933594,233.226563 339.738281,152.65625 316.335938,93.3476563 C292.933594,34.0390625 272.914062,23.4975544 233.839844,13.2788044 Z" id="Path-2" fill="#8CE6D1" fill-rule="nonzero"></path>
                <mask id="mask-6" fill="white">
                    <use xlink:href="#path-5"></use>
                </mask>
                <use id="Mask" fill="#8CE6D1" fill-rule="nonzero" xlink:href="#path-5"></use>
                <path d="M239.699806,-1.87032228 C286.496681,39.0359277 312.22715,66.711709 312.22715,111.766396 C312.22715,156.821084 276.91465,206.696084 223.609962,222.227334 C170.305275,237.758584 111.516212,243.746865 82.2896499,204.789834 C53.0630874,165.832803 6.2349624,99.2038965 44.2623061,33.539834 C82.2896499,-32.1242285 192.902931,-42.7765723 239.699806,-1.87032228 Z" id="Path-4" fill="#CFFFF4" fill-rule="nonzero" mask="url(#mask-6)"></path>
                <path d="M243.414895,415.71427 C291.040834,445.74469 317.22715,466.062254 317.22715,499.138158 C317.22715,532.214062 281.289046,568.828692 227.04,580.230616 C172.790955,591.63254 112.960372,596.028705 83.2160252,567.429261 C53.4716783,538.829816 5.81393562,489.915676 44.5149804,441.709854 C83.2160252,393.504033 195.788956,385.68385 243.414895,415.71427 Z" id="Path-4-Copy" fill="#CFFFF4" fill-rule="nonzero" mask="url(#mask-6)"></path>
                <path d="M314.226562,373 C243.410156,399.066406 231.40625,410.941406 161.675781,410.941406 C91.9453125,410.941406 28.7109375,399.636719 -7,378.972656" id="Path-3" stroke="#00A17D" stroke-width="3" fill-rule="nonzero" mask="url(#mask-6)"></path>
                <path d="M314.226562,312 C243.410156,338.066406 231.40625,349.941406 161.675781,349.941406 C91.9453125,349.941406 28.7109375,338.636719 -7,317.972656" id="Path-3-Copy" stroke="#00A17D" stroke-width="3" fill-rule="nonzero" mask="url(#mask-6)"></path>
                <path d="M317.226562,255 C246.410156,266.639041 234.40625,271.941406 164.675781,271.941406 C94.9453125,271.941406 31.7109375,266.893694 -4,257.66688" id="Path-3-Copy-2" stroke="#00A17D" stroke-width="3" fill-rule="nonzero" mask="url(#mask-6)"></path>
                <path d="M418,184 C310.196889,195.639041 291.923462,200.941406 185.773464,200.941406 C79.6234647,200.941406 -16.6375952,195.893694 -71,186.66688" id="Path-3-Copy-3" stroke="#00A17D" stroke-width="3" fill-rule="nonzero" mask="url(#mask-6)"></path>
                <path d="M410,127 C302.196889,138.639041 283.923462,143.941406 177.773464,143.941406 C71.6234647,143.941406 -24.6375952,138.893694 -79,129.66688" id="Path-3-Copy-4" stroke="#00A17D" stroke-width="3" fill-rule="nonzero" mask="url(#mask-6)" transform="translate(165.500000, 135.470703) scale(1, -1) translate(-165.500000, -135.470703) "></path>
                <path d="M398,66 C296.149208,92.0664062 278.884744,103.941406 178.595788,103.941406 C78.3068317,103.941406 -12.6392003,92.6367187 -64,71.9726562" id="Path-3-Copy-5" stroke="#00A17D" stroke-width="3" fill-rule="nonzero" mask="url(#mask-6)" transform="translate(167.000000, 84.970703) scale(1, -1) translate(-167.000000, -84.970703) "></path>
            </g>
            <path d="M233.839844,13.2788044 C194.765625,3.06005444 176.730469,-1.17808448 134.921875,1.6328125 C107.049479,3.50674382 87.9817708,7.38874114 77.71875,13.2788044 C60.0390625,17.283039 40.1992187,43.9726563 18.1992187,93.3476563 C-14.8007813,167.410156 5.08203125,279.042969 18.1992187,312.53125 C26.9440104,334.856771 22.7539062,380.019531 5.62890625,448.019531 C3.82161458,462.02474 27.8515625,473.075521 77.71875,481.171875 C152.519531,493.316406 171.046875,496.867188 233.839844,481.171875 C275.701823,470.708333 303.200521,456.614583 316.335937,438.890625 C287.291667,393.104167 276.130208,347.380208 282.851562,301.71875 C292.933594,233.226563 339.738281,152.65625 316.335937,93.3476563 C292.933594,34.0390625 272.914062,23.4975544 233.839844,13.2788044 Z" id="Path-2" stroke="#000000" stroke-width="3" fill-rule="nonzero"></path>
        </g>
        <g id="aquabot-arm" transform="translate(288.000000, 568.500000) scale(-1, 1) translate(-288.000000, -568.500000) translate(201.000000, 304.000000)">
            <g id="Hand" transform="translate(69.000000, 420.000000)" fill-rule="nonzero">
                <path d="M49.724264,7.24507168 C59.6737962,21.735215 69,32.3053196 69,48.7582275 C69,65.2111354 62.4965641,81.9797327 56.1104141,93.3390607 C49.724264,104.698389 36.1797221,109 30.092717,109 C26.0347135,109 22.2253386,106.019709 18.6645921,100.059127 C23.7601582,90.6387726 25.6393679,81.801757 24.3022211,73.5480806 C22.9650742,65.2944042 21.7232496,58.0404108 20.5767472,51.7861006 C18.1598675,53.5521311 16.2477124,57.0873949 14.8402819,62.3918918 C13.4328514,67.6963887 13.4328514,73.534355 14.8402819,79.9057906 C14.2411136,83.7178544 12.8881529,85.6238864 10.7813999,85.6238864 C8.67464687,85.6238864 6.37988503,83.7178544 3.89711436,79.9057906 C-0.387553919,65.3657774 -1.13914992,54.9832564 1.64232635,48.7582275 C4.42380261,42.5331986 9.48246981,31.2704074 16.8183279,14.969854 L45.8274738,7.24507168 C41.7923125,-2.41502389 43.0912426,-2.41502389 49.724264,7.24507168 Z" id="Path-12" fill="#000000"></path>
                <path d="M46.7023104,20.3129528 C42.2436854,21.7694988 37.5792778,23.4596359 32.5168999,26.5883979 C27.4545221,29.71716 26.5,36.4956295 26.5,43.6844285 C26.5,50.8732275 38.1694353,75.2414824 45.5572194,78.8417525 C52.9450034,82.4420227 57.5519402,82.2251166 63.0017828,70.7742059 C68.4516253,59.3232951 69.439753,46.3336489 65.7504957,37.543082 C62.0612384,28.752515 62.7267879,27.2020382 58.4319239,22.4851034 C54.1370599,17.7681686 51.1609354,18.8564068 46.7023104,20.3129528 Z" id="Path-2" fill="#4A4A4A"></path>
            </g>
            <path d="M74.0431398,261.973719 C73.3618635,258.448879 73,254.758581 73,250.958146 C73,226.128448 88.4461761,206 107.5,206 C126.553824,206 142,226.128448 142,250.958146 C142,254.758581 141.638137,258.448879 140.95686,261.973719 L141.311867,261.973719 L124.630189,437.06422 C116.841424,441.33474 108.858678,444.6025 100.681952,446.8675 C92.5052262,449.1325 85.5668919,448 79.8669494,443.470001 L73.6756325,261.973719 L74.0431398,261.973719 Z" id="SteelArm" fill="#6E6E6E" fill-rule="nonzero"></path>
            <g id="Path-13" stroke-width="1" fill-rule="evenodd" transform="translate(73.000000, 206.000000)">
                <mask id="mask-8" fill="white">
                    <use xlink:href="#path-7"></use>
                </mask>
                <use id="Mask" fill="#00A17D" fill-rule="nonzero" xlink:href="#path-7"></use>
                <path d="M20.1090064,258.014441 C16.2358204,224.537775 10.666911,135.079416 10.666911,110.184453 C10.666911,85.2894894 9.59552224,24.8464146 17.2898665,11.6453381 C24.9842108,-1.55573838 42.0806027,4.27490426 55.0235629,11.6453381 C63.652203,16.5589607 70.3194785,47.3781912 75.0253895,104.10303 L59.494106,252.281602 C35.819497,278.421272 22.6911305,280.332218 20.1090064,258.014441 Z" fill="#8CE6D1" fill-rule="nonzero" mask="url(#mask-8)"></path>
            </g>
            <path d="M74.0431398,261.973719 C73.3618635,258.448879 73,254.758581 73,250.958146 C73,226.128448 88.4461761,206 107.5,206 C126.553824,206 142,226.128448 142,250.958146 C142,254.758581 141.638137,258.448879 140.95686,261.973719 L141.311867,261.973719 L124.630189,437.06422 C116.841424,441.33474 108.858678,444.6025 100.681952,446.8675 C92.5052262,449.1325 85.5668919,448 79.8669494,443.470001 L73.6756325,261.973719 L74.0431398,261.973719 Z" id="Border" stroke="#000000" stroke-width="3" fill-rule="nonzero"></path>
            <path d="M131.411657,246.271312 C135.401164,243.062653 133.525513,225.072901 129.189874,221.769382 C124.613818,218.282678 119.446596,216.200938 114.369639,216.199234 C110.733314,216.198013 104.800427,239.394477 108.873954,241.669752 C119.672522,247.701311 123.862375,247.522661 134.51406,243.255549" id="Path-14" fill="#C5C5C5" fill-rule="nonzero"></path>
            <path d="M29.7839203,70.3683497 C28.618839,66.5667657 28,62.5867345 28,58.4879181 C28,31.7087804 54.4151998,10 87,10 C119.5848,10 146,31.7087804 146,58.4879181 C146,62.5867345 145.381161,66.5667657 144.21608,70.3683497 L144.823193,70.3683497 L116.295107,259.205626 C102.975189,263.811435 89.3235371,267.335755 75.3401504,269.778585 C61.3567636,272.221415 49.4912064,271 39.7434786,266.11434 L29.1554295,70.3683497 L29.7839203,70.3683497 Z" id="SteelArm" fill="#6E6E6E" fill-rule="nonzero" transform="translate(87.000000, 140.500000) rotate(-13.000000) translate(-87.000000, -140.500000) "></path>
            <g id="Path-13" stroke-width="1" fill-rule="evenodd" transform="translate(87.000000, 140.500000) rotate(-13.000000) translate(-87.000000, -140.500000) translate(28.000000, 10.000000)">
                <mask id="mask-10" fill="white">
                    <use xlink:href="#path-9"></use>
                </mask>
                <use id="Mask" fill="#00A17D" fill-rule="nonzero" xlink:href="#path-9"></use>
                <path d="M34.3893153,278.271773 C27.7656058,242.166773 18.2419638,145.684824 18.2419638,118.835298 C18.2419638,91.9857716 16.4097337,26.7971662 29.5681775,12.5596415 C42.7266214,-1.67788313 71.9639293,4.61053724 94.098267,12.5596415 C108.854492,17.8590444 120.2565,51.0979665 128.304289,112.276408 L101.743544,272.088836 C61.2565311,300.280793 38.8051217,302.341772 34.3893153,278.271773 Z" fill="#8CE6D1" fill-rule="nonzero" mask="url(#mask-10)"></path>
            </g>
            <path d="M29.7839203,70.3683497 C28.618839,66.5667657 28,62.5867345 28,58.4879181 C28,31.7087804 54.4151998,10 87,10 C119.5848,10 146,31.7087804 146,58.4879181 C146,62.5867345 145.381161,66.5667657 144.21608,70.3683497 L144.823193,70.3683497 L116.295107,259.205626 C102.975189,263.811435 89.3235371,267.335755 75.3401504,269.778585 C61.3567636,272.221415 49.4912064,271 39.7434786,266.11434 L29.1554295,70.3683497 L29.7839203,70.3683497 Z" id="Border" stroke="#000000" stroke-width="3" fill-rule="nonzero" transform="translate(87.000000, 140.500000) rotate(-13.000000) translate(-87.000000, -140.500000) "></path>
            <path d="M104.075322,50.8831298 C110.897956,47.4225516 107.690322,28.0203812 100.275751,24.4574947 C92.4500309,20.6970408 83.6133325,18.4518588 74.9309997,18.4500208 C68.7123582,18.4487044 58.5662609,43.466378 65.532582,45.9202908 C83.9996985,52.4254019 91.164955,52.2327254 109.38088,47.6305919" id="Path-14" fill="#CFFFF4" fill-rule="nonzero" transform="translate(86.281901, 34.705105) rotate(-13.000000) translate(-86.281901, -34.705105) "></path>
        </g>
    </g>
</svg>