<?xml version="1.0" encoding="UTF-8"?>
<svg width="955px" height="1393px" viewBox="0 0 955 1393" version="1.1" xmlns="http://www.w3.org/2000/svg" xmlns:xlink="http://www.w3.org/1999/xlink">
    <!-- Generator: Sketch 51.3 (57544) - http://www.bohemiancoding.com/sketch -->
    <title>ConstBot</title>
    <desc>Created with Sketch.</desc>
    <defs>
        <polygon id="path-1" points="199.253906 7.984375 58.3203125 0 0 66.53125 36.5507812 89.328125 76.6914062 53.8242188 182.8125 53.8242188 222.746094 89.328125 263.851562 66.53125"></polygon>
        <path d="M1.22003745,53.6382814 C0.42322895,50.2605108 0,46.724187 0,43.0823206 C0,19.2886119 18.0655677,0 40.3505747,0 C62.6355818,0 80.7011494,19.2886119 80.7011494,43.0823206 C80.7011494,46.724187 80.2779205,50.2605108 79.481112,53.6382814 L79.8963215,53.6382814 L60.3857338,221.423337 C51.2761351,225.515675 41.9396605,228.647092 32.3763097,230.817587 C22.812959,232.988082 14.6980089,231.902835 8.03145951,227.561844 L0.790207546,53.6382814 L1.22003745,53.6382814 Z" id="path-3"></path>
        <path d="M1.78392031,60.2894283 C0.618838969,56.4928142 0,52.5179862 0,48.4245283 C0,21.6803998 26.4151998,0 59,0 C91.5848002,0 118,21.6803998 118,48.4245283 C118,52.5179862 117.381161,56.4928142 116.21608,60.2894283 L116.823193,60.2894283 L88.2951065,248.879831 C74.9751892,253.479619 61.3235371,256.999331 47.3401504,259.438968 C33.3567636,261.878605 21.4912064,260.658786 11.7434786,255.779513 L1.15542952,60.2894283 L1.78392031,60.2894283 Z" id="path-5"></path>
        <path d="M1.22003745,53.6382814 C0.42322895,50.2605108 0,46.724187 0,43.0823206 C0,19.2886119 18.0655677,0 40.3505747,0 C62.6355818,0 80.7011494,19.2886119 80.7011494,43.0823206 C80.7011494,46.724187 80.2779205,50.2605108 79.481112,53.6382814 L79.8963215,53.6382814 L60.3857338,221.423337 C51.2761351,225.515675 41.9396605,228.647092 32.3763097,230.817587 C22.812959,232.988082 14.6980089,231.902835 8.03145951,227.561844 L0.790207546,53.6382814 L1.22003745,53.6382814 Z" id="path-7"></path>
        <path d="M1.78392031,60.2894283 C0.618838969,56.4928142 0,52.5179862 0,48.4245283 C0,21.6803998 26.4151998,0 59,0 C91.5848002,0 118,21.6803998 118,48.4245283 C118,52.5179862 117.381161,56.4928142 116.21608,60.2894283 L116.823193,60.2894283 L88.2951065,248.879831 C74.9751892,253.479619 61.3235371,256.999331 47.3401504,259.438968 C33.3567636,261.878605 21.4912064,260.658786 11.7434786,255.779513 L1.15542952,60.2894283 L1.78392031,60.2894283 Z" id="path-9"></path>
    </defs>
    <g id="ConstBot" stroke="none" stroke-width="1" fill="none" fill-rule="evenodd">
        <g id="Const-head" transform="translate(276.000000, 25.000000)">
            <path d="M77.0507813,11 L113.476563,0.20703125 L313.105469,97.1328125 L313.105469,219.628906 C264.503906,258.28776 240.203125,277.617187 240.203125,277.617187 C240.203125,277.617187 185.81901,280.481771 77.0507813,286.210937 L0,219.628906 L0,97.1328125 L77.0507813,11 Z" id="consHeadBack" stroke="#979797" fill="#AB6B00" fill-rule="nonzero"></path>
            <path d="M114.050781,0 L268,7.3203125 L350.105469,86.1328125 L350.105469,208.628906 C301.503906,247.28776 277.203125,266.617188 277.203125,266.617188 C277.203125,266.617188 222.81901,269.481771 114.050781,275.210938 L37,208.628906 L37,86.1328125 L114.050781,0 Z" id="consHead" fill="#F5A623" fill-rule="nonzero"></path>
            <path d="M113.74778,0.338715668 L114.050781,0 L268,7.3203125 L350.105469,86.1328125 L350.105469,208.628906 C301.503906,247.28776 277.203125,266.617188 277.203125,266.617188 L252.389031,267.924224 L240.203125,277.617187 C240.203125,277.617187 185.81901,280.481771 77.0507813,286.210937 L0,219.628906 L0,97.1328125 L77.0507813,11 L113.476563,0.20703125 L113.74778,0.338715668 Z" id="Combined-Shape" stroke="#000000" stroke-width="3" fill-rule="nonzero"></path>
            <polygon id="Path-2-Copy" fill="#C5C5C5" fill-rule="nonzero" transform="translate(193.925781, 201.664062) scale(1, -1) translate(-193.925781, -201.664062) " points="261.253906 164.984375 120.320312 157 62 223.53125 98.5507812 246.328125 138.691406 210.824219 244.8125 210.824219 284.746094 246.328125 325.851562 223.53125"></polygon>
            <g id="const-mouth" transform="translate(62.000000, 157.000000)">
                <g fill-rule="evenodd" stroke-width="1">
                    <mask id="mask-2" fill="white">
                        <use xlink:href="#path-1"></use>
                    </mask>
                    <use id="Mask" fill="#C5C5C5" fill-rule="nonzero" transform="translate(131.925781, 44.664062) scale(1, -1) translate(-131.925781, -44.664062) " xlink:href="#path-1"></use>
                    <g id="Group" mask="url(#mask-2)" fill="#4A4A4A" fill-rule="nonzero">
                        <g transform="translate(14.000000, 8.000000)">
                            <path d="M197.638183,3.1846948 C195.506874,7.9643957 198.977365,12.7968105 204.14089,12.4804734 C209.304416,12.1641363 209.591208,6.23122874 209.133906,4.88645352 C206.956978,-1.51518066 199.564056,-1.13429212 197.638183,3.1846948 Z" id="Path-2"></path>
                            <path d="M144.638183,35.1846948 C142.506874,39.9643957 145.977365,44.7968105 151.14089,44.4804734 C156.304416,44.1641363 156.591208,38.2312287 156.133906,36.8864535 C153.956978,30.4848193 146.564056,30.8657079 144.638183,35.1846948 Z" id="Path-2-Copy-5"></path>
                            <path d="M19.6381831,7.1846948 C17.5068735,11.9643957 20.9773645,16.7968105 26.1408902,16.4804734 C31.3044158,16.1641363 31.5912083,10.2312287 31.1339064,8.88645352 C28.9569781,2.48481934 21.5640564,2.86570788 19.6381831,7.1846948 Z" id="Path-2-Copy-10"></path>
                            <path d="M66.6381831,38.1846948 C64.5068735,42.9643957 67.9773645,47.7968105 73.1408902,47.4804734 C78.3044158,47.1641363 78.5912083,41.2312287 78.1339064,39.8864535 C75.9569781,33.4848193 68.5640564,33.8657079 66.6381831,38.1846948 Z" id="Path-2-Copy-15"></path>
                            <path d="M105.638183,59.1846948 C103.506874,63.9643957 106.977365,68.7968105 112.14089,68.4804734 C117.304416,68.1641363 117.591208,62.2312287 117.133906,60.8864535 C114.956978,54.4848193 107.564056,54.8657079 105.638183,59.1846948 Z" id="Path-2-Copy-20"></path>
                            <path d="M178.638183,18.1846948 C176.506874,22.9643957 179.977365,27.7968105 185.14089,27.4804734 C190.304416,27.1641363 190.591208,21.2312287 190.133906,19.8864535 C187.956978,13.4848193 180.564056,13.8657079 178.638183,18.1846948 Z" id="Path-2-Copy"></path>
                            <path d="M126.638183,42.1846948 C124.506874,46.9643957 127.977365,51.7968105 133.14089,51.4804734 C138.304416,51.1641363 138.591208,45.2312287 138.133906,43.8864535 C135.956978,37.4848193 128.564056,37.8657079 126.638183,42.1846948 Z" id="Path-2-Copy-6"></path>
                            <path d="M0.63818312,22.1846948 C-1.4931265,26.9643957 1.9773645,31.7968105 7.14089015,31.4804734 C12.3044158,31.1641363 12.5912083,25.2312287 12.1339064,23.8864535 C9.95697813,17.4848193 2.56405642,17.8657079 0.63818312,22.1846948 Z" id="Path-2-Copy-11"></path>
                            <path d="M47.6381831,53.1846948 C45.5068735,57.9643957 48.9773645,62.7968105 54.1408902,62.4804734 C59.3044158,62.1641363 59.5912083,56.2312287 59.1339064,54.8864535 C56.9569781,48.4848193 49.5640564,48.8657079 47.6381831,53.1846948 Z" id="Path-2-Copy-16"></path>
                            <path d="M102.638183,74.1846948 C100.506874,78.9643957 103.977365,83.7968105 109.14089,83.4804734 C114.304416,83.1641363 114.591208,77.2312287 114.133906,75.8864535 C111.956978,69.4848193 104.564056,69.8657079 102.638183,74.1846948 Z" id="Path-2-Copy-21"></path>
                            <path d="M190.638183,38.1846948 C188.506874,42.9643957 191.977365,47.7968105 197.14089,47.4804734 C202.304416,47.1641363 202.591208,41.2312287 202.133906,39.8864535 C199.956978,33.4848193 192.564056,33.8657079 190.638183,38.1846948 Z" id="Path-2-Copy-2"></path>
                            <path d="M138.638183,62.1846948 C136.506874,66.9643957 139.977365,71.7968105 145.14089,71.4804734 C150.304416,71.1641363 150.591208,65.2312287 150.133906,63.8864535 C147.956978,57.4848193 140.564056,57.8657079 138.638183,62.1846948 Z" id="Path-2-Copy-7"></path>
                            <path d="M12.6381831,42.1846948 C10.5068735,46.9643957 13.9773645,51.7968105 19.1408902,51.4804734 C24.3044158,51.1641363 24.5912083,45.2312287 24.1339064,43.8864535 C21.9569781,37.4848193 14.5640564,37.8657079 12.6381831,42.1846948 Z" id="Path-2-Copy-12"></path>
                            <path d="M49.6381831,74.1846948 C47.5068735,78.9643957 50.9773645,83.7968105 56.1408902,83.4804734 C61.3044158,83.1641363 61.5912083,77.2312287 61.1339064,75.8864535 C58.9569781,69.4848193 51.5640564,69.8657079 49.6381831,74.1846948 Z" id="Path-2-Copy-17"></path>
                            <path d="M102.638183,41.1846948 C100.506874,45.9643957 103.977365,50.7968105 109.14089,50.4804734 C114.304416,50.1641363 114.591208,44.2312287 114.133906,42.8864535 C111.956978,36.4848193 104.564056,36.8657079 102.638183,41.1846948 Z" id="Path-2-Copy-22"></path>
                            <path d="M213.638183,32.1846948 C211.506874,36.9643957 214.977365,41.7968105 220.14089,41.4804734 C225.304416,41.1641363 225.591208,35.2312287 225.133906,33.8864535 C222.956978,27.4848193 215.564056,27.8657079 213.638183,32.1846948 Z" id="Path-2-Copy-3"></path>
                            <path d="M161.638183,56.1846948 C159.506874,60.9643957 162.977365,65.7968105 168.14089,65.4804734 C173.304416,65.1641363 173.591208,59.2312287 173.133906,57.8864535 C170.956978,51.4848193 163.564056,51.8657079 161.638183,56.1846948 Z" id="Path-2-Copy-8"></path>
                            <path d="M35.6381831,36.1846948 C33.5068735,40.9643957 36.9773645,45.7968105 42.1408902,45.4804734 C47.3044158,45.1641363 47.5912083,39.2312287 47.1339064,37.8864535 C44.9569781,31.4848193 37.5640564,31.8657079 35.6381831,36.1846948 Z" id="Path-2-Copy-13"></path>
                            <path d="M74.6381831,65.1846948 C72.5068735,69.9643957 75.9773645,74.7968105 81.1408902,74.4804734 C86.3044158,74.1641363 86.5912083,68.2312287 86.1339064,66.8864535 C83.9569781,60.4848193 76.5640564,60.8657079 74.6381831,65.1846948 Z" id="Path-2-Copy-18"></path>
                            <path d="M181.638183,59.1846948 C179.506874,63.9643957 182.977365,68.7968105 188.14089,68.4804734 C193.304416,68.1641363 193.591208,62.2312287 193.133906,60.8864535 C190.956978,54.4848193 183.564056,54.8657079 181.638183,59.1846948 Z" id="Path-2-Copy-23"></path>
                            <path d="M215.638183,12.1846948 C213.506874,16.9643957 216.977365,21.7968105 222.14089,21.4804734 C227.304416,21.1641363 227.591208,15.2312287 227.133906,13.8864535 C224.956978,7.48481934 217.564056,7.86570788 215.638183,12.1846948 Z" id="Path-2-Copy-4"></path>
                            <path d="M163.638183,36.1846948 C161.506874,40.9643957 164.977365,45.7968105 170.14089,45.4804734 C175.304416,45.1641363 175.591208,39.2312287 175.133906,37.8864535 C172.956978,31.4848193 165.564056,31.8657079 163.638183,36.1846948 Z" id="Path-2-Copy-9"></path>
                            <path d="M37.6381831,16.1846948 C35.5068735,20.9643957 38.9773645,25.7968105 44.1408902,25.4804734 C49.3044158,25.1641363 49.5912083,19.2312287 49.1339064,17.8864535 C46.9569781,11.4848193 39.5640564,11.8657079 37.6381831,16.1846948 Z" id="Path-2-Copy-14"></path>
                            <path d="M84.6381831,47.1846948 C82.5068735,51.9643957 85.9773645,56.7968105 91.1408902,56.4804734 C96.3044158,56.1641363 96.5912083,50.2312287 96.1339064,48.8864535 C93.9569781,42.4848193 86.5640564,42.8657079 84.6381831,47.1846948 Z" id="Path-2-Copy-19"></path>
                            <path d="M123.638183,68.1846948 C121.506874,72.9643957 124.977365,77.7968105 130.14089,77.4804734 C135.304416,77.1641363 135.591208,71.2312287 135.133906,69.8864535 C132.956978,63.4848193 125.564056,63.8657079 123.638183,68.1846948 Z" id="Path-2-Copy-24"></path>
                        </g>
                    </g>
                </g>
                <polygon id="Mask" stroke="#000000" stroke-width="3" fill-rule="nonzero" transform="translate(131.925781, 44.664062) scale(1, -1) translate(-131.925781, -44.664062) " points="199.253906 7.984375 58.3203125 0 0 66.53125 36.5507812 89.328125 76.6914062 53.8242188 182.8125 53.8242188 222.746094 89.328125 263.851562 66.53125"></polygon>
            </g>
            <g id="const-eye" transform="translate(61.000000, 12.000000)" fill-rule="nonzero">
                <g id="Group-2">
                    <polygon id="const-eye" fill="#000000" points="200.253906 8.984375 59.3203125 1 1 67.53125 37.5507812 90.328125 77.6914062 54.8242188 183.8125 54.8242188 223.746094 90.328125 264.851562 67.53125"></polygon>
                    <polygon id="Path-2" stroke="#000000" stroke-width="3" points="200.082031 8.484375 59.1484375 0.5 0.828125 67.03125 37.3789062 89.828125 77.5195312 54.3242188 183.640625 54.3242188 223.574219 89.828125 264.679687 67.03125"></polygon>
                </g>
                <path d="M225.97481,31.9518094 C225.400118,48.4884063 215.044816,62.6306221 200.319147,69.1526536 L183.640625,54.3242188 L145.558001,54.3242188 C140.787173,47.5290157 138,39.3289012 138,30.5 C138,21.1316784 141.138154,12.4713246 146.454484,5.44618916 L200.082031,8.484375 L225.97481,31.9518094 Z" id="Combined-Shape" fill="#D0021B"></path>
            </g>
        </g>
        <g id="ConstArm" transform="translate(572.000000, 312.000000)">
            <g id="Hand" transform="translate(68.000000, 424.000000)" fill-rule="nonzero">
                <path d="M49.724264,7.24507168 C59.6737962,21.735215 69,32.3053196 69,48.7582275 C69,65.2111354 62.4965641,81.9797327 56.1104141,93.3390607 C49.724264,104.698389 36.1797221,109 30.092717,109 C26.0347135,109 22.2253386,106.019709 18.6645921,100.059127 C23.7601582,90.6387726 25.6393679,81.801757 24.3022211,73.5480806 C22.9650742,65.2944042 21.7232496,58.0404108 20.5767472,51.7861006 C18.1598675,53.5521311 16.2477124,57.0873949 14.8402819,62.3918918 C13.4328514,67.6963887 13.4328514,73.534355 14.8402819,79.9057906 C14.2411136,83.7178544 12.8881529,85.6238864 10.7813999,85.6238864 C8.67464687,85.6238864 6.37988503,83.7178544 3.89711436,79.9057906 C-0.387553919,65.3657774 -1.13914992,54.9832564 1.64232635,48.7582275 C4.42380261,42.5331986 9.48246981,31.2704074 16.8183279,14.969854 L45.8274738,7.24507168 C41.7923125,-2.41502389 43.0912426,-2.41502389 49.724264,7.24507168 Z" id="Path-12" fill="#000000"></path>
                <path d="M46.7023104,20.3129528 C42.2436854,21.7694988 37.5792778,23.4596359 32.5168999,26.5883979 C27.4545221,29.71716 26.5,36.4956295 26.5,43.6844285 C26.5,50.8732275 38.1694353,75.2414824 45.5572194,78.8417525 C52.9450034,82.4420227 57.5519402,82.2251166 63.0017828,70.7742059 C68.4516253,59.3232951 69.439753,46.3336489 65.7504957,37.543082 C62.0612384,28.752515 62.7267879,27.2020382 58.4319239,22.4851034 C54.1370599,17.7681686 51.1609354,18.8564068 46.7023104,20.3129528 Z" id="Path-2" fill="#4A4A4A"></path>
            </g>
            <g id="ConstArmUpper" transform="translate(103.367674, 329.599377) rotate(11.000000) translate(-103.367674, -329.599377) translate(43.738511, 204.688775)">
                <path d="M20.3694627,62.6052934 C19.5726542,59.2231012 19.1494253,55.6821481 19.1494253,52.0355143 C19.1494253,28.2106587 37.2149929,8.89679715 59.5,8.89679715 C81.7850071,8.89679715 99.8505747,28.2106587 99.8505747,52.0355143 C99.8505747,55.6821481 99.4273458,59.2231012 98.6305373,62.6052934 L99.0457468,62.6052934 L79.5351591,230.609987 C70.4255604,234.707682 61.0890857,237.843198 51.525735,240.016535 C41.9623843,242.189871 33.8474342,241.103203 27.1808848,236.75653 L19.9396328,62.6052934 L20.3694627,62.6052934 Z" id="SteelArm" fill="#AB6B00" fill-rule="nonzero" transform="translate(59.500000, 125.000000) rotate(-13.000000) translate(-59.500000, -125.000000) "></path>
                <g id="Path-13" stroke-width="1" fill-rule="evenodd" transform="translate(59.500000, 125.000000) rotate(-13.000000) translate(-59.500000, -125.000000) translate(19.149425, 8.896797)">
                    <mask id="mask-4" fill="white">
                        <use xlink:href="#path-3"></use>
                    </mask>
                    <g id="Mask" fill-rule="nonzero"></g>
                    <path d="M23.5191295,247.572752 C18.9891212,215.450866 12.4758258,129.612833 12.4758258,105.725354 C12.4758258,81.8378751 11.2227489,23.8408952 20.2219145,11.1740583 C29.2210801,-1.49277858 49.2167103,4.10190146 64.3545619,11.1740583 C74.446463,15.8888295 82.2443876,45.4608243 87.7483358,99.8900427 L69.5832281,242.071918 C41.8938345,267.153731 26.5391349,268.987342 23.5191295,247.572752 Z" fill="#F5A623" fill-rule="nonzero" mask="url(#mask-4)"></path>
                </g>
                <path d="M20.3694627,62.6052934 C19.5726542,59.2231012 19.1494253,55.6821481 19.1494253,52.0355143 C19.1494253,28.2106587 37.2149929,8.89679715 59.5,8.89679715 C81.7850071,8.89679715 99.8505747,28.2106587 99.8505747,52.0355143 C99.8505747,55.6821481 99.4273458,59.2231012 98.6305373,62.6052934 L99.0457468,62.6052934 L79.5351591,230.609987 C70.4255604,234.707682 61.0890857,237.843198 51.525735,240.016535 C41.9623843,242.189871 33.8474342,241.103203 27.1808848,236.75653 L19.9396328,62.6052934 L20.3694627,62.6052934 Z" id="Border" stroke="#000000" stroke-width="3" fill-rule="nonzero" transform="translate(59.500000, 125.000000) rotate(-13.000000) translate(-59.500000, -125.000000) "></path>
                <path d="M71.1779498,45.2696885 C75.8440045,42.1908822 73.6502774,24.9291647 68.5793928,21.7593369 C63.22732,18.4137374 57.1838308,16.4162444 51.2459136,16.4146093 C46.9929346,16.4134381 40.0539371,38.6711548 44.8182601,40.8543512 C57.4480696,46.6418166 62.3484462,46.4703963 74.8064639,42.3759714" id="Path-14" fill="#F7C46E" fill-rule="nonzero" transform="translate(59.008886, 30.876428) rotate(-13.000000) translate(-59.008886, -30.876428) "></path>
            </g>
            <g id="ConstArmUpper">
                <path d="M29.7839203,70.3683497 C28.618839,66.5667657 28,62.5867345 28,58.4879181 C28,31.7087804 54.4151998,10 87,10 C119.5848,10 146,31.7087804 146,58.4879181 C146,62.5867345 145.381161,66.5667657 144.21608,70.3683497 L144.823193,70.3683497 L116.295107,259.205626 C102.975189,263.811435 89.3235371,267.335755 75.3401504,269.778585 C61.3567636,272.221415 49.4912064,271 39.7434786,266.11434 L29.1554295,70.3683497 L29.7839203,70.3683497 Z" id="SteelArm" fill="#AB6B00" fill-rule="nonzero" transform="translate(87.000000, 140.500000) rotate(-13.000000) translate(-87.000000, -140.500000) "></path>
                <g id="Path-13" stroke-width="1" fill-rule="evenodd" transform="translate(87.000000, 140.500000) rotate(-13.000000) translate(-87.000000, -140.500000) translate(28.000000, 10.000000)">
                    <mask id="mask-6" fill="white">
                        <use xlink:href="#path-5"></use>
                    </mask>
                    <g id="Mask" fill-rule="nonzero"></g>
                    <path d="M34.3893153,278.271773 C27.7656058,242.166773 18.2419638,145.684824 18.2419638,118.835298 C18.2419638,91.9857716 16.4097337,26.7971662 29.5681775,12.5596415 C42.7266214,-1.67788313 71.9639293,4.61053724 94.098267,12.5596415 C108.854492,17.8590444 120.2565,51.0979665 128.304289,112.276408 L101.743544,272.088836 C61.2565311,300.280793 38.8051217,302.341772 34.3893153,278.271773 Z" fill="#F5A623" fill-rule="nonzero" mask="url(#mask-6)"></path>
                </g>
                <path d="M29.7839203,70.3683497 C28.618839,66.5667657 28,62.5867345 28,58.4879181 C28,31.7087804 54.4151998,10 87,10 C119.5848,10 146,31.7087804 146,58.4879181 C146,62.5867345 145.381161,66.5667657 144.21608,70.3683497 L144.823193,70.3683497 L116.295107,259.205626 C102.975189,263.811435 89.3235371,267.335755 75.3401504,269.778585 C61.3567636,272.221415 49.4912064,271 39.7434786,266.11434 L29.1554295,70.3683497 L29.7839203,70.3683497 Z" id="Border" stroke="#000000" stroke-width="3" fill-rule="nonzero" transform="translate(87.000000, 140.500000) rotate(-13.000000) translate(-87.000000, -140.500000) "></path>
                <path d="M104.075322,50.8831298 C110.897956,47.4225516 107.690322,28.0203812 100.275751,24.4574947 C92.4500309,20.6970408 83.6133325,18.4518588 74.9309997,18.4500208 C68.7123582,18.4487044 58.5662609,43.466378 65.532582,45.9202908 C83.9996985,52.4254019 91.164955,52.2327254 109.38088,47.6305919" id="Path-14" fill="#F7C46E" fill-rule="nonzero" transform="translate(86.281901, 34.705105) rotate(-13.000000) translate(-86.281901, -34.705105) "></path>
            </g>
        </g>
        <g id="ConstLeg" transform="translate(474.000000, 695.000000)">
            <g id="ConstFoot" transform="translate(2.000000, 406.000000)">
                <g id="Group">
                    <path d="M55.9369401,3.31399456 C75.8983447,14.0149537 122.919918,35.3331 128.658298,46.9555509 C132.483885,54.7038515 134.403356,63.7773276 134.416711,74.1759792 C105.366047,88.069986 88.4404661,96.0817434 83.6399678,98.2112513 C76.4392203,101.405513 64.6382987,98.8195086 55.9369401,94.1847331 C47.2355816,89.5499576 9.01552886,63.3712156 4.71219897,58.6690583 C0.40886907,53.9669009 0.525421382,46.8644944 0.525421382,38.108502 C0.525421382,32.2711737 4.38257446,25.5961256 12.0968806,18.0833579 C28.0159839,1.10314289 42.6293371,-3.81997821 55.9369401,3.31399456 Z" id="Footmain" fill="#AB6B00" fill-rule="nonzero"></path>
                    <path d="M129.912351,49.7047259 C119.492672,51.4515682 111.373703,53.5321493 105.555445,55.9464691 C94.6450556,60.473798 77.0329086,67.0571825 77.0329086,72.0488995 C77.0329086,77.0406164 70.3985325,73.6605994 65.0380367,68.4594525 C59.6775409,63.2583055 35.6531956,53.1856362 28.4815861,43.3260391 C21.3099767,33.4664419 9.55458331,38.2796882 9.55458331,29.6730284 C9.55458331,23.9352552 21.3597542,16.2312688 44.970096,6.56106913 C49.6442595,5.52881219 53.9720991,4.80294759 57.9536147,4.38347535 C78.8929,15.3820053 123.10527,35.7085093 128.658298,46.9555509 C129.101951,47.8541203 129.519969,48.7705119 129.912351,49.7047259 Z" id="Combined-Shape" fill="#F5A623" fill-rule="nonzero"></path>
                    <path d="M55.9369401,3.31399456 C75.8983447,14.0149537 122.919918,35.3331 128.658298,46.9555509 C132.483885,54.7038515 134.403356,63.7773276 134.416711,74.1759792 C105.366047,88.069986 88.4404661,96.0817434 83.6399678,98.2112513 C76.4392203,101.405513 64.6382987,98.8195086 55.9369401,94.1847331 C47.2355816,89.5499576 9.01552886,63.3712156 4.71219897,58.6690583 C0.40886907,53.9669009 0.525421382,46.8644944 0.525421382,38.108502 C0.525421382,32.2711737 4.38257446,25.5961256 12.0968806,18.0833579 C28.0159839,1.10314289 42.6293371,-3.81997821 55.9369401,3.31399456 Z" id="outline" stroke="#000000" stroke-width="3" fill-rule="nonzero"></path>
                </g>
            </g>
            <g id="SilverLeg">
                <path d="M2.35994251,24.8492336 L2.35994251,419.964762 C1.3082988,423.258367 0.847868722,425.488164 0.978652287,426.654151 C1.49780244,431.28258 5.47563306,432.330003 15.2101885,433.030606 C23.5808683,433.63305 29.2168772,431.040128 36.8497177,428.079575 C49.3116731,423.245951 56.7062374,418.414778 61.1319265,414.260719 C64.6634359,410.945958 65.265505,404.444084 63.68004,401.562026 C63.1204203,400.54475 61.5637936,399.079482 59.0101599,397.166225 C83.9045225,306.917962 102.15098,237.023425 113.749534,187.482614 C125.348087,137.941802 131.347602,75.740222 131.748078,0.877873196 L2.35994251,24.8492336 Z" fill="#F5A623" fill-rule="nonzero"></path>
                <path d="M57.7324618,399 C73.9095541,416.178711 28.0206942,431.602631 12.8361297,424.192095 C-5.79301088,415.1005 34.3802089,427.699928 49.1031517,411.409517 C52.0237192,408.178014 54.0804586,404.25999 56.569112,400.685226 L57.7324618,399 Z" id="Path-13" fill="#F7C46E" fill-rule="nonzero"></path>
                <path d="M27,192.56033 C27,218.279812 34.1513982,232.125371 36.2322859,257.217277 C36.7399406,263.338715 38.5614995,269.255594 40.245535,275.110068 C50.7527214,311.637831 78.1083151,263.765436 84.2078655,252.839201 C106.804856,212.360799 113.796146,164.250875 121.54828,120.249237 C127.548516,86.1914835 114.797276,67.7633874 103.601515,60.1421012 C91.8137508,52.1178202 54.080462,60.0210152 36.2322859,77.4961354 C28.9594706,84.616937 32.1244135,111.592407 30.1535937,127.942951 C28.7195715,139.840051 27,174.661337 27,192.56033 Z" id="Path-12" fill="#F7C46E" fill-rule="nonzero"></path>
                <path d="M2.35994251,24.8492336 L2.35994251,419.964762 C1.3082988,423.258367 0.847868722,425.488164 0.978652287,426.654151 C1.49780244,431.28258 5.47563306,432.330003 15.2101885,433.030606 C23.5808683,433.63305 29.2168772,431.040128 36.8497177,428.079575 C49.3116731,423.245951 56.7062374,418.414778 61.1319265,414.260719 C64.6634359,410.945958 65.265505,404.444084 63.68004,401.562026 C63.1204203,400.54475 61.5637936,399.079482 59.0101599,397.166225 C83.9045225,306.917962 102.15098,237.023425 113.749534,187.482614 C125.348087,137.941802 131.347602,75.740222 131.748078,0.877873196 L2.35994251,24.8492336 Z" stroke="#000000" stroke-width="3" fill-rule="nonzero"></path>
            </g>
        </g>
        <g id="ConstLeg" transform="translate(366.000000, 961.500000) scale(-1, 1) translate(-366.000000, -961.500000) translate(263.000000, 695.000000)">
            <g id="ConstFoot" transform="translate(2.000000, 406.000000)">
                <g id="Group">
                    <path d="M55.9369401,3.31399456 C75.8983447,14.0149537 122.919918,35.3331 128.658298,46.9555509 C132.483885,54.7038515 134.403356,63.7773276 134.416711,74.1759792 C105.366047,88.069986 88.4404661,96.0817434 83.6399678,98.2112513 C76.4392203,101.405513 64.6382987,98.8195086 55.9369401,94.1847331 C47.2355816,89.5499576 9.01552886,63.3712156 4.71219897,58.6690583 C0.40886907,53.9669009 0.525421382,46.8644944 0.525421382,38.108502 C0.525421382,32.2711737 4.38257446,25.5961256 12.0968806,18.0833579 C28.0159839,1.10314289 42.6293371,-3.81997821 55.9369401,3.31399456 Z" id="Footmain" fill="#AB6B00" fill-rule="nonzero"></path>
                    <path d="M129.912351,49.7047259 C119.492672,51.4515682 111.373703,53.5321493 105.555445,55.9464691 C94.6450556,60.473798 77.0329086,67.0571825 77.0329086,72.0488995 C77.0329086,77.0406164 70.3985325,73.6605994 65.0380367,68.4594525 C59.6775409,63.2583055 35.6531956,53.1856362 28.4815861,43.3260391 C21.3099767,33.4664419 9.55458331,38.2796882 9.55458331,29.6730284 C9.55458331,23.9352552 21.3597542,16.2312688 44.970096,6.56106913 C49.6442595,5.52881219 53.9720991,4.80294759 57.9536147,4.38347535 C78.8929,15.3820053 123.10527,35.7085093 128.658298,46.9555509 C129.101951,47.8541203 129.519969,48.7705119 129.912351,49.7047259 Z" id="Combined-Shape" fill="#F5A623" fill-rule="nonzero"></path>
                    <path d="M55.9369401,3.31399456 C75.8983447,14.0149537 122.919918,35.3331 128.658298,46.9555509 C132.483885,54.7038515 134.403356,63.7773276 134.416711,74.1759792 C105.366047,88.069986 88.4404661,96.0817434 83.6399678,98.2112513 C76.4392203,101.405513 64.6382987,98.8195086 55.9369401,94.1847331 C47.2355816,89.5499576 9.01552886,63.3712156 4.71219897,58.6690583 C0.40886907,53.9669009 0.525421382,46.8644944 0.525421382,38.108502 C0.525421382,32.2711737 4.38257446,25.5961256 12.0968806,18.0833579 C28.0159839,1.10314289 42.6293371,-3.81997821 55.9369401,3.31399456 Z" id="outline" stroke="#000000" stroke-width="3" fill-rule="nonzero"></path>
                </g>
            </g>
            <g id="SilverLeg">
                <path d="M2.35994251,24.8492336 L2.35994251,419.964762 C1.3082988,423.258367 0.847868722,425.488164 0.978652287,426.654151 C1.49780244,431.28258 5.47563306,432.330003 15.2101885,433.030606 C23.5808683,433.63305 29.2168772,431.040128 36.8497177,428.079575 C49.3116731,423.245951 56.7062374,418.414778 61.1319265,414.260719 C64.6634359,410.945958 65.265505,404.444084 63.68004,401.562026 C63.1204203,400.54475 61.5637936,399.079482 59.0101599,397.166225 C83.9045225,306.917962 102.15098,237.023425 113.749534,187.482614 C125.348087,137.941802 131.347602,75.740222 131.748078,0.877873196 L2.35994251,24.8492336 Z" fill="#F5A623" fill-rule="nonzero"></path>
                <path d="M57.7324618,399 C73.9095541,416.178711 28.0206942,431.602631 12.8361297,424.192095 C-5.79301088,415.1005 34.3802089,427.699928 49.1031517,411.409517 C52.0237192,408.178014 54.0804586,404.25999 56.569112,400.685226 L57.7324618,399 Z" id="Path-13" fill="#F7C46E" fill-rule="nonzero"></path>
                <path d="M27,192.56033 C27,218.279812 34.1513982,232.125371 36.2322859,257.217277 C36.7399406,263.338715 38.5614995,269.255594 40.245535,275.110068 C50.7527214,311.637831 78.1083151,263.765436 84.2078655,252.839201 C106.804856,212.360799 113.796146,164.250875 121.54828,120.249237 C127.548516,86.1914835 114.797276,67.7633874 103.601515,60.1421012 C91.8137508,52.1178202 54.080462,60.0210152 36.2322859,77.4961354 C28.9594706,84.616937 32.1244135,111.592407 30.1535937,127.942951 C28.7195715,139.840051 27,174.661337 27,192.56033 Z" id="Path-12" fill="#F7C46E" fill-rule="nonzero"></path>
                <path d="M2.35994251,24.8492336 L2.35994251,419.964762 C1.3082988,423.258367 0.847868722,425.488164 0.978652287,426.654151 C1.49780244,431.28258 5.47563306,432.330003 15.2101885,433.030606 C23.5808683,433.63305 29.2168772,431.040128 36.8497177,428.079575 C49.3116731,423.245951 56.7062374,418.414778 61.1319265,414.260719 C64.6634359,410.945958 65.265505,404.444084 63.68004,401.562026 C63.1204203,400.54475 61.5637936,399.079482 59.0101599,397.166225 C83.9045225,306.917962 102.15098,237.023425 113.749534,187.482614 C125.348087,137.941802 131.347602,75.740222 131.748078,0.877873196 L2.35994251,24.8492336 Z" stroke="#000000" stroke-width="3" fill-rule="nonzero"></path>
            </g>
        </g>
        <g id="ConstBody" transform="translate(287.000000, 295.000000)" fill-rule="nonzero">
            <path d="M198.872103,456 C129.369072,456 112.255267,450.775565 76.6595763,439.04522 C52.929116,431.224991 36.7092573,419.4767 28,403.800347 C34.4756646,354.12641 37.7134969,313.522235 37.7134969,281.98782 C37.7134969,250.453406 34.4756646,221.323836 28,194.59911 C57.3436775,186.86637 102.02284,183 162.037487,183 C222.052133,183 270.821343,189.814099 308.345115,203.442296 C322.115038,240.06457 329,270.98207 329,296.194795 C329,334.013883 329,395.996943 316.339564,431.50092 C297.98259,442.073709 268.375133,456 198.872103,456 Z" id="back" fill="#AB6B00"></path>
            <path d="M74,438.036524 C88.7996392,407.497111 96.1994588,371.249864 96.1994588,329.294782 C96.1994588,263.437634 93.1349585,217.879859 78.5747445,186.379337 C102.118513,184.126446 130.146549,183 162.65885,183 C214.302139,183 257.648781,188.008961 292.698777,198.026882 C305.834029,216.073453 314.186276,233.016082 317.755517,248.85477 C324.961626,280.83224 329.592397,318.372035 322.386288,378.995639 C319.291046,405.035307 314.913503,424.032 309.253658,435.985719 C290.218498,445.624531 259.839463,456 199.628317,456 C129.870838,456 112.694379,450.775565 76.9683738,439.04522 C75.9655523,438.715952 74.9760943,438.37972 74,438.036524 Z" id="highlight" fill="#F5A623"></path>
            <path d="M295.167548,15.5730435 C310.876764,21.9369472 316.098909,46.4566936 324.088549,55.6014627 C332.078189,64.7462318 365.090271,180.719017 365.090271,189.540243 C365.090271,198.361469 361.691732,227.410818 347.998644,227.410818 C334.305556,227.410818 118.505048,236.384457 96.3169505,236.384457 C74.1288528,236.384457 41.2531405,232.969875 25.7845763,227.410818 C10.3160122,221.851761 -4.5990527,208.303063 2.85847977,189.540243 C10.3160122,170.777423 14.2867672,41.854896 20.0356718,24.7044431 C25.7845763,7.55399014 8.75979714,2.52971495 46.2159157,2.52971495 C83.6720343,2.52971495 140.385646,-2.48653851 200.508492,2.52971495 C260.631338,7.54596841 279.458332,9.20913987 295.167548,15.5730435 Z" id="Path-3" fill="#F5A623"></path>
            <path d="M34.4952678,229.924492 C31.2184549,229.145758 28.275773,228.306098 25.7845763,227.410818 C10.3160122,221.851761 -4.5990527,208.303063 2.85847977,189.540243 C10.3160122,170.777423 14.2867672,41.854896 20.0356718,24.7044431 C25.7845763,7.55399014 8.75979714,2.52971495 46.2159157,2.52971495 C83.6720343,2.52971495 140.385646,-2.48653851 200.508492,2.52971495 C260.631338,7.54596841 279.458332,9.20913987 295.167548,15.5730435 C310.876764,21.9369472 316.098909,46.4566936 324.088549,55.6014627 C332.078189,64.7462318 365.090271,180.719017 365.090271,189.540243 C365.090271,198.361469 361.691732,227.410818 347.998644,227.410818 C345.159411,227.410818 333.630944,227.796623 316.940904,228.408241 C324.980301,254.33442 329,276.929938 329,296.194795 C329,334.013883 329,395.996943 316.339564,431.50092 C297.98259,442.073709 268.375133,456 198.872103,456 C129.369072,456 112.255267,450.775565 76.6595763,439.04522 C52.929116,431.224991 36.7092573,419.4767 28,403.800347 C34.4756646,354.12641 37.7134969,313.522235 37.7134969,281.98782 C37.7134969,263.836616 36.6407538,246.482173 34.4952678,229.924492 Z" id="Combined-Shape" stroke="#000000" stroke-width="3"></path>
            <path d="M251.492727,24.9858041 C281.197935,30.0174197 283.9764,34.8697418 293.092341,46.9286616 C302.370214,59.0185784 324.766664,129.481786 336.230343,145.937966 C347.911861,162.435845 346.413175,185.587098 302.981055,184.841021 C259.548935,184.094943 166.602033,182.4983 135.580875,181.965419 C104.559716,181.432537 76.2432986,171.856053 79.3244989,143.495884 C82.0988925,115.076986 72.4286112,57.5325446 79.9650156,42.5962369 C87.171367,27.5967499 91.383981,20.6979208 119.567033,20.1064545 C147.750084,19.5149882 222.18992,20.0312165 251.492727,24.9858041 Z" id="Path-16" fill="#000000"></path>
            <polygon id="Path-17" fill="#F5A623" points="120 8 151.882527 201.340131 179.144162 201.340131 134.463181 8"></polygon>
            <polygon id="Path-17-Copy" fill="#F5A623" points="164 2 218.533332 195.340131 254.947225 195.340131 183.31875 2"></polygon>
            <polygon id="Path-17-Copy-2" fill="#F5A623" points="218 10 283.471378 195.340131 326.290414 195.340131 233.571455 10"></polygon>
        </g>
        <g id="ConstArm" transform="translate(276.000000, 561.500000) scale(-1, 1) translate(-276.000000, -561.500000) translate(183.000000, 295.000000)">
            <g id="Hand" transform="translate(68.000000, 424.000000)" fill-rule="nonzero">
                <path d="M49.724264,7.24507168 C59.6737962,21.735215 69,32.3053196 69,48.7582275 C69,65.2111354 62.4965641,81.9797327 56.1104141,93.3390607 C49.724264,104.698389 36.1797221,109 30.092717,109 C26.0347135,109 22.2253386,106.019709 18.6645921,100.059127 C23.7601582,90.6387726 25.6393679,81.801757 24.3022211,73.5480806 C22.9650742,65.2944042 21.7232496,58.0404108 20.5767472,51.7861006 C18.1598675,53.5521311 16.2477124,57.0873949 14.8402819,62.3918918 C13.4328514,67.6963887 13.4328514,73.534355 14.8402819,79.9057906 C14.2411136,83.7178544 12.8881529,85.6238864 10.7813999,85.6238864 C8.67464687,85.6238864 6.37988503,83.7178544 3.89711436,79.9057906 C-0.387553919,65.3657774 -1.13914992,54.9832564 1.64232635,48.7582275 C4.42380261,42.5331986 9.48246981,31.2704074 16.8183279,14.969854 L45.8274738,7.24507168 C41.7923125,-2.41502389 43.0912426,-2.41502389 49.724264,7.24507168 Z" id="Path-12" fill="#000000"></path>
                <path d="M46.7023104,20.3129528 C42.2436854,21.7694988 37.5792778,23.4596359 32.5168999,26.5883979 C27.4545221,29.71716 26.5,36.4956295 26.5,43.6844285 C26.5,50.8732275 38.1694353,75.2414824 45.5572194,78.8417525 C52.9450034,82.4420227 57.5519402,82.2251166 63.0017828,70.7742059 C68.4516253,59.3232951 69.439753,46.3336489 65.7504957,37.543082 C62.0612384,28.752515 62.7267879,27.2020382 58.4319239,22.4851034 C54.1370599,17.7681686 51.1609354,18.8564068 46.7023104,20.3129528 Z" id="Path-2" fill="#4A4A4A"></path>
            </g>
            <g id="ConstArmUpper" transform="translate(103.367674, 329.599377) rotate(11.000000) translate(-103.367674, -329.599377) translate(43.738511, 204.688775)">
                <path d="M20.3694627,62.6052934 C19.5726542,59.2231012 19.1494253,55.6821481 19.1494253,52.0355143 C19.1494253,28.2106587 37.2149929,8.89679715 59.5,8.89679715 C81.7850071,8.89679715 99.8505747,28.2106587 99.8505747,52.0355143 C99.8505747,55.6821481 99.4273458,59.2231012 98.6305373,62.6052934 L99.0457468,62.6052934 L79.5351591,230.609987 C70.4255604,234.707682 61.0890857,237.843198 51.525735,240.016535 C41.9623843,242.189871 33.8474342,241.103203 27.1808848,236.75653 L19.9396328,62.6052934 L20.3694627,62.6052934 Z" id="SteelArm" fill="#AB6B00" fill-rule="nonzero" transform="translate(59.500000, 125.000000) rotate(-13.000000) translate(-59.500000, -125.000000) "></path>
                <g id="Path-13" stroke-width="1" fill-rule="evenodd" transform="translate(59.500000, 125.000000) rotate(-13.000000) translate(-59.500000, -125.000000) translate(19.149425, 8.896797)">
                    <mask id="mask-8" fill="white">
                        <use xlink:href="#path-7"></use>
                    </mask>
                    <g id="Mask" fill-rule="nonzero"></g>
                    <path d="M23.5191295,247.572752 C18.9891212,215.450866 12.4758258,129.612833 12.4758258,105.725354 C12.4758258,81.8378751 11.2227489,23.8408952 20.2219145,11.1740583 C29.2210801,-1.49277858 49.2167103,4.10190146 64.3545619,11.1740583 C74.446463,15.8888295 82.2443876,45.4608243 87.7483358,99.8900427 L69.5832281,242.071918 C41.8938345,267.153731 26.5391349,268.987342 23.5191295,247.572752 Z" fill="#F5A623" fill-rule="nonzero" mask="url(#mask-8)"></path>
                </g>
                <path d="M20.3694627,62.6052934 C19.5726542,59.2231012 19.1494253,55.6821481 19.1494253,52.0355143 C19.1494253,28.2106587 37.2149929,8.89679715 59.5,8.89679715 C81.7850071,8.89679715 99.8505747,28.2106587 99.8505747,52.0355143 C99.8505747,55.6821481 99.4273458,59.2231012 98.6305373,62.6052934 L99.0457468,62.6052934 L79.5351591,230.609987 C70.4255604,234.707682 61.0890857,237.843198 51.525735,240.016535 C41.9623843,242.189871 33.8474342,241.103203 27.1808848,236.75653 L19.9396328,62.6052934 L20.3694627,62.6052934 Z" id="Border" stroke="#000000" stroke-width="3" fill-rule="nonzero" transform="translate(59.500000, 125.000000) rotate(-13.000000) translate(-59.500000, -125.000000) "></path>
                <path d="M71.1779498,45.2696885 C75.8440045,42.1908822 73.6502774,24.9291647 68.5793928,21.7593369 C63.22732,18.4137374 57.1838308,16.4162444 51.2459136,16.4146093 C46.9929346,16.4134381 40.0539371,38.6711548 44.8182601,40.8543512 C57.4480696,46.6418166 62.3484462,46.4703963 74.8064639,42.3759714" id="Path-14" fill="#F7C46E" fill-rule="nonzero" transform="translate(59.008886, 30.876428) rotate(-13.000000) translate(-59.008886, -30.876428) "></path>
            </g>
            <g id="ConstArmUpper">
                <path d="M29.7839203,70.3683497 C28.618839,66.5667657 28,62.5867345 28,58.4879181 C28,31.7087804 54.4151998,10 87,10 C119.5848,10 146,31.7087804 146,58.4879181 C146,62.5867345 145.381161,66.5667657 144.21608,70.3683497 L144.823193,70.3683497 L116.295107,259.205626 C102.975189,263.811435 89.3235371,267.335755 75.3401504,269.778585 C61.3567636,272.221415 49.4912064,271 39.7434786,266.11434 L29.1554295,70.3683497 L29.7839203,70.3683497 Z" id="SteelArm" fill="#AB6B00" fill-rule="nonzero" transform="translate(87.000000, 140.500000) rotate(-13.000000) translate(-87.000000, -140.500000) "></path>
                <g id="Path-13" stroke-width="1" fill-rule="evenodd" transform="translate(87.000000, 140.500000) rotate(-13.000000) translate(-87.000000, -140.500000) translate(28.000000, 10.000000)">
                    <mask id="mask-10" fill="white">
                        <use xlink:href="#path-9"></use>
                    </mask>
                    <g id="Mask" fill-rule="nonzero"></g>
                    <path d="M34.3893153,278.271773 C27.7656058,242.166773 18.2419638,145.684824 18.2419638,118.835298 C18.2419638,91.9857716 16.4097337,26.7971662 29.5681775,12.5596415 C42.7266214,-1.67788313 71.9639293,4.61053724 94.098267,12.5596415 C108.854492,17.8590444 120.2565,51.0979665 128.304289,112.276408 L101.743544,272.088836 C61.2565311,300.280793 38.8051217,302.341772 34.3893153,278.271773 Z" fill="#F5A623" fill-rule="nonzero" mask="url(#mask-10)"></path>
                </g>
                <path d="M29.7839203,70.3683497 C28.618839,66.5667657 28,62.5867345 28,58.4879181 C28,31.7087804 54.4151998,10 87,10 C119.5848,10 146,31.7087804 146,58.4879181 C146,62.5867345 145.381161,66.5667657 144.21608,70.3683497 L144.823193,70.3683497 L116.295107,259.205626 C102.975189,263.811435 89.3235371,267.335755 75.3401504,269.778585 C61.3567636,272.221415 49.4912064,271 39.7434786,266.11434 L29.1554295,70.3683497 L29.7839203,70.3683497 Z" id="Border" stroke="#000000" stroke-width="3" fill-rule="nonzero" transform="translate(87.000000, 140.500000) rotate(-13.000000) translate(-87.000000, -140.500000) "></path>
                <path d="M104.075322,50.8831298 C110.897956,47.4225516 107.690322,28.0203812 100.275751,24.4574947 C92.4500309,20.6970408 83.6133325,18.4518588 74.9309997,18.4500208 C68.7123582,18.4487044 58.5662609,43.466378 65.532582,45.9202908 C83.9996985,52.4254019 91.164955,52.2327254 109.38088,47.6305919" id="Path-14" fill="#F7C46E" fill-rule="nonzero" transform="translate(86.281901, 34.705105) rotate(-13.000000) translate(-86.281901, -34.705105) "></path>
            </g>
        </g>
    </g>
</svg>