<?xml version="1.0" encoding="UTF-8"?>
<svg width="955px" height="1393px" viewBox="0 0 955 1393" version="1.1" xmlns="http://www.w3.org/2000/svg" xmlns:xlink="http://www.w3.org/1999/xlink">
    <!-- Generator: Sketch 51.3 (57544) - http://www.bohemiancoding.com/sketch -->
    <title>ConstBotDozer</title>
    <desc>Created with Sketch.</desc>
    <defs>
        <path d="M1.22003745,53.6382814 C0.42322895,50.2605108 0,46.724187 0,43.0823206 C0,19.2886119 18.0655677,0 40.3505747,0 C62.6355818,0 80.7011494,19.2886119 80.7011494,43.0823206 C80.7011494,46.724187 80.2779205,50.2605108 79.481112,53.6382814 L79.8963215,53.6382814 L60.3857338,221.423337 C51.2761351,225.515675 41.9396605,228.647092 32.3763097,230.817587 C22.812959,232.988082 14.6980089,231.902835 8.03145951,227.561844 L0.790207546,53.6382814 L1.22003745,53.6382814 Z" id="path-1"></path>
        <path d="M1.78392031,60.2894283 C0.618838969,56.4928142 0,52.5179862 0,48.4245283 C0,21.6803998 26.4151998,0 59,0 C91.5848002,0 118,21.6803998 118,48.4245283 C118,52.5179862 117.381161,56.4928142 116.21608,60.2894283 L116.823193,60.2894283 L88.2951065,248.879831 C74.9751892,253.479619 61.3235371,256.999331 47.3401504,259.438968 C33.3567636,261.878605 21.4912064,260.658786 11.7434786,255.779513 L1.15542952,60.2894283 L1.78392031,60.2894283 Z" id="path-3"></path>
        <polygon id="path-5" points="199.253906 7.984375 58.3203125 0 0 66.53125 36.5507812 89.328125 76.6914062 53.8242188 182.8125 53.8242188 222.746094 89.328125 263.851562 66.53125"></polygon>
        <path d="M1.22003745,53.6382814 C0.42322895,50.2605108 0,46.724187 0,43.0823206 C0,19.2886119 18.0655677,0 40.3505747,0 C62.6355818,0 80.7011494,19.2886119 80.7011494,43.0823206 C80.7011494,46.724187 80.2779205,50.2605108 79.481112,53.6382814 L79.8963215,53.6382814 L60.3857338,221.423337 C51.2761351,225.515675 41.9396605,228.647092 32.3763097,230.817587 C22.812959,232.988082 14.6980089,231.902835 8.03145951,227.561844 L0.790207546,53.6382814 L1.22003745,53.6382814 Z" id="path-7"></path>
        <path d="M1.78392031,60.2894283 C0.618838969,56.4928142 0,52.5179862 0,48.4245283 C0,21.6803998 26.4151998,0 59,0 C91.5848002,0 118,21.6803998 118,48.4245283 C118,52.5179862 117.381161,56.4928142 116.21608,60.2894283 L116.823193,60.2894283 L88.2951065,248.879831 C74.9751892,253.479619 61.3235371,256.999331 47.3401504,259.438968 C33.3567636,261.878605 21.4912064,260.658786 11.7434786,255.779513 L1.15542952,60.2894283 L1.78392031,60.2894283 Z" id="path-9"></path>
    </defs>
    <g id="ConstBotDozer" stroke="none" stroke-width="1" fill="none" fill-rule="evenodd">
        <g id="HammerArm" transform="translate(572.000000, 312.000000)">
            <g id="HammerHand" fill-rule="evenodd" stroke-width="1" transform="translate(0.000000, 425.000000)">
                <g id="Group" fill-rule="nonzero">
                    <path d="M22.078808,12.5327254 C43.5549015,23.9884016 63.0848976,31.9337296 80.6687961,36.3687094 C98.2526947,40.8036893 128.491522,42.534857 171.385279,41.5622125 L171.385279,140.114481 C124.551122,135.308564 90.5512028,127.103426 69.3855207,115.499065 C48.2198386,103.894705 25.1946091,78.2079083 0.309832018,38.4386764 L10.8174439,9.8296877 L22.078808,12.5327254 Z" id="Path-3" fill="#4A4A4A"></path>
                    <ellipse id="Oval-Copy" fill="#6E6E6E" cx="196.128947" cy="93.453125" rx="53.8815789" ry="92.9296875"></ellipse>
                    <polygon id="Path-2" fill="#6E6E6E" points="193.023882 0.175954759 220.670591 0.175954759 212.992837 193.652517 182.473543 183.583387 180.696529 13.43483"></polygon>
                    <ellipse id="Oval" fill="#9B9B9B" cx="219.118421" cy="97.2617188" rx="53.8815789" ry="96.7382813"></ellipse>
                </g>
                <path d="M220.595796,0.386426652 C249.67608,1.84836637 273,44.6219794 273,97.1738991 C273,150.649478 248.848986,194 219.057201,194 C216.987277,194 214.944583,193.790729 212.935328,193.38333 L212.924656,193.652202 L182.370686,183.573931 L182.36847,183.36174 C167.721074,176.76365 155.500058,159.815344 148.49106,137.320119 C113.190568,132.367407 86.7449386,125.069967 69.1541728,115.427801 C47.9644422,103.812906 24.9130513,78.1027915 0,38.2974568 L10.5195507,9.66249666 L21.79371,12.3679882 C43.2942048,23.8340639 62.846391,31.7866047 80.4502684,36.2256107 C95.1700215,39.9373538 118.747807,41.7569496 151.183625,41.6843979 C160.23047,18.3818123 175.222243,2.52131235 192.417441,0.554405067 L192.933013,0 L220.611134,0 L220.595796,0.386426652 Z" id="Combined-Shape" stroke="#000000" stroke-width="3" fill-rule="nonzero"></path>
            </g>
            <g id="contRoundHand" transform="translate(49.000000, 425.000000)" fill-rule="nonzero">
                <ellipse id="Oval" fill="#AB6B00" cx="44" cy="45" rx="44" ry="45"></ellipse>
                <ellipse id="Oval" stroke="#000000" stroke-width="3" cx="44" cy="45" rx="44" ry="45"></ellipse>
                <ellipse id="Oval-Copy" fill="#F5A623" cx="52" cy="46.5" rx="32" ry="36.5"></ellipse>
            </g>
            <g id="ConstArmUpper" transform="translate(103.367674, 329.599377) rotate(11.000000) translate(-103.367674, -329.599377) translate(43.738511, 204.688775)">
                <path d="M20.3694627,62.6052934 C19.5726542,59.2231012 19.1494253,55.6821481 19.1494253,52.0355143 C19.1494253,28.2106587 37.2149929,8.89679715 59.5,8.89679715 C81.7850071,8.89679715 99.8505747,28.2106587 99.8505747,52.0355143 C99.8505747,55.6821481 99.4273458,59.2231012 98.6305373,62.6052934 L99.0457468,62.6052934 L79.5351591,230.609987 C70.4255604,234.707682 61.0890857,237.843198 51.525735,240.016535 C41.9623843,242.189871 33.8474342,241.103203 27.1808848,236.75653 L19.9396328,62.6052934 L20.3694627,62.6052934 Z" id="SteelArm" fill="#AB6B00" fill-rule="nonzero" transform="translate(59.500000, 125.000000) rotate(-13.000000) translate(-59.500000, -125.000000) "></path>
                <g id="Path-13" stroke-width="1" fill-rule="evenodd" transform="translate(59.500000, 125.000000) rotate(-13.000000) translate(-59.500000, -125.000000) translate(19.149425, 8.896797)">
                    <mask id="mask-2" fill="white">
                        <use xlink:href="#path-1"></use>
                    </mask>
                    <g id="Mask" fill-rule="nonzero"></g>
                    <path d="M23.5191295,247.572752 C18.9891212,215.450866 12.4758258,129.612833 12.4758258,105.725354 C12.4758258,81.8378751 11.2227489,23.8408952 20.2219145,11.1740583 C29.2210801,-1.49277858 49.2167103,4.10190146 64.3545619,11.1740583 C74.446463,15.8888295 82.2443876,45.4608243 87.7483358,99.8900427 L69.5832281,242.071918 C41.8938345,267.153731 26.5391349,268.987342 23.5191295,247.572752 Z" fill="#F5A623" fill-rule="nonzero" mask="url(#mask-2)"></path>
                </g>
                <path d="M20.3694627,62.6052934 C19.5726542,59.2231012 19.1494253,55.6821481 19.1494253,52.0355143 C19.1494253,28.2106587 37.2149929,8.89679715 59.5,8.89679715 C81.7850071,8.89679715 99.8505747,28.2106587 99.8505747,52.0355143 C99.8505747,55.6821481 99.4273458,59.2231012 98.6305373,62.6052934 L99.0457468,62.6052934 L79.5351591,230.609987 C70.4255604,234.707682 61.0890857,237.843198 51.525735,240.016535 C41.9623843,242.189871 33.8474342,241.103203 27.1808848,236.75653 L19.9396328,62.6052934 L20.3694627,62.6052934 Z" id="Border" stroke="#000000" stroke-width="3" fill-rule="nonzero" transform="translate(59.500000, 125.000000) rotate(-13.000000) translate(-59.500000, -125.000000) "></path>
                <path d="M71.1779498,45.2696885 C75.8440045,42.1908822 73.6502774,24.9291647 68.5793928,21.7593369 C63.22732,18.4137374 57.1838308,16.4162444 51.2459136,16.4146093 C46.9929346,16.4134381 40.0539371,38.6711548 44.8182601,40.8543512 C57.4480696,46.6418166 62.3484462,46.4703963 74.8064639,42.3759714" id="Path-14" fill="#F7C46E" fill-rule="nonzero" transform="translate(59.008886, 30.876428) rotate(-13.000000) translate(-59.008886, -30.876428) "></path>
            </g>
            <g id="ConstArmUpper">
                <path d="M29.7839203,70.3683497 C28.618839,66.5667657 28,62.5867345 28,58.4879181 C28,31.7087804 54.4151998,10 87,10 C119.5848,10 146,31.7087804 146,58.4879181 C146,62.5867345 145.381161,66.5667657 144.21608,70.3683497 L144.823193,70.3683497 L116.295107,259.205626 C102.975189,263.811435 89.3235371,267.335755 75.3401504,269.778585 C61.3567636,272.221415 49.4912064,271 39.7434786,266.11434 L29.1554295,70.3683497 L29.7839203,70.3683497 Z" id="SteelArm" fill="#AB6B00" fill-rule="nonzero" transform="translate(87.000000, 140.500000) rotate(-13.000000) translate(-87.000000, -140.500000) "></path>
                <g id="Path-13" stroke-width="1" fill-rule="evenodd" transform="translate(87.000000, 140.500000) rotate(-13.000000) translate(-87.000000, -140.500000) translate(28.000000, 10.000000)">
                    <mask id="mask-4" fill="white">
                        <use xlink:href="#path-3"></use>
                    </mask>
                    <g id="Mask" fill-rule="nonzero"></g>
                    <path d="M34.3893153,278.271773 C27.7656058,242.166773 18.2419638,145.684824 18.2419638,118.835298 C18.2419638,91.9857716 16.4097337,26.7971662 29.5681775,12.5596415 C42.7266214,-1.67788313 71.9639293,4.61053724 94.098267,12.5596415 C108.854492,17.8590444 120.2565,51.0979665 128.304289,112.276408 L101.743544,272.088836 C61.2565311,300.280793 38.8051217,302.341772 34.3893153,278.271773 Z" fill="#F5A623" fill-rule="nonzero" mask="url(#mask-4)"></path>
                </g>
                <path d="M29.7839203,70.3683497 C28.618839,66.5667657 28,62.5867345 28,58.4879181 C28,31.7087804 54.4151998,10 87,10 C119.5848,10 146,31.7087804 146,58.4879181 C146,62.5867345 145.381161,66.5667657 144.21608,70.3683497 L144.823193,70.3683497 L116.295107,259.205626 C102.975189,263.811435 89.3235371,267.335755 75.3401504,269.778585 C61.3567636,272.221415 49.4912064,271 39.7434786,266.11434 L29.1554295,70.3683497 L29.7839203,70.3683497 Z" id="Border" stroke="#000000" stroke-width="3" fill-rule="nonzero" transform="translate(87.000000, 140.500000) rotate(-13.000000) translate(-87.000000, -140.500000) "></path>
                <path d="M104.075322,50.8831298 C110.897956,47.4225516 107.690322,28.0203812 100.275751,24.4574947 C92.4500309,20.6970408 83.6133325,18.4518588 74.9309997,18.4500208 C68.7123582,18.4487044 58.5662609,43.466378 65.532582,45.9202908 C83.9996985,52.4254019 91.164955,52.2327254 109.38088,47.6305919" id="Path-14" fill="#F7C46E" fill-rule="nonzero" transform="translate(86.281901, 34.705105) rotate(-13.000000) translate(-86.281901, -34.705105) "></path>
            </g>
        </g>
        <g id="const-Treads" transform="translate(257.000000, 704.000000)">
            <g id="Treads" transform="translate(171.000000, 232.000000)" fill-rule="nonzero">
                <path d="M133.994415,292.253399 C104.879932,292.253399 76.8856093,284.080828 54.9348278,244.67684 C32.9840463,205.272853 15.9130979,174.493855 8.25584852,151.147108 C0.598599144,127.80036 0.284083372,83.0108946 0.284083372,54.4238302 C0.284083372,36.0054135 -1.41584762,19.9222233 14.0864871,10.6625896 C22.6451911,5.55042645 46.8031799,1.50698717 54.9348278,2.68598574 C72.1064448,5.17567939 149.972706,37.6175106 196.163737,63.2122066 C211.466513,71.6915569 223.292768,79.4193983 228.283825,85.0576664 C248.340253,107.714899 255.467665,232.848628 232.280594,251.182478 C209.093524,269.516328 163.108899,292.253399 133.994415,292.253399 Z" id="Path-4" fill="#000000"></path>
                <path d="M150.470002,4.69622441 C195.049707,14.6036472 241.451935,32.9065017 289.676685,59.604788 C362.01381,99.6522174 372.006259,136.078632 367.010035,189.440085 C362.01381,242.801538 320.069496,291.13904 289.676685,291.13904 C269.414811,291.13904 217.371267,291.13904 133.546053,291.13904 C195.659679,276.836123 226.716492,242.936471 226.716492,189.440085 C226.716492,109.195505 229.443291,86.3174883 180.218557,55.1423778 C147.402067,34.3589708 97.0835757,17.5435863 29.2630827,4.69622441 C48.6775768,1.77703483 65.2767515,0.317440044 79.0606068,0.317440044 C92.8444622,0.317440044 116.647594,1.77703483 150.470002,4.69622441 Z" id="Path-3" fill="#C5C5C5"></path>
                <ellipse id="Oval-2" fill="#C5C5C5" cx="154.5" cy="163.5" rx="56.5" ry="95.5"></ellipse>
                <ellipse id="Oval-2-Copy" fill="#C5C5C5" cx="20" cy="66" rx="13" ry="52"></ellipse>
                <ellipse id="Oval-2-Copy-2" fill="#C5C5C5" cx="34" cy="155.5" rx="9" ry="27.5"></ellipse>
                <ellipse id="Oval-2-Copy-3" fill="#C5C5C5" cx="57" cy="183.5" rx="9" ry="36.5"></ellipse>
                <ellipse id="Oval-2-Copy-4" fill="#C5C5C5" cx="82" cy="213.5" rx="9" ry="42.5"></ellipse>
                <path d="M318.5,263.5 L209.5,263.5" id="Line" stroke="#979797" stroke-width="5" stroke-linecap="square"></path>
                <path d="M352.5,203.25 L237.5,203.25" id="Line-Copy" stroke="#979797" stroke-width="5" stroke-linecap="square"></path>
                <path d="M343.5,110.208333 L241.5,110.208333" id="Line-Copy-2" stroke="#979797" stroke-width="5" stroke-linecap="square"></path>
                <path d="M301.5,73.2013889 L217.5,73.2013889" id="Line-Copy-3" stroke="#979797" stroke-width="5" stroke-linecap="square"></path>
                <path d="M275,52.2002315 L195.5,52.2002315" id="Line-Copy-4" stroke="#979797" stroke-width="4" stroke-linecap="square"></path>
                <path d="M238,34.2000386 L161.5,34.2000386" id="Line-Copy-5" stroke="#979797" stroke-width="4" stroke-linecap="square"></path>
                <path d="M199.5,19.2000386 L121.5,19.2000386" id="Line-Copy-6" stroke="#979797" stroke-width="3" stroke-linecap="square"></path>
                <path d="M167.5,8.20003858 L89.5,8.20003858" id="Line-Copy-7" stroke="#979797" stroke-width="3" stroke-linecap="square"></path>
                <path d="M146.244448,291.13904 C141.930156,291.861472 137.816887,292.253399 133.994415,292.253399 C104.879932,292.253399 76.8856093,284.080828 54.9348278,244.67684 C32.9840463,205.272853 15.9130979,174.493855 8.25584852,151.147108 C0.598599144,127.80036 0.284083372,83.0108946 0.284083372,54.4238302 C0.284083372,36.0054135 -1.41584762,19.9222233 14.0864871,10.6625896 C17.7287957,8.48701766 24.1962587,6.50500011 31.0513719,5.03667904 C30.4566338,4.92288623 29.8605374,4.80940135 29.2630827,4.69622441 C48.6775768,1.77703483 65.2767515,0.317440044 79.0606068,0.317440044 C92.8444622,0.317440044 116.647594,1.77703483 150.470002,4.69622441 C195.049707,14.6036472 241.451935,32.9065017 289.676685,59.604788 C362.01381,99.6522174 372.006259,136.078632 367.010035,189.440085 C362.01381,242.801538 320.069496,291.13904 289.676685,291.13904 L146.244448,291.13904 Z M176.39582,52.7867569 C164.389283,45.5855763 150.219148,38.8749226 133.885416,32.6547959 C148.303218,39.0933184 162.97469,46.0037005 176.39582,52.7867569 Z" id="Path-3" stroke="#000000" stroke-width="3"></path>
            </g>
            <g id="Const-Head-No-Foot" transform="translate(198.000000, 7.000000)" fill-rule="evenodd" stroke-width="1">
                <g>
                    <path d="M1.405229,20.9632722 L1.405229,366.497035 C0.351905788,369.377337 -0.109259604,371.327323 0.0217328252,372.346995 C0.541712069,376.394617 4.52589537,377.310603 14.2759971,377.92329 C22.6600451,378.450135 28.3050548,376.18259 35.9500852,373.593547 C48.4319425,369.366478 55.8383161,365.141554 60.2710731,361.508774 C63.8082224,358.609972 64.4112531,352.923997 62.8232561,350.403599 C62.2627426,349.513977 60.7036299,348.232582 58.145918,346.559412 C83.0800375,267.636112 101.355635,206.512413 112.972712,163.188317 C124.589788,119.864221 130.598884,65.4681156 131,0 L1.405229,20.9632722 Z" id="SilverLeg" fill="#F5A623" fill-rule="nonzero"></path>
                    <path d="M56.6035268,348 C72.7386788,362.580877 26.9687891,375.67233 11.8235917,369.382445 C-6.7572515,361.665718 33.3118163,372.359809 47.9965887,358.5329 C50.9095845,355.790077 52.9609916,352.464553 55.4431931,349.43038 L56.6035268,348 Z" id="Path-13" fill="#F7C46E" fill-rule="nonzero"></path>
                    <path d="M26,167.220387 C26,189.650011 33.1451003,201.724542 35.2241554,223.606864 C35.7313631,228.94529 37.5513179,234.105322 39.2338703,239.210932 C49.7318035,271.066316 77.0633065,229.317428 83.1574853,219.788801 C105.734576,184.488117 112.719709,142.532083 120.465015,104.158831 C126.459968,74.4575103 113.719957,58.3866091 102.534056,51.7401853 C90.7566724,44.742315 53.0566135,51.6345878 35.2241554,66.8744111 C27.957745,73.0843689 31.1199006,96.6093229 29.1508165,110.868418 C27.7180572,121.243723 26,151.61091 26,167.220387 Z" id="Path-12" fill="#F7C46E" fill-rule="nonzero"></path>
                    <path d="M1.405229,20.9632722 L1.405229,366.497035 C0.351905788,369.377337 -0.109259604,371.327323 0.0217328252,372.346995 C0.541712069,376.394617 4.52589537,377.310603 14.2759971,377.92329 C22.6600451,378.450135 28.3050548,376.18259 35.9500852,373.593547 C48.4319425,369.366478 55.8383161,365.141554 60.2710731,361.508774 C63.8082224,358.609972 64.4112531,352.923997 62.8232561,350.403599 C62.2627426,349.513977 60.7036299,348.232582 58.145918,346.559412 C83.0800375,267.636112 101.355635,206.512413 112.972712,163.188317 C124.589788,119.864221 130.598884,65.4681156 131,0 L1.405229,20.9632722 Z" id="SilverLeg" stroke="#000000" stroke-width="3" fill-rule="nonzero"></path>
                </g>
            </g>
            <g id="Const-Head-No-Foot" transform="translate(141.500000, 189.000000) scale(-1, 1) translate(-141.500000, -189.000000) translate(76.000000, 0.000000)" fill-rule="evenodd" stroke-width="1">
                <g>
                    <path d="M1.405229,20.9632722 L1.405229,366.497035 C0.351905788,369.377337 -0.109259604,371.327323 0.0217328252,372.346995 C0.541712069,376.394617 4.52589537,377.310603 14.2759971,377.92329 C22.6600451,378.450135 28.3050548,376.18259 35.9500852,373.593547 C48.4319425,369.366478 55.8383161,365.141554 60.2710731,361.508774 C63.8082224,358.609972 64.4112531,352.923997 62.8232561,350.403599 C62.2627426,349.513977 60.7036299,348.232582 58.145918,346.559412 C83.0800375,267.636112 101.355635,206.512413 112.972712,163.188317 C124.589788,119.864221 130.598884,65.4681156 131,0 L1.405229,20.9632722 Z" id="SilverLeg" fill="#F5A623" fill-rule="nonzero"></path>
                    <path d="M56.6035268,348 C72.7386788,362.580877 26.9687891,375.67233 11.8235917,369.382445 C-6.7572515,361.665718 33.3118163,372.359809 47.9965887,358.5329 C50.9095845,355.790077 52.9609916,352.464553 55.4431931,349.43038 L56.6035268,348 Z" id="Path-13" fill="#F7C46E" fill-rule="nonzero"></path>
                    <path d="M26,167.220387 C26,189.650011 33.1451003,201.724542 35.2241554,223.606864 C35.7313631,228.94529 37.5513179,234.105322 39.2338703,239.210932 C49.7318035,271.066316 77.0633065,229.317428 83.1574853,219.788801 C105.734576,184.488117 112.719709,142.532083 120.465015,104.158831 C126.459968,74.4575103 113.719957,58.3866091 102.534056,51.7401853 C90.7566724,44.742315 53.0566135,51.6345878 35.2241554,66.8744111 C27.957745,73.0843689 31.1199006,96.6093229 29.1508165,110.868418 C27.7180572,121.243723 26,151.61091 26,167.220387 Z" id="Path-12" fill="#F7C46E" fill-rule="nonzero"></path>
                    <path d="M1.405229,20.9632722 L1.405229,366.497035 C0.351905788,369.377337 -0.109259604,371.327323 0.0217328252,372.346995 C0.541712069,376.394617 4.52589537,377.310603 14.2759971,377.92329 C22.6600451,378.450135 28.3050548,376.18259 35.9500852,373.593547 C48.4319425,369.366478 55.8383161,365.141554 60.2710731,361.508774 C63.8082224,358.609972 64.4112531,352.923997 62.8232561,350.403599 C62.2627426,349.513977 60.7036299,348.232582 58.145918,346.559412 C83.0800375,267.636112 101.355635,206.512413 112.972712,163.188317 C124.589788,119.864221 130.598884,65.4681156 131,0 L1.405229,20.9632722 Z" id="SilverLeg" stroke="#000000" stroke-width="3" fill-rule="nonzero"></path>
                </g>
            </g>
            <g id="Treads" transform="translate(0.000000, 226.000000)" fill-rule="nonzero">
                <path d="M107.122907,292.253399 C83.8471004,292.253399 61.466815,284.080828 43.9180873,244.67684 C26.3693595,205.272853 12.7218533,174.493855 6.6002041,151.147108 C0.478554871,127.80036 0.227112723,83.0108946 0.227112723,54.4238302 C0.227112723,36.0054135 -1.1319107,19.9222233 11.2615547,10.6625896 C18.1038791,5.55042645 37.4171764,1.50698717 43.9180873,2.68598574 C57.6460737,5.17567939 119.896879,37.6175106 156.824667,63.2122066 C169.058595,71.6915569 178.513189,79.4193983 182.503329,85.0576664 C198.537601,107.714899 204.235667,232.848628 185.698578,251.182478 C167.161489,269.516328 130.398713,292.253399 107.122907,292.253399 Z" id="Path-4" fill="#000000"></path>
                <path d="M120.294446,4.69622441 C155.934048,14.6036472 193.03068,32.9065017 231.584342,59.604788 C289.414835,99.6522174 297.403378,136.078632 293.409106,189.440085 C289.414835,242.801538 255.882118,291.13904 231.584342,291.13904 C215.385825,291.13904 173.779197,291.13904 106.76446,291.13904 C156.421695,276.836123 181.250312,242.936471 181.250312,189.440085 C181.250312,109.195505 183.430273,86.3174883 144.077166,55.1423778 C117.841761,34.3589708 77.6142408,17.5435863 23.3946054,4.69622441 C38.9156779,1.77703483 52.1860209,0.317440044 63.2056342,0.317440044 C74.2252475,0.317440044 93.2548514,1.77703483 120.294446,4.69622441 Z" id="Path-3" fill="#C5C5C5"></path>
                <ellipse id="Oval-2" fill="#C5C5C5" cx="123.51626" cy="163.5" rx="45.1693767" ry="95.5"></ellipse>
                <ellipse id="Oval-2-Copy" fill="#C5C5C5" cx="15.9891599" cy="66" rx="10.3929539" ry="52"></ellipse>
                <ellipse id="Oval-2-Copy-2" fill="#C5C5C5" cx="27.1815718" cy="155.5" rx="7.19512195" ry="27.5"></ellipse>
                <ellipse id="Oval-2-Copy-3" fill="#C5C5C5" cx="45.5691057" cy="183.5" rx="7.19512195" ry="36.5"></ellipse>
                <ellipse id="Oval-2-Copy-4" fill="#C5C5C5" cx="65.5555556" cy="213.5" rx="7.19512195" ry="42.5"></ellipse>
                <path d="M254.627371,263.5 L167.48645,263.5" id="Line" stroke="#979797" stroke-width="5" stroke-linecap="square"></path>
                <path d="M281.808943,203.25 L189.871274,203.25" id="Line-Copy" stroke="#979797" stroke-width="5" stroke-linecap="square"></path>
                <path d="M274.613821,110.208333 L193.069106,110.208333" id="Line-Copy-2" stroke="#979797" stroke-width="5" stroke-linecap="square"></path>
                <path d="M241.036585,73.2013889 L173.882114,73.2013889" id="Line-Copy-3" stroke="#979797" stroke-width="5" stroke-linecap="square"></path>
                <path d="M219.850949,52.2002315 L156.294038,52.2002315" id="Line-Copy-4" stroke="#979797" stroke-width="4" stroke-linecap="square"></path>
                <path d="M190.271003,34.2000386 L129.112466,34.2000386" id="Line-Copy-5" stroke="#979797" stroke-width="4" stroke-linecap="square"></path>
                <path d="M159.49187,19.2000386 L97.1341463,19.2000386" id="Line-Copy-6" stroke="#979797" stroke-width="3" stroke-linecap="square"></path>
                <path d="M133.909214,8.20003858 L71.5514905,8.20003858" id="Line-Copy-7" stroke="#979797" stroke-width="3" stroke-linecap="square"></path>
                <path d="M116.916293,291.13904 C113.467198,291.861472 110.178812,292.253399 107.122907,292.253399 C83.8471004,292.253399 61.466815,284.080828 43.9180873,244.67684 C26.3693595,205.272853 12.7218533,174.493855 6.6002041,151.147108 C0.478554871,127.80036 0.227112723,83.0108946 0.227112723,54.4238302 C0.227112723,36.0054135 -1.1319107,19.9222233 11.2615547,10.6625896 C14.1734275,8.48701766 19.3438925,6.50500011 24.8242675,5.03667904 C24.3487993,4.92288623 23.8722453,4.80940135 23.3946054,4.69622441 C38.9156779,1.77703483 52.1860209,0.317440044 63.2056342,0.317440044 C74.2252475,0.317440044 93.2548514,1.77703483 120.294446,4.69622441 C155.934048,14.6036472 193.03068,32.9065017 231.584342,59.604788 C289.414835,99.6522174 297.403378,136.078632 293.409106,189.440085 C289.414835,242.801538 255.882118,291.13904 231.584342,291.13904 L116.916293,291.13904 Z M141.021048,52.7867569 C131.422326,45.5855763 120.093899,38.8749226 107.035767,32.6547959 C118.562193,39.0933184 130.291419,46.0037005 141.021048,52.7867569 Z" id="Path-3" stroke="#000000" stroke-width="3"></path>
            </g>
        </g>
        <g id="Const-head" transform="translate(276.000000, 25.000000)">
            <g>
                <path d="M77.0507813,11 L113.476563,0.20703125 L313.105469,97.1328125 L313.105469,219.628906 C264.503906,258.28776 240.203125,277.617187 240.203125,277.617187 C240.203125,277.617187 185.81901,280.481771 77.0507813,286.210937 L0,219.628906 L0,97.1328125 L77.0507813,11 Z" id="consHeadBack" stroke="#979797" fill="#AB6B00" fill-rule="nonzero"></path>
                <path d="M114.050781,0 L268,7.3203125 L350.105469,86.1328125 L350.105469,208.628906 C301.503906,247.28776 277.203125,266.617188 277.203125,266.617188 C277.203125,266.617188 222.81901,269.481771 114.050781,275.210938 L37,208.628906 L37,86.1328125 L114.050781,0 Z" id="consHead" fill="#F5A623" fill-rule="nonzero"></path>
                <path d="M113.74778,0.338715668 L114.050781,0 L268,7.3203125 L350.105469,86.1328125 L350.105469,208.628906 C301.503906,247.28776 277.203125,266.617188 277.203125,266.617188 L252.389031,267.924224 L240.203125,277.617187 C240.203125,277.617187 185.81901,280.481771 77.0507813,286.210937 L0,219.628906 L0,97.1328125 L77.0507813,11 L113.476563,0.20703125 L113.74778,0.338715668 Z" id="Combined-Shape" stroke="#000000" stroke-width="3" fill-rule="nonzero"></path>
                <polygon id="Path-2-Copy" fill="#C5C5C5" fill-rule="nonzero" transform="translate(193.925781, 201.664062) scale(1, -1) translate(-193.925781, -201.664062) " points="261.253906 164.984375 120.320312 157 62 223.53125 98.5507812 246.328125 138.691406 210.824219 244.8125 210.824219 284.746094 246.328125 325.851562 223.53125"></polygon>
                <g id="const-mouth" transform="translate(62.000000, 157.000000)">
                    <g fill-rule="evenodd" stroke-width="1">
                        <mask id="mask-6" fill="white">
                            <use xlink:href="#path-5"></use>
                        </mask>
                        <use id="Mask" fill="#C5C5C5" fill-rule="nonzero" transform="translate(131.925781, 44.664062) scale(1, -1) translate(-131.925781, -44.664062) " xlink:href="#path-5"></use>
                        <g id="Group" mask="url(#mask-6)" fill="#4A4A4A" fill-rule="nonzero">
                            <g transform="translate(14.000000, 8.000000)">
                                <path d="M197.638183,3.1846948 C195.506874,7.9643957 198.977365,12.7968105 204.14089,12.4804734 C209.304416,12.1641363 209.591208,6.23122874 209.133906,4.88645352 C206.956978,-1.51518066 199.564056,-1.13429212 197.638183,3.1846948 Z" id="Path-2"></path>
                                <path d="M144.638183,35.1846948 C142.506874,39.9643957 145.977365,44.7968105 151.14089,44.4804734 C156.304416,44.1641363 156.591208,38.2312287 156.133906,36.8864535 C153.956978,30.4848193 146.564056,30.8657079 144.638183,35.1846948 Z" id="Path-2-Copy-5"></path>
                                <path d="M19.6381831,7.1846948 C17.5068735,11.9643957 20.9773645,16.7968105 26.1408902,16.4804734 C31.3044158,16.1641363 31.5912083,10.2312287 31.1339064,8.88645352 C28.9569781,2.48481934 21.5640564,2.86570788 19.6381831,7.1846948 Z" id="Path-2-Copy-10"></path>
                                <path d="M66.6381831,38.1846948 C64.5068735,42.9643957 67.9773645,47.7968105 73.1408902,47.4804734 C78.3044158,47.1641363 78.5912083,41.2312287 78.1339064,39.8864535 C75.9569781,33.4848193 68.5640564,33.8657079 66.6381831,38.1846948 Z" id="Path-2-Copy-15"></path>
                                <path d="M105.638183,59.1846948 C103.506874,63.9643957 106.977365,68.7968105 112.14089,68.4804734 C117.304416,68.1641363 117.591208,62.2312287 117.133906,60.8864535 C114.956978,54.4848193 107.564056,54.8657079 105.638183,59.1846948 Z" id="Path-2-Copy-20"></path>
                                <path d="M178.638183,18.1846948 C176.506874,22.9643957 179.977365,27.7968105 185.14089,27.4804734 C190.304416,27.1641363 190.591208,21.2312287 190.133906,19.8864535 C187.956978,13.4848193 180.564056,13.8657079 178.638183,18.1846948 Z" id="Path-2-Copy"></path>
                                <path d="M126.638183,42.1846948 C124.506874,46.9643957 127.977365,51.7968105 133.14089,51.4804734 C138.304416,51.1641363 138.591208,45.2312287 138.133906,43.8864535 C135.956978,37.4848193 128.564056,37.8657079 126.638183,42.1846948 Z" id="Path-2-Copy-6"></path>
                                <path d="M0.63818312,22.1846948 C-1.4931265,26.9643957 1.9773645,31.7968105 7.14089015,31.4804734 C12.3044158,31.1641363 12.5912083,25.2312287 12.1339064,23.8864535 C9.95697813,17.4848193 2.56405642,17.8657079 0.63818312,22.1846948 Z" id="Path-2-Copy-11"></path>
                                <path d="M47.6381831,53.1846948 C45.5068735,57.9643957 48.9773645,62.7968105 54.1408902,62.4804734 C59.3044158,62.1641363 59.5912083,56.2312287 59.1339064,54.8864535 C56.9569781,48.4848193 49.5640564,48.8657079 47.6381831,53.1846948 Z" id="Path-2-Copy-16"></path>
                                <path d="M102.638183,74.1846948 C100.506874,78.9643957 103.977365,83.7968105 109.14089,83.4804734 C114.304416,83.1641363 114.591208,77.2312287 114.133906,75.8864535 C111.956978,69.4848193 104.564056,69.8657079 102.638183,74.1846948 Z" id="Path-2-Copy-21"></path>
                                <path d="M190.638183,38.1846948 C188.506874,42.9643957 191.977365,47.7968105 197.14089,47.4804734 C202.304416,47.1641363 202.591208,41.2312287 202.133906,39.8864535 C199.956978,33.4848193 192.564056,33.8657079 190.638183,38.1846948 Z" id="Path-2-Copy-2"></path>
                                <path d="M138.638183,62.1846948 C136.506874,66.9643957 139.977365,71.7968105 145.14089,71.4804734 C150.304416,71.1641363 150.591208,65.2312287 150.133906,63.8864535 C147.956978,57.4848193 140.564056,57.8657079 138.638183,62.1846948 Z" id="Path-2-Copy-7"></path>
                                <path d="M12.6381831,42.1846948 C10.5068735,46.9643957 13.9773645,51.7968105 19.1408902,51.4804734 C24.3044158,51.1641363 24.5912083,45.2312287 24.1339064,43.8864535 C21.9569781,37.4848193 14.5640564,37.8657079 12.6381831,42.1846948 Z" id="Path-2-Copy-12"></path>
                                <path d="M49.6381831,74.1846948 C47.5068735,78.9643957 50.9773645,83.7968105 56.1408902,83.4804734 C61.3044158,83.1641363 61.5912083,77.2312287 61.1339064,75.8864535 C58.9569781,69.4848193 51.5640564,69.8657079 49.6381831,74.1846948 Z" id="Path-2-Copy-17"></path>
                                <path d="M102.638183,41.1846948 C100.506874,45.9643957 103.977365,50.7968105 109.14089,50.4804734 C114.304416,50.1641363 114.591208,44.2312287 114.133906,42.8864535 C111.956978,36.4848193 104.564056,36.8657079 102.638183,41.1846948 Z" id="Path-2-Copy-22"></path>
                                <path d="M213.638183,32.1846948 C211.506874,36.9643957 214.977365,41.7968105 220.14089,41.4804734 C225.304416,41.1641363 225.591208,35.2312287 225.133906,33.8864535 C222.956978,27.4848193 215.564056,27.8657079 213.638183,32.1846948 Z" id="Path-2-Copy-3"></path>
                                <path d="M161.638183,56.1846948 C159.506874,60.9643957 162.977365,65.7968105 168.14089,65.4804734 C173.304416,65.1641363 173.591208,59.2312287 173.133906,57.8864535 C170.956978,51.4848193 163.564056,51.8657079 161.638183,56.1846948 Z" id="Path-2-Copy-8"></path>
                                <path d="M35.6381831,36.1846948 C33.5068735,40.9643957 36.9773645,45.7968105 42.1408902,45.4804734 C47.3044158,45.1641363 47.5912083,39.2312287 47.1339064,37.8864535 C44.9569781,31.4848193 37.5640564,31.8657079 35.6381831,36.1846948 Z" id="Path-2-Copy-13"></path>
                                <path d="M74.6381831,65.1846948 C72.5068735,69.9643957 75.9773645,74.7968105 81.1408902,74.4804734 C86.3044158,74.1641363 86.5912083,68.2312287 86.1339064,66.8864535 C83.9569781,60.4848193 76.5640564,60.8657079 74.6381831,65.1846948 Z" id="Path-2-Copy-18"></path>
                                <path d="M181.638183,59.1846948 C179.506874,63.9643957 182.977365,68.7968105 188.14089,68.4804734 C193.304416,68.1641363 193.591208,62.2312287 193.133906,60.8864535 C190.956978,54.4848193 183.564056,54.8657079 181.638183,59.1846948 Z" id="Path-2-Copy-23"></path>
                                <path d="M215.638183,12.1846948 C213.506874,16.9643957 216.977365,21.7968105 222.14089,21.4804734 C227.304416,21.1641363 227.591208,15.2312287 227.133906,13.8864535 C224.956978,7.48481934 217.564056,7.86570788 215.638183,12.1846948 Z" id="Path-2-Copy-4"></path>
                                <path d="M163.638183,36.1846948 C161.506874,40.9643957 164.977365,45.7968105 170.14089,45.4804734 C175.304416,45.1641363 175.591208,39.2312287 175.133906,37.8864535 C172.956978,31.4848193 165.564056,31.8657079 163.638183,36.1846948 Z" id="Path-2-Copy-9"></path>
                                <path d="M37.6381831,16.1846948 C35.5068735,20.9643957 38.9773645,25.7968105 44.1408902,25.4804734 C49.3044158,25.1641363 49.5912083,19.2312287 49.1339064,17.8864535 C46.9569781,11.4848193 39.5640564,11.8657079 37.6381831,16.1846948 Z" id="Path-2-Copy-14"></path>
                                <path d="M84.6381831,47.1846948 C82.5068735,51.9643957 85.9773645,56.7968105 91.1408902,56.4804734 C96.3044158,56.1641363 96.5912083,50.2312287 96.1339064,48.8864535 C93.9569781,42.4848193 86.5640564,42.8657079 84.6381831,47.1846948 Z" id="Path-2-Copy-19"></path>
                                <path d="M123.638183,68.1846948 C121.506874,72.9643957 124.977365,77.7968105 130.14089,77.4804734 C135.304416,77.1641363 135.591208,71.2312287 135.133906,69.8864535 C132.956978,63.4848193 125.564056,63.8657079 123.638183,68.1846948 Z" id="Path-2-Copy-24"></path>
                            </g>
                        </g>
                    </g>
                    <polygon id="Mask" stroke="#000000" stroke-width="3" fill-rule="nonzero" transform="translate(131.925781, 44.664062) scale(1, -1) translate(-131.925781, -44.664062) " points="199.253906 7.984375 58.3203125 0 0 66.53125 36.5507812 89.328125 76.6914062 53.8242188 182.8125 53.8242188 222.746094 89.328125 263.851562 66.53125"></polygon>
                </g>
                <g id="const-eye" transform="translate(61.000000, 12.000000)" fill-rule="nonzero">
                    <g id="Group-2">
                        <polygon id="const-eye" fill="#000000" points="200.253906 8.984375 59.3203125 1 1 67.53125 37.5507812 90.328125 77.6914062 54.8242188 183.8125 54.8242188 223.746094 90.328125 264.851562 67.53125"></polygon>
                        <polygon id="Path-2" stroke="#000000" stroke-width="3" points="200.082031 8.484375 59.1484375 0.5 0.828125 67.03125 37.3789062 89.828125 77.5195312 54.3242188 183.640625 54.3242188 223.574219 89.828125 264.679687 67.03125"></polygon>
                    </g>
                    <path d="M225.97481,31.9518094 C225.400118,48.4884063 215.044816,62.6306221 200.319147,69.1526536 L183.640625,54.3242188 L145.558001,54.3242188 C140.787173,47.5290157 138,39.3289012 138,30.5 C138,21.1316784 141.138154,12.4713246 146.454484,5.44618916 L200.082031,8.484375 L225.97481,31.9518094 Z" id="Combined-Shape" fill="#D0021B"></path>
                </g>
            </g>
        </g>
        <g id="ConstBody" transform="translate(287.000000, 295.000000)" fill-rule="nonzero">
            <path d="M198.872103,456 C129.369072,456 112.255267,450.775565 76.6595763,439.04522 C52.929116,431.224991 36.7092573,419.4767 28,403.800347 C34.4756646,354.12641 37.7134969,313.522235 37.7134969,281.98782 C37.7134969,250.453406 34.4756646,221.323836 28,194.59911 C57.3436775,186.86637 102.02284,183 162.037487,183 C222.052133,183 270.821343,189.814099 308.345115,203.442296 C322.115038,240.06457 329,270.98207 329,296.194795 C329,334.013883 329,395.996943 316.339564,431.50092 C297.98259,442.073709 268.375133,456 198.872103,456 Z" id="back" fill="#AB6B00"></path>
            <path d="M74,438.036524 C88.7996392,407.497111 96.1994588,371.249864 96.1994588,329.294782 C96.1994588,263.437634 93.1349585,217.879859 78.5747445,186.379337 C102.118513,184.126446 130.146549,183 162.65885,183 C214.302139,183 257.648781,188.008961 292.698777,198.026882 C305.834029,216.073453 314.186276,233.016082 317.755517,248.85477 C324.961626,280.83224 329.592397,318.372035 322.386288,378.995639 C319.291046,405.035307 314.913503,424.032 309.253658,435.985719 C290.218498,445.624531 259.839463,456 199.628317,456 C129.870838,456 112.694379,450.775565 76.9683738,439.04522 C75.9655523,438.715952 74.9760943,438.37972 74,438.036524 Z" id="highlight" fill="#F5A623"></path>
            <path d="M295.167548,15.5730435 C310.876764,21.9369472 316.098909,46.4566936 324.088549,55.6014627 C332.078189,64.7462318 365.090271,180.719017 365.090271,189.540243 C365.090271,198.361469 361.691732,227.410818 347.998644,227.410818 C334.305556,227.410818 118.505048,236.384457 96.3169505,236.384457 C74.1288528,236.384457 41.2531405,232.969875 25.7845763,227.410818 C10.3160122,221.851761 -4.5990527,208.303063 2.85847977,189.540243 C10.3160122,170.777423 14.2867672,41.854896 20.0356718,24.7044431 C25.7845763,7.55399014 8.75979714,2.52971495 46.2159157,2.52971495 C83.6720343,2.52971495 140.385646,-2.48653851 200.508492,2.52971495 C260.631338,7.54596841 279.458332,9.20913987 295.167548,15.5730435 Z" id="Path-3" fill="#F5A623"></path>
            <path d="M34.4952678,229.924492 C31.2184549,229.145758 28.275773,228.306098 25.7845763,227.410818 C10.3160122,221.851761 -4.5990527,208.303063 2.85847977,189.540243 C10.3160122,170.777423 14.2867672,41.854896 20.0356718,24.7044431 C25.7845763,7.55399014 8.75979714,2.52971495 46.2159157,2.52971495 C83.6720343,2.52971495 140.385646,-2.48653851 200.508492,2.52971495 C260.631338,7.54596841 279.458332,9.20913987 295.167548,15.5730435 C310.876764,21.9369472 316.098909,46.4566936 324.088549,55.6014627 C332.078189,64.7462318 365.090271,180.719017 365.090271,189.540243 C365.090271,198.361469 361.691732,227.410818 347.998644,227.410818 C345.159411,227.410818 333.630944,227.796623 316.940904,228.408241 C324.980301,254.33442 329,276.929938 329,296.194795 C329,334.013883 329,395.996943 316.339564,431.50092 C297.98259,442.073709 268.375133,456 198.872103,456 C129.369072,456 112.255267,450.775565 76.6595763,439.04522 C52.929116,431.224991 36.7092573,419.4767 28,403.800347 C34.4756646,354.12641 37.7134969,313.522235 37.7134969,281.98782 C37.7134969,263.836616 36.6407538,246.482173 34.4952678,229.924492 Z" id="Combined-Shape" stroke="#000000" stroke-width="3"></path>
            <g id="Handle" transform="translate(197.745536, 350.839354) rotate(-95.000000) translate(-197.745536, -350.839354) translate(180.245536, 277.339354)">
                <path d="M10.4241071,0.94140625 C23.1259301,5.64322917 30.515253,10.110026 32.5920759,14.3417969 C35.7073103,20.6894531 34.7907366,17.90625 34.7907366,31.8476562 C34.7907366,41.1419271 31.5722656,77.3216146 25.1353237,140.386719 C24.479708,147.240885 20.6697192,148.357422 13.7053571,143.736328 C6.74099511,139.115234 2.22323097,136.246094 0.152064732,135.128906 L0.152064732,127.5 L17.5342942,137.707031 L29.5200893,20.5390625 L10.4241071,8.24804688 L10.4241071,0.94140625 Z" id="Path-8" fill="#AB6B00"></path>
                <path d="M13.0814141,4.11298773 C24.8972146,8.38929177 31.2154212,12.1278516 32.036034,15.3286673 C32.8566467,18.5294829 33.23095,28.4725311 33.158944,45.1578117 L26.250203,118.715132 C25.4585631,115.927691 25.0627432,113.070757 25.0627432,110.144331 C25.0627432,105.754692 34.0613624,21.298433 30.7782724,16.6627381 C28.5895458,13.5722749 22.690593,10.0985607 13.0814141,6.24159576 L13.0814141,4.11298773 Z" id="Path-9" fill="#F7C46E"></path>
                <path d="M10.4241071,0.94140625 C23.1259301,5.64322917 30.515253,10.110026 32.5920759,14.3417969 C35.7073103,20.6894531 34.7907366,17.90625 34.7907366,31.8476562 C34.7907366,41.1419271 31.5722656,77.3216146 25.1353237,140.386719 C24.479708,147.240885 20.6697192,148.357422 13.7053571,143.736328 C6.74099511,139.115234 2.22323097,136.246094 0.152064732,135.128906 L0.152064732,127.5 L17.5342942,137.707031 L29.5200893,20.5390625 L10.4241071,8.24804688 L10.4241071,0.94140625 Z" id="Path-8" stroke="#000000" stroke-width="3"></path>
            </g>
            <g id="Handle" transform="translate(204.745536, 272.839354) rotate(-95.000000) translate(-204.745536, -272.839354) translate(187.245536, 199.339354)">
                <path d="M10.4241071,0.94140625 C23.1259301,5.64322917 30.515253,10.110026 32.5920759,14.3417969 C35.7073103,20.6894531 34.7907366,17.90625 34.7907366,31.8476562 C34.7907366,41.1419271 31.5722656,77.3216146 25.1353237,140.386719 C24.479708,147.240885 20.6697192,148.357422 13.7053571,143.736328 C6.74099511,139.115234 2.22323097,136.246094 0.152064732,135.128906 L0.152064732,127.5 L17.5342942,137.707031 L29.5200893,20.5390625 L10.4241071,8.24804688 L10.4241071,0.94140625 Z" id="Path-8" fill="#AB6B00"></path>
                <path d="M13.0814141,4.11298773 C24.8972146,8.38929177 31.2154212,12.1278516 32.036034,15.3286673 C32.8566467,18.5294829 33.23095,28.4725311 33.158944,45.1578117 L26.250203,118.715132 C25.4585631,115.927691 25.0627432,113.070757 25.0627432,110.144331 C25.0627432,105.754692 34.0613624,21.298433 30.7782724,16.6627381 C28.5895458,13.5722749 22.690593,10.0985607 13.0814141,6.24159576 L13.0814141,4.11298773 Z" id="Path-9" fill="#F7C46E"></path>
                <path d="M10.4241071,0.94140625 C23.1259301,5.64322917 30.515253,10.110026 32.5920759,14.3417969 C35.7073103,20.6894531 34.7907366,17.90625 34.7907366,31.8476562 C34.7907366,41.1419271 31.5722656,77.3216146 25.1353237,140.386719 C24.479708,147.240885 20.6697192,148.357422 13.7053571,143.736328 C6.74099511,139.115234 2.22323097,136.246094 0.152064732,135.128906 L0.152064732,127.5 L17.5342942,137.707031 L29.5200893,20.5390625 L10.4241071,8.24804688 L10.4241071,0.94140625 Z" id="Path-8" stroke="#000000" stroke-width="3"></path>
            </g>
            <g id="Handle" transform="translate(204.745536, 411.839354) rotate(-95.000000) translate(-204.745536, -411.839354) translate(187.245536, 338.339354)">
                <path d="M10.4241071,0.94140625 C23.1259301,5.64322917 30.515253,10.110026 32.5920759,14.3417969 C35.7073103,20.6894531 34.7907366,17.90625 34.7907366,31.8476562 C34.7907366,41.1419271 31.5722656,77.3216146 25.1353237,140.386719 C24.479708,147.240885 20.6697192,148.357422 13.7053571,143.736328 C6.74099511,139.115234 2.22323097,136.246094 0.152064732,135.128906 L0.152064732,127.5 L17.5342942,137.707031 L29.5200893,20.5390625 L10.4241071,8.24804688 L10.4241071,0.94140625 Z" id="Path-8" fill="#AB6B00"></path>
                <path d="M13.0814141,4.11298773 C24.8972146,8.38929177 31.2154212,12.1278516 32.036034,15.3286673 C32.8566467,18.5294829 33.23095,28.4725311 33.158944,45.1578117 L26.250203,118.715132 C25.4585631,115.927691 25.0627432,113.070757 25.0627432,110.144331 C25.0627432,105.754692 34.0613624,21.298433 30.7782724,16.6627381 C28.5895458,13.5722749 22.690593,10.0985607 13.0814141,6.24159576 L13.0814141,4.11298773 Z" id="Path-9" fill="#F7C46E"></path>
                <path d="M10.4241071,0.94140625 C23.1259301,5.64322917 30.515253,10.110026 32.5920759,14.3417969 C35.7073103,20.6894531 34.7907366,17.90625 34.7907366,31.8476562 C34.7907366,41.1419271 31.5722656,77.3216146 25.1353237,140.386719 C24.479708,147.240885 20.6697192,148.357422 13.7053571,143.736328 C6.74099511,139.115234 2.22323097,136.246094 0.152064732,135.128906 L0.152064732,127.5 L17.5342942,137.707031 L29.5200893,20.5390625 L10.4241071,8.24804688 L10.4241071,0.94140625 Z" id="Path-8" stroke="#000000" stroke-width="3"></path>
            </g>
            <path d="M251.492727,24.9858041 C281.197935,30.0174197 283.9764,34.8697418 293.092341,46.9286616 C302.370214,59.0185784 324.766664,129.481786 336.230343,145.937966 C347.911861,162.435845 346.413175,185.587098 302.981055,184.841021 C259.548935,184.094943 166.602033,182.4983 135.580875,181.965419 C104.559716,181.432537 76.2432986,171.856053 79.3244989,143.495884 C82.0988925,115.076986 72.4286112,57.5325446 79.9650156,42.5962369 C87.171367,27.5967499 91.383981,20.6979208 119.567033,20.1064545 C147.750084,19.5149882 222.18992,20.0312165 251.492727,24.9858041 Z" id="Path-16" fill="#000000"></path>
            <rect id="Rectangle-2" fill="#F5A623" x="59" y="133" width="278" height="11"></rect>
            <rect id="Rectangle-2-Copy" fill="#F5A623" x="59" y="102" width="278" height="11"></rect>
            <polygon id="Rectangle-2-Copy-2" fill="#F5A623" points="29.7376704 67.6740061 322 71 322 82 29.7376704 78.6740061"></polygon>
            <polygon id="Rectangle-2-Copy-3" fill="#F5A623" points="34.9535867 35.3651512 306 46.6787086 306 57.6787086 34.9535867 46.3651512"></polygon>
        </g>
        <g id="SawArm" transform="translate(149.000000, 295.000000)">
            <polygon id="Star" fill="#6E6E6E" fill-rule="nonzero" points="113.5 568.006641 95.7446882 590.528757 85.468658 563.332213 61.9720783 578.97528 60.1812191 549.766495 33.2433803 556.99926 40.112994 528.637395 12.3707595 526.751865 27.2284003 502.013175 1.39737334 491.193919 22.7886719 472.5 1.39737334 453.806081 27.2284003 442.986825 12.3707595 418.248135 40.112994 416.362605 33.2433803 388.00074 60.1812191 395.233505 61.9720783 366.02472 85.468658 381.667787 95.7446882 354.471243 113.5 376.993359 131.255312 354.471243 141.531342 381.667787 165.027922 366.02472 166.818781 395.233505 193.75662 388.00074 186.887006 416.362605 214.62924 418.248135 199.7716 442.986825 225.602627 453.806081 204.211328 472.5 225.602627 491.193919 199.7716 502.013175 214.62924 526.751865 186.887006 528.637395 193.75662 556.99926 166.818781 549.766495 165.027922 578.97528 141.531342 563.332213 131.255312 590.528757"></polygon>
            <polygon id="Star" stroke="#000000" stroke-width="3" fill-rule="nonzero" points="113.5 568.006641 95.7446882 590.528757 85.468658 563.332213 61.9720783 578.97528 60.1812191 549.766495 33.2433803 556.99926 40.112994 528.637395 12.3707595 526.751865 27.2284003 502.013175 1.39737334 491.193919 22.7886719 472.5 1.39737334 453.806081 27.2284003 442.986825 12.3707595 418.248135 40.112994 416.362605 33.2433803 388.00074 60.1812191 395.233505 61.9720783 366.02472 85.468658 381.667787 95.7446882 354.471243 113.5 376.993359 131.255312 354.471243 141.531342 381.667787 165.027922 366.02472 166.818781 395.233505 193.75662 388.00074 186.887006 416.362605 214.62924 418.248135 199.7716 442.986825 225.602627 453.806081 204.211328 472.5 225.602627 491.193919 199.7716 502.013175 214.62924 526.751865 186.887006 528.637395 193.75662 556.99926 166.818781 549.766495 165.027922 578.97528 141.531342 563.332213 131.255312 590.528757"></polygon>
            <g id="contRoundHand" transform="translate(69.000000, 435.000000)" fill-rule="nonzero">
                <ellipse id="Oval" fill="#AB6B00" cx="44" cy="45" rx="44" ry="45"></ellipse>
                <ellipse id="Oval" stroke="#000000" stroke-width="3" cx="44" cy="45" rx="44" ry="45"></ellipse>
                <ellipse id="Oval-Copy" fill="#F5A623" cx="52" cy="46.5" rx="32" ry="36.5"></ellipse>
            </g>
            <g id="ConstArmUpper" transform="translate(116.632326, 329.599377) scale(-1, 1) rotate(11.000000) translate(-116.632326, -329.599377) translate(57.003163, 204.688775)">
                <path d="M20.3694627,62.6052934 C19.5726542,59.2231012 19.1494253,55.6821481 19.1494253,52.0355143 C19.1494253,28.2106587 37.2149929,8.89679715 59.5,8.89679715 C81.7850071,8.89679715 99.8505747,28.2106587 99.8505747,52.0355143 C99.8505747,55.6821481 99.4273458,59.2231012 98.6305373,62.6052934 L99.0457468,62.6052934 L79.5351591,230.609987 C70.4255604,234.707682 61.0890857,237.843198 51.525735,240.016535 C41.9623843,242.189871 33.8474342,241.103203 27.1808848,236.75653 L19.9396328,62.6052934 L20.3694627,62.6052934 Z" id="SteelArm" fill="#AB6B00" fill-rule="nonzero" transform="translate(59.500000, 125.000000) rotate(-13.000000) translate(-59.500000, -125.000000) "></path>
                <g id="Path-13" stroke-width="1" fill-rule="evenodd" transform="translate(59.500000, 125.000000) rotate(-13.000000) translate(-59.500000, -125.000000) translate(19.149425, 8.896797)">
                    <mask id="mask-8" fill="white">
                        <use xlink:href="#path-7"></use>
                    </mask>
                    <g id="Mask" fill-rule="nonzero"></g>
                    <path d="M23.5191295,247.572752 C18.9891212,215.450866 12.4758258,129.612833 12.4758258,105.725354 C12.4758258,81.8378751 11.2227489,23.8408952 20.2219145,11.1740583 C29.2210801,-1.49277858 49.2167103,4.10190146 64.3545619,11.1740583 C74.446463,15.8888295 82.2443876,45.4608243 87.7483358,99.8900427 L69.5832281,242.071918 C41.8938345,267.153731 26.5391349,268.987342 23.5191295,247.572752 Z" fill="#F5A623" fill-rule="nonzero" mask="url(#mask-8)"></path>
                </g>
                <path d="M20.3694627,62.6052934 C19.5726542,59.2231012 19.1494253,55.6821481 19.1494253,52.0355143 C19.1494253,28.2106587 37.2149929,8.89679715 59.5,8.89679715 C81.7850071,8.89679715 99.8505747,28.2106587 99.8505747,52.0355143 C99.8505747,55.6821481 99.4273458,59.2231012 98.6305373,62.6052934 L99.0457468,62.6052934 L79.5351591,230.609987 C70.4255604,234.707682 61.0890857,237.843198 51.525735,240.016535 C41.9623843,242.189871 33.8474342,241.103203 27.1808848,236.75653 L19.9396328,62.6052934 L20.3694627,62.6052934 Z" id="Border" stroke="#000000" stroke-width="3" fill-rule="nonzero" transform="translate(59.500000, 125.000000) rotate(-13.000000) translate(-59.500000, -125.000000) "></path>
                <path d="M71.1779498,45.2696885 C75.8440045,42.1908822 73.6502774,24.9291647 68.5793928,21.7593369 C63.22732,18.4137374 57.1838308,16.4162444 51.2459136,16.4146093 C46.9929346,16.4134381 40.0539371,38.6711548 44.8182601,40.8543512 C57.4480696,46.6418166 62.3484462,46.4703963 74.8064639,42.3759714" id="Path-14" fill="#F7C46E" fill-rule="nonzero" transform="translate(59.008886, 30.876428) rotate(-13.000000) translate(-59.008886, -30.876428) "></path>
            </g>
            <g id="ConstArmUpper" transform="translate(133.000000, 140.500000) scale(-1, 1) translate(-133.000000, -140.500000) translate(46.000000, 0.000000)">
                <path d="M29.7839203,70.3683497 C28.618839,66.5667657 28,62.5867345 28,58.4879181 C28,31.7087804 54.4151998,10 87,10 C119.5848,10 146,31.7087804 146,58.4879181 C146,62.5867345 145.381161,66.5667657 144.21608,70.3683497 L144.823193,70.3683497 L116.295107,259.205626 C102.975189,263.811435 89.3235371,267.335755 75.3401504,269.778585 C61.3567636,272.221415 49.4912064,271 39.7434786,266.11434 L29.1554295,70.3683497 L29.7839203,70.3683497 Z" id="SteelArm" fill="#AB6B00" fill-rule="nonzero" transform="translate(87.000000, 140.500000) rotate(-13.000000) translate(-87.000000, -140.500000) "></path>
                <g id="Path-13" stroke-width="1" fill-rule="evenodd" transform="translate(87.000000, 140.500000) rotate(-13.000000) translate(-87.000000, -140.500000) translate(28.000000, 10.000000)">
                    <mask id="mask-10" fill="white">
                        <use xlink:href="#path-9"></use>
                    </mask>
                    <g id="Mask" fill-rule="nonzero"></g>
                    <path d="M34.3893153,278.271773 C27.7656058,242.166773 18.2419638,145.684824 18.2419638,118.835298 C18.2419638,91.9857716 16.4097337,26.7971662 29.5681775,12.5596415 C42.7266214,-1.67788313 71.9639293,4.61053724 94.098267,12.5596415 C108.854492,17.8590444 120.2565,51.0979665 128.304289,112.276408 L101.743544,272.088836 C61.2565311,300.280793 38.8051217,302.341772 34.3893153,278.271773 Z" fill="#F5A623" fill-rule="nonzero" mask="url(#mask-10)"></path>
                </g>
                <path d="M29.7839203,70.3683497 C28.618839,66.5667657 28,62.5867345 28,58.4879181 C28,31.7087804 54.4151998,10 87,10 C119.5848,10 146,31.7087804 146,58.4879181 C146,62.5867345 145.381161,66.5667657 144.21608,70.3683497 L144.823193,70.3683497 L116.295107,259.205626 C102.975189,263.811435 89.3235371,267.335755 75.3401504,269.778585 C61.3567636,272.221415 49.4912064,271 39.7434786,266.11434 L29.1554295,70.3683497 L29.7839203,70.3683497 Z" id="Border" stroke="#000000" stroke-width="3" fill-rule="nonzero" transform="translate(87.000000, 140.500000) rotate(-13.000000) translate(-87.000000, -140.500000) "></path>
                <path d="M104.075322,50.8831298 C110.897956,47.4225516 107.690322,28.0203812 100.275751,24.4574947 C92.4500309,20.6970408 83.6133325,18.4518588 74.9309997,18.4500208 C68.7123582,18.4487044 58.5662609,43.466378 65.532582,45.9202908 C83.9996985,52.4254019 91.164955,52.2327254 109.38088,47.6305919" id="Path-14" fill="#F7C46E" fill-rule="nonzero" transform="translate(86.281901, 34.705105) rotate(-13.000000) translate(-86.281901, -34.705105) "></path>
            </g>
        </g>
    </g>
</svg>