<?xml version="1.0" encoding="UTF-8"?>
<svg width="955px" height="1393px" viewBox="0 0 955 1393" version="1.1" xmlns="http://www.w3.org/2000/svg" xmlns:xlink="http://www.w3.org/1999/xlink">
    <!-- Generator: Sketch 51.3 (57544) - http://www.bohemiancoding.com/sketch -->
    <title>SkeletonBot</title>
    <desc>Created with Sketch.</desc>
    <defs></defs>
    <g id="SkeletonBot" stroke="none" stroke-width="1" fill="none" fill-rule="evenodd">
        <g id="skeleton" transform="translate(19.000000, 25.000000)">
            <path d="M359.367019,236.928648 C336.337611,235.952432 313.328882,234.007728 290.278793,234.000001 C286.563474,233.998755 282.959165,235.50309 279.51722,236.901878 C268.635306,241.324227 258.289884,246.996634 247.409184,251.42197 C231.004954,258.093804 213.409208,261.997152 197.702497,270.177089 C188.514177,274.962297 181.956147,283.669724 173.636194,289.842391 C153.481331,304.795509 132.274207,318.310359 112.316645,333.52581 C100.7373,342.353789 88.1326361,350.478314 79.1110356,361.90745 C59.3774219,386.907246 58.8808869,441.249676 53.2779069,467.981222 C51.0404925,478.655817 46.2691942,488.686496 43.9565645,499.345049 C36.762794,532.500026 40.8000644,623.421565 40.5835342,635.695782 C39.9552992,671.307882 23.5406062,741.866678 50.1297453,774.814542 C82.8933581,815.41349 114.950829,847.677707 163.387576,868.547898 C179.826486,875.631017 224.695334,869.391835 240.876254,862.690605 C261.326289,854.221345 280.778067,843.516981 300.814466,834.110865 C306.543227,831.421491 312.242033,828.630886 318.166833,826.406436 C320.262306,825.619696 322.806705,826.218681 324.757627,825.121472 C373.751664,797.566962 402.032286,763.728254 425.723667,714.02028 C452.393449,658.063185 437.289675,591.826063 434.11341,532.931386 C430.581747,467.446864 434.940724,479.617373 425.809331,424.75884 C420.316236,391.758058 418.490118,399.888737 406.743679,360.826532 C367.038967,228.790464 407.125367,348.831134 376.273972,258.414908 L359.367019,236.928648 Z" id="SkeletonLeftArmSelector" stroke="#B4E5DA" stroke-width="6" fill="#FFFFFF" fill-rule="nonzero" stroke-dasharray="20,12"></path>
            <path d="M559.687135,249.715776 C574.564161,249.267601 589.451397,247.782871 604.318215,248.37125 C626.311521,249.241671 674.140945,264.99911 690.533939,271.51711 C704.570981,277.098363 721.393764,298.590982 726.94125,303.570924 C783.210457,354.083421 781.555925,343.082052 805.409713,374.69009 C808.359598,378.598906 812.369165,382.258747 813.922599,386.535259 C818.040096,397.870486 817.499136,409.907889 822.274865,421.118857 C834.238235,449.202729 850.90744,476.232539 863.99336,504.075784 C872.066846,521.253948 873.661439,583.565603 874.016078,590.503295 C876.64077,641.849299 866.925266,682.753952 830.364783,728.937691 C825.589118,734.970381 818.759595,740.129073 813.681668,746.042441 C795.395485,767.337146 786.096205,787.447281 756.345508,802.290328 C716.892464,821.974013 667.142175,820.997092 620.904957,821.754481 C543.563066,823.021382 457.891259,820.952577 403.071449,776.596163 C383.151759,760.478521 373.864733,738.548061 362.702166,719.755648 C351.851749,701.488744 347.307596,681.589961 343.261733,662.229906 C336.593698,630.32236 329.827265,598.376532 326.198483,566.235143 C324.129656,547.910814 325.151017,529.460579 326.198483,511.094732 C329.225542,458.019491 336.902557,411.837737 370.2781,364.296861 C384.392365,344.192184 392.698851,340.998492 410.401098,322.47208 C419.256757,313.204127 426.35991,303.154268 435.55962,294.048119 C447.189178,282.536834 457.357915,278.610517 472.491625,270.783732 C499.416157,256.859022 509.206635,249.899729 534.496488,234 L559.687135,249.715776 Z" id="SkeletonRightArmSelector" stroke="#B4E5DA" stroke-width="6" fill="#FFFFFF" fill-rule="nonzero" stroke-dasharray="20,12"></path>
            <path d="M456.799702,1141.79078 C499.680681,1151.47905 541.404719,1158.91282 585.665521,1156.45008 C613.654066,1154.89276 621.647263,1142.50935 641.636407,1121.62221 C663.027907,1099.2697 681.167664,1085.60201 693.211646,1059.87969 C704.818961,1035.08995 700.169238,989.013205 699.358057,965.070768 C696.724036,887.326184 670.474069,821.818378 619.374407,762.142842 C599.004707,738.354567 554.996064,715.779407 523.933713,717.051317 C516.259567,717.36555 508.766593,719.609513 501.109541,720.210186 C490.229184,721.063718 482.447334,716.039991 475.870708,726.576112 C470.053895,735.894971 474.229061,737.987954 472.727901,747.397881 C467.755893,778.564598 470.197947,809.983168 464.927099,841.580382 C459.82506,872.16563 447.141376,901.083388 446.316538,932.063258 C444.486336,1000.80335 441,1069.38326 441,1137.99479 L456.799702,1141.79078 Z" id="SkeletonRightLegSelector" stroke="#B4E5DA" stroke-width="6" fill="#FFFFFF" fill-rule="nonzero" stroke-dasharray="20,12"></path>
            <path d="M229.799702,1141.79078 C272.680681,1151.47905 314.404719,1158.91282 358.665521,1156.45008 C386.654066,1154.89276 394.647263,1142.50935 414.636407,1121.62221 C436.027907,1099.2697 454.167664,1085.60201 466.211646,1059.87969 C477.818961,1035.08995 473.169238,989.013205 472.358057,965.070768 C469.724036,887.326184 443.474069,821.818378 392.374407,762.142842 C372.004707,738.354567 327.996064,715.779407 296.933713,717.051317 C289.259567,717.36555 281.766593,719.609513 274.109541,720.210186 C263.229184,721.063718 255.447334,716.039991 248.870708,726.576112 C243.053895,735.894971 247.229061,737.987954 245.727901,747.397881 C240.755893,778.564598 243.197947,809.983168 237.927099,841.580382 C232.82506,872.16563 220.141376,901.083388 219.316538,932.063258 C217.486336,1000.80335 214,1069.38326 214,1137.99479 L229.799702,1141.79078 Z" id="SkeletonLeftLegSelector" stroke="#B4E5DA" stroke-width="6" fill="#FFFFFF" fill-rule="nonzero" stroke-dasharray="20,12" transform="translate(343.979646, 936.962807) scale(-1, 1) translate(-343.979646, -936.962807) "></path>
            <path d="M603.678166,810.272918 C631.727624,808.794756 649.297201,752.548088 655.842347,741.125797 C689.111147,683.066595 680.64168,621.337562 672.7771,556.760245 C663.060488,476.975589 647.942737,396.855924 614.000709,323.432215 C600.673572,294.602828 580.060452,251.720754 550.855441,234.282489 C493.626864,200.111398 422.454523,201.276966 358.662317,204.53022 C322.156231,206.391946 341.136376,208.318207 317.639844,223.751139 C283.833359,245.955829 271.339948,244.903175 249.654545,268.655274 C223.87388,296.892928 218.262834,349.108882 215.554815,383.386489 C210.754162,444.152276 218.092766,502.240048 223.708982,562.435503 C225.436978,580.956421 231.665358,645.815485 237.934604,670.49026 C249.000836,714.04523 273.892308,755.051775 297.508743,792.294131 C306.222059,806.034749 327.502025,837.17478 342.445002,841.138822 C419.880086,861.680641 499.422955,841.53033 575.585642,828.037544 L603.678166,810.272918 Z" id="SkeletonTorsoSelector" stroke="#B4E5DA" stroke-width="6" fill="#FFFFFF" fill-rule="nonzero" stroke-dasharray="20,12"></path>
            <path d="M523.81341,288.573223 C534.391114,289.198786 569.981216,256.744408 573.383722,254.354473 C587.796152,244.231119 618.547711,209.913066 618.547711,159.083294 C618.547711,110.255185 578.065993,59.0649154 562.330539,40.5774971 C546.595086,22.0900788 494.339597,1.48171401 453.638654,0.395604663 C423.248431,-0.415361958 407.887287,2.68787305 378.31341,7.81541023 C310.279514,19.6111692 290.266201,42.7919727 257.872003,88.0087276 C234.623901,120.459099 239.31088,172.458358 257.872003,209.913066 C262.867194,219.99292 270.008528,228.972347 277.485285,237.37791 C286.040569,246.995984 308.337323,269.198612 323.711847,277.616191 C369.173694,302.506632 455.435976,297.847998 504.911066,293.866191 L523.81341,288.573223 Z" id="SkeletonHeadSelector" stroke="#B4E5DA" stroke-width="6" fill="#FFFFFF" fill-rule="nonzero" stroke-dasharray="20,12"></path>
            <g id="Group-3" stroke-width="1" fill-rule="evenodd" transform="translate(325.000000, 600.000000)">
                <path d="M228.240498,71.8643857 C235.510712,60.6511999 185.800961,16.1273566 168.977358,11.0064644 C152.153755,5.88557228 63.2705183,-5.64503997 28.9540394,4.15693655 C-5.36243942,13.9589131 1.07405159,21.1025146 1.07405159,30.4727385 C1.07405159,39.8429624 27.6652114,59.0067013 43.5786037,71.8643857 C59.4919959,84.7220701 74.7514131,90.0686027 103.174468,90.0686027 C131.597523,90.0686027 140.424273,90.0686027 176.021931,90.0686027 C211.619589,90.0686027 220.970285,83.0775715 228.240498,71.8643857 Z" id="Path-6" stroke="#000000" stroke-width="3" fill="#6E6E6E" fill-rule="nonzero"></path>
                <path d="M201.703655,35.8560953 C192.270094,27.2289875 182.340888,18.3791237 171.135632,13.6668514 C161.47094,9.60244993 150.869224,9.30254708 138.672435,6.7637701 C128.178621,4.57946949 69.3075648,1.59797118 57.1508953,3.10786898 C56.6308122,3.17246499 54.2296162,3.10786898 40.2556629,3.10786898 C31.7240667,3.10786898 16.3017383,11.3750002 29.0593788,17.4054816 C51.8547325,28.1807465 62.5029882,37.4748453 66.4272271,49.7826323 C68.2270078,55.4273748 81.6512966,60.4488667 90.3320233,63.411324 C95.4767635,65.167061 101.232301,64.060852 106.639988,63.5059752 C119.128889,62.2245028 113.574819,62.6391002 135.437086,61.3828682 C157.299353,60.1266362 182.574107,60.1266362 191.791097,61.3828682 C204.192643,63.0731401 223.455448,74.6788386 223.929469,61.3828682 C216.025561,50.6873196 208.616957,42.1783953 201.703655,35.8560953 Z" id="Path-7" fill="#9B9B9B" fill-rule="nonzero"></path>
            </g>
            <g id="Group-2" stroke-width="1" fill-rule="evenodd" transform="translate(454.645442, 190.634932) rotate(17.000000) translate(-454.645442, -190.634932) translate(391.645442, 109.634932)">
                <path d="M115.671071,147.344073 C129.881826,127.306628 127.696036,93.5018317 115.671071,51.9281145 C103.646106,10.3543973 90.7249673,0 73.1949352,0 C55.664903,0 9.99751427,19.678351 3.05919374,31.8688116 C-3.87912679,44.0592721 1.64155309,74.9913168 13.0139038,98.963183 C24.3862546,122.935049 74.3908743,160.31205 84.3330942,160.31205 C94.275314,160.31205 101.460317,167.381518 115.671071,147.344073 Z" id="Path-3" stroke="#000000" stroke-width="3" fill="#6E6E6E" fill-rule="nonzero"></path>
                <path d="M19.5676986,25.9401254 C23.2896404,18.8710825 33.8796306,13.7496754 43.758407,9.52375897 C59.6141711,2.74102284 78.7759498,0.874534501 86.748534,5.69796778 C92.433937,9.13765078 101.697158,18.282364 108.464901,35.0954247 C117.100358,56.5484357 122.794579,86.9600992 123.922057,95.8553328 C125.933156,111.7219 121.83624,129.961462 117.518997,134.920082 C113.201754,139.878702 105.832307,144.656601 99.9672832,144.656601 C94.1022594,144.656601 82.8525511,152.519198 48.8385432,107.685532 C14.8245353,62.8518657 7.18640358,49.4557825 19.5676986,25.9401254 Z" id="Path-4" fill="#9B9B9B" fill-rule="nonzero"></path>
                <ellipse id="Oval" fill="#000000" fill-rule="nonzero" cx="48" cy="44.5" rx="7" ry="7.5"></ellipse>
                <ellipse id="Oval-Copy-2" fill="#C5C5C5" fill-rule="nonzero" transform="translate(50.500000, 44.000000) rotate(-19.000000) translate(-50.500000, -44.000000) " cx="50.5" cy="44" rx="1.5" ry="3"></ellipse>
                <ellipse id="Oval-Copy" fill="#000000" fill-rule="nonzero" transform="translate(93.417087, 31.018448) rotate(-26.000000) translate(-93.417087, -31.018448) " cx="93.4170872" cy="31.0184479" rx="5.00392404" ry="6.5"></ellipse>
                <ellipse id="Oval-Copy" fill="#C5C5C5" fill-rule="nonzero" transform="translate(95.331580, 30.341781) rotate(-26.000000) translate(-95.331580, -30.341781) " cx="95.33158" cy="30.3417805" rx="1" ry="2.33013726"></ellipse>
                <path d="M115.23214,109.497756 L115.23214,106.237757 C111.563112,109.726082 107.509149,112.155787 103.07025,113.526873 C95.328387,115.918177 85.8755389,117.228463 74.7117054,117.457732 L77.4815466,121.263229 C89.1818646,121.07553 98.4348097,119.807031 105.240382,117.457732 C110.230802,115.735028 113.561388,113.081703 115.23214,109.497756 Z" id="Path-5" stroke="#000000" fill="#6E6E6E" fill-rule="nonzero"></path>
            </g>
            <g id="Group" stroke-width="1" fill-rule="evenodd" transform="translate(464.111821, 456.529321) rotate(13.000000) translate(-464.111821, -456.529321) translate(418.111821, 268.529321)">
                <path d="M0.7421875,13.6914062 C27.265625,58.3710938 62.6875,172.664062 62.6875,242.835938 C62.6875,289.617188 57.6666667,331.05599 47.625,367.152344 C52.9284336,370.729377 57.9492669,373.090054 62.6875,374.234375 C67.4257331,375.378696 72.1796394,375.378696 76.9492188,374.234375 C86.3242187,319.217448 91.0117187,275.417969 91.0117187,242.835938 C91.0117188,193.962891 54.3164063,53.5820312 21.6367188,0.8515625 C12.5273438,0.8515625 7.85546875,0.8515625 0.7421875,13.6914062 Z" id="Path" stroke="#000000" stroke-width="3" fill="#6E6E6E" fill-rule="nonzero"></path>
                <path d="M21.0002825,3.56231406 C17.1374992,1.69514097 14.305666,1.69514097 12.5047831,3.56231406 C10.7039002,5.42948715 9.19579882,7.6101575 7.98047906,10.1043251 C29.8410433,55.0462975 43.953944,88.1485695 50.3191813,109.411141 C59.8670371,141.304999 78.4821452,208.608164 78.4821452,233.912364 C78.4821452,250.781831 78.4821452,273.172026 78.4821452,301.08295 C83.7259737,274.548928 86.347888,251.182335 86.347888,230.983168 C86.347888,200.684417 63.4736366,112.207758 50.3191813,75.6425148 C41.5495443,51.2656863 31.7765781,27.2389527 21.0002825,3.56231406 Z" id="Path-2" fill="#9B9B9B" fill-rule="nonzero"></path>
            </g>
        </g>
    </g>
</svg>