<?xml version="1.0" encoding="UTF-8"?>
<svg width="955px" height="1393px" viewBox="0 0 955 1393" version="1.1" xmlns="http://www.w3.org/2000/svg" xmlns:xlink="http://www.w3.org/1999/xlink">
    <!-- Generator: Sketch 51.3 (57544) - http://www.bohemiancoding.com/sketch -->
    <title>SkeletonBot</title>
    <desc>Created with Sketch.</desc>
    <defs></defs>
    <g id="SkeletonBot" stroke="none" stroke-width="1" fill="none" fill-rule="evenodd">
        <g id="skeleton" transform="translate(19.000000, 25.000000)">
            <path d="M810.920277,804.137256 C864.308481,702.211855 900.323638,682.722483 900.323638,576.466263 C900.323638,502.840553 879.012513,392.395279 828.421856,298.727715 C822.85088,288.413168 780.446536,225.859441 748.4374,200.608007 C672.990937,141.089643 563.495147,102.254425 470.341967,102.254425 C376.65017,102.254425 250.440527,133.643533 168.942389,172.321903 C64.2493055,222.008411 38.418063,297.993562 12.0619207,403.232968 C-8.4325626,485.066918 -0.137570612,568.815523 10.040243,651.02526 C18.9093228,722.663899 27.2573623,842.929563 79.8084203,896.340573 C137.224031,954.695739 199.415461,981.876851 276.422662,982.904075 C320.383176,983.490478 494.902938,990.517764 538.192361,982.904075 C681.463542,957.705721 726.781138,964.770409 810.920277,804.137256 Z" id="Path-8" stroke="#B4E5DA" stroke-width="6" fill="#FFFFFF" fill-rule="nonzero" stroke-dasharray="20,12" transform="translate(449.877848, 544.338242) rotate(91.000000) translate(-449.877848, -544.338242) "></path>
            <path d="M602.646282,809.842561 C630.695741,808.364399 648.265318,752.117731 654.810463,740.69544 C688.079263,682.636238 679.609796,620.907205 671.745217,556.329888 C662.028604,476.545232 646.910853,396.425567 612.968826,323.001857 C599.641689,294.172471 579.028568,251.290397 549.823557,233.852132 C492.59498,199.681041 421.422639,200.846609 357.630434,204.099863 C321.124347,205.961589 340.104493,207.887849 316.607961,223.320782 C282.801475,245.525472 270.308064,244.472818 248.622662,268.224917 C222.841996,296.462571 217.230951,348.678525 214.522932,382.956132 C209.722279,443.721919 217.060882,501.809691 222.677099,562.005146 C224.405094,580.526063 230.633475,645.385127 236.90272,670.059903 C247.968952,713.614873 272.860424,754.621417 296.47686,791.863774 C305.190176,805.604392 326.470142,836.744423 341.413118,840.708465 C418.848202,861.250284 498.391072,841.099973 574.553759,827.607187 L602.646282,809.842561 Z" id="Path-9" stroke="#B4E5DA" stroke-width="6" fill="#FFFFFF" fill-rule="nonzero" stroke-dasharray="20,12"></path>
            <path d="M610.965402,1031.94925 C636.358254,965.940619 653.488021,953.318969 653.488021,884.505626 C653.488021,836.82436 643.351883,765.298114 619.289619,704.6374 C616.639915,697.957523 596.47128,657.446661 581.246882,641.093401 C545.362536,602.548293 493.283423,577.397942 448.97729,577.397942 C404.414977,577.397942 344.386311,597.726064 305.623627,622.774838 C255.828809,654.952669 243.542782,704.16195 231.007099,772.316786 C221.259377,825.31385 225.204696,879.550877 230.045535,932.791306 C234.263906,979.185712 238.234456,1057.07181 263.229138,1091.66169 C290.537531,1129.45349 320.117431,1147.05645 356.744106,1147.72169 C377.652897,1148.10146 460.659142,1152.65245 481.248745,1147.72169 C549.392333,1131.40281 570.946588,1135.97802 610.965402,1031.94925 Z" id="Path-8" stroke="#B4E5DA" stroke-width="6" fill="#FFFFFF" fill-rule="nonzero" stroke-dasharray="20,12"></path>
            <path d="M523.81341,288.573223 C534.391114,289.198786 569.981216,256.744408 573.383722,254.354473 C587.796152,244.231119 618.547711,209.913066 618.547711,159.083294 C618.547711,110.255185 578.065993,59.0649154 562.330539,40.5774971 C546.595086,22.0900788 494.339597,1.48171401 453.638654,0.395604663 C423.248431,-0.415361958 407.887287,2.68787305 378.31341,7.81541023 C310.279514,19.6111692 290.266201,42.7919727 257.872003,88.0087276 C234.623901,120.459099 239.31088,172.458358 257.872003,209.913066 C262.867194,219.99292 270.008528,228.972347 277.485285,237.37791 C286.040569,246.995984 308.337323,269.198612 323.711847,277.616191 C369.173694,302.506632 455.435976,297.847998 504.911066,293.866191 L523.81341,288.573223 Z" id="headSelector" stroke="#B4E5DA" stroke-width="6" fill="#FFFFFF" fill-rule="nonzero" stroke-dasharray="20,12"></path>
            <g id="Group-3" stroke-width="1" fill-rule="evenodd" transform="translate(325.000000, 600.000000)">
                <path d="M228.240498,71.8643857 C235.510712,60.6511999 185.800961,16.1273566 168.977358,11.0064644 C152.153755,5.88557228 63.2705183,-5.64503997 28.9540394,4.15693655 C-5.36243942,13.9589131 1.07405159,21.1025146 1.07405159,30.4727385 C1.07405159,39.8429624 27.6652114,59.0067013 43.5786037,71.8643857 C59.4919959,84.7220701 74.7514131,90.0686027 103.174468,90.0686027 C131.597523,90.0686027 140.424273,90.0686027 176.021931,90.0686027 C211.619589,90.0686027 220.970285,83.0775715 228.240498,71.8643857 Z" id="Path-6" stroke="#000000" stroke-width="3" fill="#6E6E6E" fill-rule="nonzero"></path>
                <path d="M201.703655,35.8560953 C192.270094,27.2289875 182.340888,18.3791237 171.135632,13.6668514 C161.47094,9.60244993 150.869224,9.30254708 138.672435,6.7637701 C128.178621,4.57946949 69.3075648,1.59797118 57.1508953,3.10786898 C56.6308122,3.17246499 54.2296162,3.10786898 40.2556629,3.10786898 C31.7240667,3.10786898 16.3017383,11.3750002 29.0593788,17.4054816 C51.8547325,28.1807465 62.5029882,37.4748453 66.4272271,49.7826323 C68.2270078,55.4273748 81.6512966,60.4488667 90.3320233,63.411324 C95.4767635,65.167061 101.232301,64.060852 106.639988,63.5059752 C119.128889,62.2245028 113.574819,62.6391002 135.437086,61.3828682 C157.299353,60.1266362 182.574107,60.1266362 191.791097,61.3828682 C204.192643,63.0731401 223.455448,74.6788386 223.929469,61.3828682 C216.025561,50.6873196 208.616957,42.1783953 201.703655,35.8560953 Z" id="Path-7" fill="#9B9B9B" fill-rule="nonzero"></path>
            </g>
            <g id="Group-2" stroke-width="1" fill-rule="evenodd" transform="translate(454.645442, 190.634932) rotate(17.000000) translate(-454.645442, -190.634932) translate(391.645442, 109.634932)">
                <path d="M115.671071,147.344073 C129.881826,127.306628 127.696036,93.5018317 115.671071,51.9281145 C103.646106,10.3543973 90.7249673,0 73.1949352,0 C55.664903,0 9.99751427,19.678351 3.05919374,31.8688116 C-3.87912679,44.0592721 1.64155309,74.9913168 13.0139038,98.963183 C24.3862546,122.935049 74.3908743,160.31205 84.3330942,160.31205 C94.275314,160.31205 101.460317,167.381518 115.671071,147.344073 Z" id="Path-3" stroke="#000000" stroke-width="3" fill="#6E6E6E" fill-rule="nonzero"></path>
                <path d="M19.5676986,25.9401254 C23.2896404,18.8710825 33.8796306,13.7496754 43.758407,9.52375897 C59.6141711,2.74102284 78.7759498,0.874534501 86.748534,5.69796778 C92.433937,9.13765078 101.697158,18.282364 108.464901,35.0954247 C117.100358,56.5484357 122.794579,86.9600992 123.922057,95.8553328 C125.933156,111.7219 121.83624,129.961462 117.518997,134.920082 C113.201754,139.878702 105.832307,144.656601 99.9672832,144.656601 C94.1022594,144.656601 82.8525511,152.519198 48.8385432,107.685532 C14.8245353,62.8518657 7.18640358,49.4557825 19.5676986,25.9401254 Z" id="Path-4" fill="#9B9B9B" fill-rule="nonzero"></path>
                <ellipse id="Oval" fill="#000000" fill-rule="nonzero" cx="48" cy="44.5" rx="7" ry="7.5"></ellipse>
                <ellipse id="Oval-Copy-2" fill="#C5C5C5" fill-rule="nonzero" transform="translate(50.500000, 44.000000) rotate(-19.000000) translate(-50.500000, -44.000000) " cx="50.5" cy="44" rx="1.5" ry="3"></ellipse>
                <ellipse id="Oval-Copy" fill="#000000" fill-rule="nonzero" transform="translate(93.417087, 31.018448) rotate(-26.000000) translate(-93.417087, -31.018448) " cx="93.4170872" cy="31.0184479" rx="5.00392404" ry="6.5"></ellipse>
                <ellipse id="Oval-Copy" fill="#C5C5C5" fill-rule="nonzero" transform="translate(95.331580, 30.341781) rotate(-26.000000) translate(-95.331580, -30.341781) " cx="95.33158" cy="30.3417805" rx="1" ry="2.33013726"></ellipse>
                <path d="M115.23214,109.497756 L115.23214,106.237757 C111.563112,109.726082 107.509149,112.155787 103.07025,113.526873 C95.328387,115.918177 85.8755389,117.228463 74.7117054,117.457732 L77.4815466,121.263229 C89.1818646,121.07553 98.4348097,119.807031 105.240382,117.457732 C110.230802,115.735028 113.561388,113.081703 115.23214,109.497756 Z" id="Path-5" stroke="#000000" fill="#6E6E6E" fill-rule="nonzero"></path>
            </g>
            <g id="Group" stroke-width="1" fill-rule="evenodd" transform="translate(464.111821, 456.529321) rotate(13.000000) translate(-464.111821, -456.529321) translate(418.111821, 268.529321)">
                <path d="M0.7421875,13.6914062 C27.265625,58.3710938 62.6875,172.664062 62.6875,242.835938 C62.6875,289.617188 57.6666667,331.05599 47.625,367.152344 C52.9284336,370.729377 57.9492669,373.090054 62.6875,374.234375 C67.4257331,375.378696 72.1796394,375.378696 76.9492188,374.234375 C86.3242187,319.217448 91.0117187,275.417969 91.0117187,242.835938 C91.0117188,193.962891 54.3164063,53.5820312 21.6367188,0.8515625 C12.5273438,0.8515625 7.85546875,0.8515625 0.7421875,13.6914062 Z" id="Path" stroke="#000000" stroke-width="3" fill="#6E6E6E" fill-rule="nonzero"></path>
                <path d="M21.0002825,3.56231406 C17.1374992,1.69514097 14.305666,1.69514097 12.5047831,3.56231406 C10.7039002,5.42948715 9.19579882,7.6101575 7.98047906,10.1043251 C29.8410433,55.0462975 43.953944,88.1485695 50.3191813,109.411141 C59.8670371,141.304999 78.4821452,208.608164 78.4821452,233.912364 C78.4821452,250.781831 78.4821452,273.172026 78.4821452,301.08295 C83.7259737,274.548928 86.347888,251.182335 86.347888,230.983168 C86.347888,200.684417 63.4736366,112.207758 50.3191813,75.6425148 C41.5495443,51.2656863 31.7765781,27.2389527 21.0002825,3.56231406 Z" id="Path-2" fill="#9B9B9B" fill-rule="nonzero"></path>
            </g>
        </g>
    </g>
</svg>