<?xml version="1.0" encoding="UTF-8"?>
<svg width="955px" height="1393px" viewBox="0 0 955 1393" version="1.1" xmlns="http://www.w3.org/2000/svg" xmlns:xlink="http://www.w3.org/1999/xlink">
    <!-- Generator: Sketch 51.3 (57544) - http://www.bohemiancoding.com/sketch -->
    <title>SkeletonBot</title>
    <desc>Created with Sketch.</desc>
    <defs></defs>
    <g id="SkeletonBot" stroke="none" stroke-width="1" fill="none" fill-rule="evenodd">
        <g id="skeleton" transform="translate(19.000000, 25.000000)">
            <g id="Hip" transform="translate(325.000000, 600.000000)" fill-rule="evenodd" stroke-width="1">
                <g>
                    <path d="M228.240498,71.8643857 C235.510712,60.6511999 185.800961,16.1273566 168.977358,11.0064644 C152.153755,5.88557228 63.2705183,-5.64503997 28.9540394,4.15693655 C-5.36243942,13.9589131 1.07405159,21.1025146 1.07405159,30.4727385 C1.07405159,39.8429624 27.6652114,59.0067013 43.5786037,71.8643857 C59.4919959,84.7220701 74.7514131,90.0686027 103.174468,90.0686027 C131.597523,90.0686027 140.424273,90.0686027 176.021931,90.0686027 C211.619589,90.0686027 220.970285,83.0775715 228.240498,71.8643857 Z" id="Path-6" stroke="#000000" stroke-width="3" fill="#6E6E6E" fill-rule="nonzero"></path>
                    <path d="M201.703655,35.8560953 C192.270094,27.2289875 182.340888,18.3791237 171.135632,13.6668514 C161.47094,9.60244993 150.869224,9.30254708 138.672435,6.7637701 C128.178621,4.57946949 69.3075648,1.59797118 57.1508953,3.10786898 C56.6308122,3.17246499 54.2296162,3.10786898 40.2556629,3.10786898 C31.7240667,3.10786898 16.3017383,11.3750002 29.0593788,17.4054816 C51.8547325,28.1807465 62.5029882,37.4748453 66.4272271,49.7826323 C68.2270078,55.4273748 81.6512966,60.4488667 90.3320233,63.411324 C95.4767635,65.167061 101.232301,64.060852 106.639988,63.5059752 C119.128889,62.2245028 113.574819,62.6391002 135.437086,61.3828682 C157.299353,60.1266362 182.574107,60.1266362 191.791097,61.3828682 C204.192643,63.0731401 223.455448,74.6788386 223.929469,61.3828682 C216.025561,50.6873196 208.616957,42.1783953 201.703655,35.8560953 Z" id="Path-7" fill="#9B9B9B" fill-rule="nonzero"></path>
                </g>
            </g>
            <g id="Skeleton-head" transform="translate(370.000000, 94.000000)" fill-rule="evenodd" stroke-width="1">
                <g id="Group-2" transform="translate(84.645442, 96.634932) rotate(17.000000) translate(-84.645442, -96.634932) translate(21.645442, 15.634932)">
                    <path d="M115.671071,147.344073 C129.881826,127.306628 127.696036,93.5018317 115.671071,51.9281145 C103.646106,10.3543973 90.7249673,0 73.1949352,0 C55.664903,0 9.99751427,19.678351 3.05919374,31.8688116 C-3.87912679,44.0592721 1.64155309,74.9913168 13.0139038,98.963183 C24.3862546,122.935049 74.3908743,160.31205 84.3330942,160.31205 C94.275314,160.31205 101.460317,167.381518 115.671071,147.344073 Z" id="Path-3" stroke="#000000" stroke-width="3" fill="#6E6E6E" fill-rule="nonzero"></path>
                    <path d="M19.5676986,25.9401254 C23.2896404,18.8710825 33.8796306,13.7496754 43.758407,9.52375897 C59.6141711,2.74102284 78.7759498,0.874534501 86.748534,5.69796778 C92.433937,9.13765078 101.697158,18.282364 108.464901,35.0954247 C117.100358,56.5484357 122.794579,86.9600992 123.922057,95.8553328 C125.933156,111.7219 121.83624,129.961462 117.518997,134.920082 C113.201754,139.878702 105.832307,144.656601 99.9672832,144.656601 C94.1022594,144.656601 82.8525511,152.519198 48.8385432,107.685532 C14.8245353,62.8518657 7.18640358,49.4557825 19.5676986,25.9401254 Z" id="Path-4" fill="#9B9B9B" fill-rule="nonzero"></path>
                    <ellipse id="Oval" fill="#000000" fill-rule="nonzero" cx="48" cy="44.5" rx="7" ry="7.5"></ellipse>
                    <ellipse id="Oval-Copy-2" fill="#C5C5C5" fill-rule="nonzero" transform="translate(50.500000, 44.000000) rotate(-19.000000) translate(-50.500000, -44.000000) " cx="50.5" cy="44" rx="1.5" ry="3"></ellipse>
                    <ellipse id="Oval-Copy" fill="#000000" fill-rule="nonzero" transform="translate(93.417087, 31.018448) rotate(-26.000000) translate(-93.417087, -31.018448) " cx="93.4170872" cy="31.0184479" rx="5.00392404" ry="6.5"></ellipse>
                    <ellipse id="Oval-Copy" fill="#C5C5C5" fill-rule="nonzero" transform="translate(95.331580, 30.341781) rotate(-26.000000) translate(-95.331580, -30.341781) " cx="95.33158" cy="30.3417805" rx="1" ry="2.33013726"></ellipse>
                    <path d="M115.23214,109.497756 L115.23214,106.237757 C111.563112,109.726082 107.509149,112.155787 103.07025,113.526873 C95.328387,115.918177 85.8755389,117.228463 74.7117054,117.457732 L77.4815466,121.263229 C89.1818646,121.07553 98.4348097,119.807031 105.240382,117.457732 C110.230802,115.735028 113.561388,113.081703 115.23214,109.497756 Z" id="Path-5" stroke="#000000" fill="#6E6E6E" fill-rule="nonzero"></path>
                </g>
            </g>
            <g id="spine" transform="translate(377.000000, 263.000000)" fill-rule="evenodd" stroke-width="1">
                <g transform="translate(87.111821, 193.529321) rotate(13.000000) translate(-87.111821, -193.529321) translate(41.111821, 5.529321)">
                    <path d="M0.7421875,13.6914062 C27.265625,58.3710938 62.6875,172.664062 62.6875,242.835938 C62.6875,289.617188 57.6666667,331.05599 47.625,367.152344 C52.9284336,370.729377 57.9492669,373.090054 62.6875,374.234375 C67.4257331,375.378696 72.1796394,375.378696 76.9492188,374.234375 C86.3242187,319.217448 91.0117187,275.417969 91.0117187,242.835938 C91.0117188,193.962891 54.3164063,53.5820312 21.6367188,0.8515625 C12.5273438,0.8515625 7.85546875,0.8515625 0.7421875,13.6914062 Z" id="Path" stroke="#000000" stroke-width="3" fill="#6E6E6E" fill-rule="nonzero"></path>
                    <path d="M21.0002825,3.56231406 C17.1374992,1.69514097 14.305666,1.69514097 12.5047831,3.56231406 C10.7039002,5.42948715 9.19579882,7.6101575 7.98047906,10.1043251 C29.8410433,55.0462975 43.953944,88.1485695 50.3191813,109.411141 C59.8670371,141.304999 78.4821452,208.608164 78.4821452,233.912364 C78.4821452,250.781831 78.4821452,273.172026 78.4821452,301.08295 C83.7259737,274.548928 86.347888,251.182335 86.347888,230.983168 C86.347888,200.684417 63.4736366,112.207758 50.3191813,75.6425148 C41.5495443,51.2656863 31.7765781,27.2389527 21.0002825,3.56231406 Z" id="Path-2" fill="#9B9B9B" fill-rule="nonzero"></path>
                </g>
            </g>
            <path d="M455.5,285 C549.66455,285 626,221.200577 626,142.5 C626,63.7994232 549.66455,0 455.5,0 C361.33545,0 285,63.7994232 285,142.5 C285,221.200577 361.33545,285 455.5,285 Z" id="SkeletonHeadSelector" stroke="#B4E5DA" stroke-width="6" fill="#FFFFFF" fill-rule="nonzero" style="mix-blend-mode: multiply;" stroke-dasharray="20,12"></path>
            <path d="M325,285 L584,285 L584,685 L325,685 L325,285 Z" id="SkeletonTorsoSelector" stroke="#B4E5DA" stroke-width="6" fill="#FFFFFF" fill-rule="nonzero" style="mix-blend-mode: multiply;" stroke-dasharray="20,12"></path>
            <path d="M146.867335,263.942699 L228.867335,263.942699 C248.197301,263.942699 263.867335,279.612732 263.867335,298.942699 L263.867335,616.942699 C263.867335,636.272665 248.197301,651.942699 228.867335,651.942699 L146.867335,651.942699 C127.537368,651.942699 111.867335,636.272665 111.867335,616.942699 L111.867335,298.942699 C111.867335,279.612732 127.537368,263.942699 146.867335,263.942699 Z" id="SkeletonLeftArmSelector" stroke="#B4E5DA" stroke-width="6" fill="#FFFFFF" fill-rule="nonzero" style="mix-blend-mode: multiply;" stroke-dasharray="20,12" transform="translate(187.867335, 457.942699) rotate(25.000000) translate(-187.867335, -457.942699) "></path>
            <path d="M298.259955,699.689161 L380.259955,699.689161 C399.589921,699.689161 415.259955,715.359195 415.259955,734.689161 L415.259955,1052.68916 C415.259955,1072.01913 399.589921,1087.68916 380.259955,1087.68916 L298.259955,1087.68916 C278.929989,1087.68916 263.259955,1072.01913 263.259955,1052.68916 L263.259955,734.689161 C263.259955,715.359195 278.929989,699.689161 298.259955,699.689161 Z" id="SkeletonLeftLegSelector" stroke="#B4E5DA" stroke-width="6" fill="#FFFFFF" fill-rule="nonzero" style="mix-blend-mode: multiply;" stroke-dasharray="20,12" transform="translate(339.259955, 893.689161) rotate(8.000000) translate(-339.259955, -893.689161) "></path>
            <path d="M526.259955,699.689161 L608.259955,699.689161 C627.589921,699.689161 643.259955,715.359195 643.259955,734.689161 L643.259955,1052.68916 C643.259955,1072.01913 627.589921,1087.68916 608.259955,1087.68916 L526.259955,1087.68916 C506.929989,1087.68916 491.259955,1072.01913 491.259955,1052.68916 L491.259955,734.689161 C491.259955,715.359195 506.929989,699.689161 526.259955,699.689161 Z" id="SkeletonRightLegSelector" stroke="#B4E5DA" stroke-width="6" fill="#FFFFFF" fill-rule="nonzero" style="mix-blend-mode: multiply;" stroke-dasharray="20,12" transform="translate(567.259955, 893.689161) scale(-1, 1) rotate(8.000000) translate(-567.259955, -893.689161) "></path>
            <path d="M680.867335,263.942699 L762.867335,263.942699 C782.197301,263.942699 797.867335,279.612732 797.867335,298.942699 L797.867335,616.942699 C797.867335,636.272665 782.197301,651.942699 762.867335,651.942699 L680.867335,651.942699 C661.537368,651.942699 645.867335,636.272665 645.867335,616.942699 L645.867335,298.942699 C645.867335,279.612732 661.537368,263.942699 680.867335,263.942699 Z" id="SkeletonRightArmSelector" stroke="#B4E5DA" stroke-width="6" fill="#FFFFFF" fill-rule="nonzero" style="mix-blend-mode: multiply;" stroke-dasharray="20,12" transform="translate(721.867335, 457.942699) scale(-1, 1) rotate(25.000000) translate(-721.867335, -457.942699) "></path>
        </g>
    </g>
</svg>