<?xml version="1.0" encoding="UTF-8"?>
<svg width="139px" height="509px" viewBox="0 0 139 509" version="1.1" xmlns="http://www.w3.org/2000/svg" xmlns:xlink="http://www.w3.org/1999/xlink">
    <!-- Generator: Sketch 51.3 (57544) - http://www.bohemiancoding.com/sketch -->
    <title>ConstLegRight</title>
    <desc>Created with Sketch.</desc>
    <defs></defs>
    <g id="const" stroke="none" stroke-width="1" fill="none" fill-rule="evenodd">
        <g id="ConstBot" transform="translate(-473.000000, -694.000000)">
            <g id="ConstLeg" transform="translate(474.000000, 695.000000)">
                <g id="ConstFoot" transform="translate(2.000000, 406.000000)" fill-rule="evenodd" stroke-width="1">
                    <g id="Group">
                        <path d="M55.9369401,3.31399456 C75.8983447,14.0149537 122.919918,35.3331 128.658298,46.9555509 C132.483885,54.7038515 134.403356,63.7773276 134.416711,74.1759792 C105.366047,88.069986 88.4404661,96.0817434 83.6399678,98.2112513 C76.4392203,101.405513 64.6382987,98.8195086 55.9369401,94.1847331 C47.2355816,89.5499576 9.01552886,63.3712156 4.71219897,58.6690583 C0.40886907,53.9669009 0.525421382,46.8644944 0.525421382,38.108502 C0.525421382,32.2711737 4.38257446,25.5961256 12.0968806,18.0833579 C28.0159839,1.10314289 42.6293371,-3.81997821 55.9369401,3.31399456 Z" id="Footmain" fill="#AB6B00" fill-rule="nonzero"></path>
                        <path d="M129.912351,49.7047259 C119.492672,51.4515682 111.373703,53.5321493 105.555445,55.9464691 C94.6450556,60.473798 77.0329086,67.0571825 77.0329086,72.0488995 C77.0329086,77.0406164 70.3985325,73.6605994 65.0380367,68.4594525 C59.6775409,63.2583055 35.6531956,53.1856362 28.4815861,43.3260391 C21.3099767,33.4664419 9.55458331,38.2796882 9.55458331,29.6730284 C9.55458331,23.9352552 21.3597542,16.2312688 44.970096,6.56106913 C49.6442595,5.52881219 53.9720991,4.80294759 57.9536147,4.38347535 C78.8929,15.3820053 123.10527,35.7085093 128.658298,46.9555509 C129.101951,47.8541203 129.519969,48.7705119 129.912351,49.7047259 Z" id="Combined-Shape" fill="#F5A623" fill-rule="nonzero"></path>
                        <path d="M55.9369401,3.31399456 C75.8983447,14.0149537 122.919918,35.3331 128.658298,46.9555509 C132.483885,54.7038515 134.403356,63.7773276 134.416711,74.1759792 C105.366047,88.069986 88.4404661,96.0817434 83.6399678,98.2112513 C76.4392203,101.405513 64.6382987,98.8195086 55.9369401,94.1847331 C47.2355816,89.5499576 9.01552886,63.3712156 4.71219897,58.6690583 C0.40886907,53.9669009 0.525421382,46.8644944 0.525421382,38.108502 C0.525421382,32.2711737 4.38257446,25.5961256 12.0968806,18.0833579 C28.0159839,1.10314289 42.6293371,-3.81997821 55.9369401,3.31399456 Z" id="outline" stroke="#000000" stroke-width="3" fill-rule="nonzero"></path>
                    </g>
                </g>
                <g id="SilverLeg" stroke-width="1" fill-rule="evenodd">
                    <path d="M2.35994251,24.8492336 L2.35994251,419.964762 C1.3082988,423.258367 0.847868722,425.488164 0.978652287,426.654151 C1.49780244,431.28258 5.47563306,432.330003 15.2101885,433.030606 C23.5808683,433.63305 29.2168772,431.040128 36.8497177,428.079575 C49.3116731,423.245951 56.7062374,418.414778 61.1319265,414.260719 C64.6634359,410.945958 65.265505,404.444084 63.68004,401.562026 C63.1204203,400.54475 61.5637936,399.079482 59.0101599,397.166225 C83.9045225,306.917962 102.15098,237.023425 113.749534,187.482614 C125.348087,137.941802 131.347602,75.740222 131.748078,0.877873196 L2.35994251,24.8492336 Z" fill="#F5A623" fill-rule="nonzero"></path>
                    <path d="M57.7324618,399 C73.9095541,416.178711 28.0206942,431.602631 12.8361297,424.192095 C-5.79301088,415.1005 34.3802089,427.699928 49.1031517,411.409517 C52.0237192,408.178014 54.0804586,404.25999 56.569112,400.685226 L57.7324618,399 Z" id="Path-13" fill="#F7C46E" fill-rule="nonzero"></path>
                    <path d="M27,192.56033 C27,218.279812 34.1513982,232.125371 36.2322859,257.217277 C36.7399406,263.338715 38.5614995,269.255594 40.245535,275.110068 C50.7527214,311.637831 78.1083151,263.765436 84.2078655,252.839201 C106.804856,212.360799 113.796146,164.250875 121.54828,120.249237 C127.548516,86.1914835 114.797276,67.7633874 103.601515,60.1421012 C91.8137508,52.1178202 54.080462,60.0210152 36.2322859,77.4961354 C28.9594706,84.616937 32.1244135,111.592407 30.1535937,127.942951 C28.7195715,139.840051 27,174.661337 27,192.56033 Z" id="Path-12" fill="#F7C46E" fill-rule="nonzero"></path>
                    <path d="M2.35994251,24.8492336 L2.35994251,419.964762 C1.3082988,423.258367 0.847868722,425.488164 0.978652287,426.654151 C1.49780244,431.28258 5.47563306,432.330003 15.2101885,433.030606 C23.5808683,433.63305 29.2168772,431.040128 36.8497177,428.079575 C49.3116731,423.245951 56.7062374,418.414778 61.1319265,414.260719 C64.6634359,410.945958 65.265505,404.444084 63.68004,401.562026 C63.1204203,400.54475 61.5637936,399.079482 59.0101599,397.166225 C83.9045225,306.917962 102.15098,237.023425 113.749534,187.482614 C125.348087,137.941802 131.347602,75.740222 131.748078,0.877873196 L2.35994251,24.8492336 Z" stroke="#000000" stroke-width="3" fill-rule="nonzero"></path>
                </g>
                <g id="Handle" transform="translate(79.000000, 138.000000)" fill-rule="nonzero">
                    <path d="M14.59375,0.94140625 C32.3763021,5.64322917 42.7213542,10.110026 45.6289063,14.3417969 C49.9902344,20.6894531 48.7070312,17.90625 48.7070312,31.8476562 C48.7070312,41.1419271 44.2011719,77.3216146 35.1894531,140.386719 C34.2715912,147.240885 28.9376068,148.357422 19.1875,143.736328 C9.43739315,139.115234 3.11252336,136.246094 0.212890625,135.128906 L0.212890625,127.5 L24.5480118,137.707031 L41.328125,20.5390625 L14.59375,8.24804688 L14.59375,0.94140625 Z" id="Path-8" fill="#AB6B00"></path>
                    <path d="M18.3139797,4.11298773 C34.8561005,8.38929177 43.7015897,12.1278516 44.8504475,15.3286673 C45.9993053,18.5294829 46.52333,28.4725311 46.4225216,45.1578117 L36.7502842,118.715132 C35.6419884,115.927691 35.0878405,113.070757 35.0878405,110.144331 C35.0878405,105.754692 47.6859073,21.298433 43.0895814,16.6627381 C40.0253641,13.5722749 31.7668302,10.0985607 18.3139797,6.24159576 L18.3139797,4.11298773 Z" id="Path-9" fill="#F7C46E"></path>
                    <path d="M14.59375,0.94140625 C32.3763021,5.64322917 42.7213542,10.110026 45.6289063,14.3417969 C49.9902344,20.6894531 48.7070312,17.90625 48.7070312,31.8476562 C48.7070312,41.1419271 44.2011719,77.3216146 35.1894531,140.386719 C34.2715912,147.240885 28.9376068,148.357422 19.1875,143.736328 C9.43739315,139.115234 3.11252336,136.246094 0.212890625,135.128906 L0.212890625,127.5 L24.5480118,137.707031 L41.328125,20.5390625 L14.59375,8.24804688 L14.59375,0.94140625 Z" id="Path-8" stroke="#000000" stroke-width="3"></path>
                </g>
            </g>
        </g>
    </g>
</svg>