<?xml version="1.0" encoding="UTF-8"?>
<svg width="336px" height="272px" viewBox="0 0 336 272" version="1.1" xmlns="http://www.w3.org/2000/svg" xmlns:xlink="http://www.w3.org/1999/xlink">
    <!-- Generator: Sketch 51.3 (57544) - http://www.bohemiancoding.com/sketch -->
    <title>ConstHead</title>
    <desc>Created with Sketch.</desc>
    <defs></defs>
    <g id="const" stroke="none" stroke-width="1" fill="none" fill-rule="evenodd">
        <g id="ConstBot" transform="translate(-294.000000, -48.000000)" fill-rule="nonzero">
            <g id="ConstHead" transform="translate(287.000000, 45.000000)">
                <path d="M65.0965377,6.17948213 L294.08389,25.7828203 C295.696477,25.2658088 297.336951,25 299,25 C301.568084,25 304.082334,25.6338369 306.523194,26.8477269 L306.833994,26.8743416 L306.833994,27.0056311 C326.286103,37.0976412 341,84.0734753 341,140.5 C341,204.288889 322.195959,256 299,256 C297.092996,256 295.215677,255.650488 293.376051,254.973487 L63,272.824943 L63,272.453731 C61.5178708,272.815292 60.0169036,273 58.5,273 C31.1619049,273 9,213.006156 9,139 C9,64.9938435 31.1619049,5 58.5,5 C60.7365918,5 62.9385381,5.40155372 65.0965377,6.17948213 Z" id="Combined-Shape" fill="#F5A623"></path>
                <ellipse id="Oval-2" fill="#F7C46E" cx="53.5" cy="136" rx="29.5" ry="118"></ellipse>
                <path d="M135,63.5953393 C143.430152,41.8651131 168.911227,31 211.443225,31 C253.975222,31 282.404702,44.5824259 296.731666,71.7472776 L278.917197,103.328797 C264.023212,79.2191981 241.531888,67.1643986 211.443225,67.1643986 C181.354561,67.1643986 161.626931,77.8639901 152.260334,99.2631731 L135,63.5953393 Z" id="Path-18" fill="#000000"></path>
                <ellipse id="Oval" fill="#D0021B" cx="166.5" cy="61.5" rx="13.5" ry="11.5"></ellipse>
                <ellipse id="Oval-Copy" fill="#D0021B" cx="271.5" cy="67.5" rx="13.5" ry="11.5"></ellipse>
                <path d="M65.3598449,271.053668 C88.5328676,257.758183 102.273918,246.937454 106.582997,238.591481 C110.892076,230.245509 114.748729,221.715015 118.152956,213 L321.98245,213 C313.70228,234.218076 308.689045,246.514976 306.942745,249.890699 C305.196444,253.266423 300.357697,254.890948 292.426501,254.764275 L65.3598449,271.053668 Z" id="Path-19" fill="#AB6B00"></path>
                <path d="M138,188.595339 C146.273779,166.865113 171.2822,156 213.025261,156 C254.768322,156 282.670457,169.582426 296.731666,196.747278 L279.247642,228.328797 C264.629929,204.219198 242.555802,192.164399 213.025261,192.164399 C183.494719,192.164399 164.133022,202.86399 154.940168,224.263173 L138,188.595339 Z" id="Path-18-Copy" fill="#000000" transform="translate(217.365833, 192.164399) scale(1, -1) translate(-217.365833, -192.164399) "></path>
                <path d="M65.0965377,6.17948213 L294.08389,25.7828203 C295.696477,25.2658088 297.336951,25 299,25 C301.568084,25 304.082334,25.6338369 306.523194,26.8477269 L306.833994,26.8743416 L306.833994,27.0056311 C326.286103,37.0976412 341,84.0734753 341,140.5 C341,204.288889 322.195959,256 299,256 C297.092996,256 295.215677,255.650488 293.376051,254.973487 L63,272.824943 L63,272.453731 C61.5178708,272.815292 60.0169036,273 58.5,273 C31.1619049,273 9,213.006156 9,139 C9,64.9938435 31.1619049,5 58.5,5 C60.7365918,5 62.9385381,5.40155372 65.0965377,6.17948213 Z" id="Combined-Shape" stroke="#000000" stroke-width="3"></path>
            </g>
        </g>
    </g>
</svg>