<?xml version="1.0" encoding="UTF-8"?>
<svg width="368px" height="460px" viewBox="0 0 368 460" version="1.1" xmlns="http://www.w3.org/2000/svg" xmlns:xlink="http://www.w3.org/1999/xlink">
    <!-- Generator: Sketch 51.3 (57544) - http://www.bohemiancoding.com/sketch -->
    <title>ConstTorso</title>
    <desc>Created with Sketch.</desc>
    <defs></defs>
    <g id="const" stroke="none" stroke-width="1" fill="none" fill-rule="evenodd">
        <g id="ConstBot" transform="translate(-286.000000, -293.000000)" fill-rule="nonzero">
            <g id="ConstBody" transform="translate(287.000000, 295.000000)">
                <path d="M198.872103,456 C129.369072,456 112.255267,450.775565 76.6595763,439.04522 C52.929116,431.224991 36.7092573,419.4767 28,403.800347 C34.4756646,354.12641 37.7134969,313.522235 37.7134969,281.98782 C37.7134969,250.453406 34.4756646,221.323836 28,194.59911 C57.3436775,186.86637 102.02284,183 162.037487,183 C222.052133,183 270.821343,189.814099 308.345115,203.442296 C322.115038,240.06457 329,270.98207 329,296.194795 C329,334.013883 329,395.996943 316.339564,431.50092 C297.98259,442.073709 268.375133,456 198.872103,456 Z" id="back" fill="#AB6B00"></path>
                <path d="M74,438.036524 C88.7996392,407.497111 96.1994588,371.249864 96.1994588,329.294782 C96.1994588,263.437634 93.1349585,217.879859 78.5747445,186.379337 C102.118513,184.126446 130.146549,183 162.65885,183 C214.302139,183 257.648781,188.008961 292.698777,198.026882 C305.834029,216.073453 314.186276,233.016082 317.755517,248.85477 C324.961626,280.83224 329.592397,318.372035 322.386288,378.995639 C319.291046,405.035307 314.913503,424.032 309.253658,435.985719 C290.218498,445.624531 259.839463,456 199.628317,456 C129.870838,456 112.694379,450.775565 76.9683738,439.04522 C75.9655523,438.715952 74.9760943,438.37972 74,438.036524 Z" id="highlight" fill="#F5A623"></path>
                <path d="M295.167548,15.5730435 C310.876764,21.9369472 316.098909,46.4566936 324.088549,55.6014627 C332.078189,64.7462318 365.090271,180.719017 365.090271,189.540243 C365.090271,198.361469 361.691732,227.410818 347.998644,227.410818 C334.305556,227.410818 118.505048,236.384457 96.3169505,236.384457 C74.1288528,236.384457 41.2531405,232.969875 25.7845763,227.410818 C10.3160122,221.851761 -4.5990527,208.303063 2.85847977,189.540243 C10.3160122,170.777423 14.2867672,41.854896 20.0356718,24.7044431 C25.7845763,7.55399014 8.75979714,2.52971495 46.2159157,2.52971495 C83.6720343,2.52971495 140.385646,-2.48653851 200.508492,2.52971495 C260.631338,7.54596841 279.458332,9.20913987 295.167548,15.5730435 Z" id="Path-3" fill="#F5A623"></path>
                <path d="M34.4952678,229.924492 C31.2184549,229.145758 28.275773,228.306098 25.7845763,227.410818 C10.3160122,221.851761 -4.5990527,208.303063 2.85847977,189.540243 C10.3160122,170.777423 14.2867672,41.854896 20.0356718,24.7044431 C25.7845763,7.55399014 8.75979714,2.52971495 46.2159157,2.52971495 C83.6720343,2.52971495 140.385646,-2.48653851 200.508492,2.52971495 C260.631338,7.54596841 279.458332,9.20913987 295.167548,15.5730435 C310.876764,21.9369472 316.098909,46.4566936 324.088549,55.6014627 C332.078189,64.7462318 365.090271,180.719017 365.090271,189.540243 C365.090271,198.361469 361.691732,227.410818 347.998644,227.410818 C345.159411,227.410818 333.630944,227.796623 316.940904,228.408241 C324.980301,254.33442 329,276.929938 329,296.194795 C329,334.013883 329,395.996943 316.339564,431.50092 C297.98259,442.073709 268.375133,456 198.872103,456 C129.369072,456 112.255267,450.775565 76.6595763,439.04522 C52.929116,431.224991 36.7092573,419.4767 28,403.800347 C34.4756646,354.12641 37.7134969,313.522235 37.7134969,281.98782 C37.7134969,263.836616 36.6407538,246.482173 34.4952678,229.924492 Z" id="Combined-Shape" stroke="#000000" stroke-width="3"></path>
                <g id="Handle" transform="translate(197.745536, 350.839354) rotate(-95.000000) translate(-197.745536, -350.839354) translate(180.245536, 277.339354)">
                    <path d="M10.4241071,0.94140625 C23.1259301,5.64322917 30.515253,10.110026 32.5920759,14.3417969 C35.7073103,20.6894531 34.7907366,17.90625 34.7907366,31.8476562 C34.7907366,41.1419271 31.5722656,77.3216146 25.1353237,140.386719 C24.479708,147.240885 20.6697192,148.357422 13.7053571,143.736328 C6.74099511,139.115234 2.22323097,136.246094 0.152064732,135.128906 L0.152064732,127.5 L17.5342942,137.707031 L29.5200893,20.5390625 L10.4241071,8.24804688 L10.4241071,0.94140625 Z" id="Path-8" fill="#AB6B00"></path>
                    <path d="M13.0814141,4.11298773 C24.8972146,8.38929177 31.2154212,12.1278516 32.036034,15.3286673 C32.8566467,18.5294829 33.23095,28.4725311 33.158944,45.1578117 L26.250203,118.715132 C25.4585631,115.927691 25.0627432,113.070757 25.0627432,110.144331 C25.0627432,105.754692 34.0613624,21.298433 30.7782724,16.6627381 C28.5895458,13.5722749 22.690593,10.0985607 13.0814141,6.24159576 L13.0814141,4.11298773 Z" id="Path-9" fill="#F7C46E"></path>
                    <path d="M10.4241071,0.94140625 C23.1259301,5.64322917 30.515253,10.110026 32.5920759,14.3417969 C35.7073103,20.6894531 34.7907366,17.90625 34.7907366,31.8476562 C34.7907366,41.1419271 31.5722656,77.3216146 25.1353237,140.386719 C24.479708,147.240885 20.6697192,148.357422 13.7053571,143.736328 C6.74099511,139.115234 2.22323097,136.246094 0.152064732,135.128906 L0.152064732,127.5 L17.5342942,137.707031 L29.5200893,20.5390625 L10.4241071,8.24804688 L10.4241071,0.94140625 Z" id="Path-8" stroke="#000000" stroke-width="3"></path>
                </g>
                <g id="Handle" transform="translate(204.745536, 272.839354) rotate(-95.000000) translate(-204.745536, -272.839354) translate(187.245536, 199.339354)">
                    <path d="M10.4241071,0.94140625 C23.1259301,5.64322917 30.515253,10.110026 32.5920759,14.3417969 C35.7073103,20.6894531 34.7907366,17.90625 34.7907366,31.8476562 C34.7907366,41.1419271 31.5722656,77.3216146 25.1353237,140.386719 C24.479708,147.240885 20.6697192,148.357422 13.7053571,143.736328 C6.74099511,139.115234 2.22323097,136.246094 0.152064732,135.128906 L0.152064732,127.5 L17.5342942,137.707031 L29.5200893,20.5390625 L10.4241071,8.24804688 L10.4241071,0.94140625 Z" id="Path-8" fill="#AB6B00"></path>
                    <path d="M13.0814141,4.11298773 C24.8972146,8.38929177 31.2154212,12.1278516 32.036034,15.3286673 C32.8566467,18.5294829 33.23095,28.4725311 33.158944,45.1578117 L26.250203,118.715132 C25.4585631,115.927691 25.0627432,113.070757 25.0627432,110.144331 C25.0627432,105.754692 34.0613624,21.298433 30.7782724,16.6627381 C28.5895458,13.5722749 22.690593,10.0985607 13.0814141,6.24159576 L13.0814141,4.11298773 Z" id="Path-9" fill="#F7C46E"></path>
                    <path d="M10.4241071,0.94140625 C23.1259301,5.64322917 30.515253,10.110026 32.5920759,14.3417969 C35.7073103,20.6894531 34.7907366,17.90625 34.7907366,31.8476562 C34.7907366,41.1419271 31.5722656,77.3216146 25.1353237,140.386719 C24.479708,147.240885 20.6697192,148.357422 13.7053571,143.736328 C6.74099511,139.115234 2.22323097,136.246094 0.152064732,135.128906 L0.152064732,127.5 L17.5342942,137.707031 L29.5200893,20.5390625 L10.4241071,8.24804688 L10.4241071,0.94140625 Z" id="Path-8" stroke="#000000" stroke-width="3"></path>
                </g>
                <g id="Handle" transform="translate(204.745536, 411.839354) rotate(-95.000000) translate(-204.745536, -411.839354) translate(187.245536, 338.339354)">
                    <path d="M10.4241071,0.94140625 C23.1259301,5.64322917 30.515253,10.110026 32.5920759,14.3417969 C35.7073103,20.6894531 34.7907366,17.90625 34.7907366,31.8476562 C34.7907366,41.1419271 31.5722656,77.3216146 25.1353237,140.386719 C24.479708,147.240885 20.6697192,148.357422 13.7053571,143.736328 C6.74099511,139.115234 2.22323097,136.246094 0.152064732,135.128906 L0.152064732,127.5 L17.5342942,137.707031 L29.5200893,20.5390625 L10.4241071,8.24804688 L10.4241071,0.94140625 Z" id="Path-8" fill="#AB6B00"></path>
                    <path d="M13.0814141,4.11298773 C24.8972146,8.38929177 31.2154212,12.1278516 32.036034,15.3286673 C32.8566467,18.5294829 33.23095,28.4725311 33.158944,45.1578117 L26.250203,118.715132 C25.4585631,115.927691 25.0627432,113.070757 25.0627432,110.144331 C25.0627432,105.754692 34.0613624,21.298433 30.7782724,16.6627381 C28.5895458,13.5722749 22.690593,10.0985607 13.0814141,6.24159576 L13.0814141,4.11298773 Z" id="Path-9" fill="#F7C46E"></path>
                    <path d="M10.4241071,0.94140625 C23.1259301,5.64322917 30.515253,10.110026 32.5920759,14.3417969 C35.7073103,20.6894531 34.7907366,17.90625 34.7907366,31.8476562 C34.7907366,41.1419271 31.5722656,77.3216146 25.1353237,140.386719 C24.479708,147.240885 20.6697192,148.357422 13.7053571,143.736328 C6.74099511,139.115234 2.22323097,136.246094 0.152064732,135.128906 L0.152064732,127.5 L17.5342942,137.707031 L29.5200893,20.5390625 L10.4241071,8.24804688 L10.4241071,0.94140625 Z" id="Path-8" stroke="#000000" stroke-width="3"></path>
                </g>
                <path d="M251.492727,24.9858041 C281.197935,30.0174197 283.9764,34.8697418 293.092341,46.9286616 C302.370214,59.0185784 324.766664,129.481786 336.230343,145.937966 C347.911861,162.435845 346.413175,185.587098 302.981055,184.841021 C259.548935,184.094943 166.602033,182.4983 135.580875,181.965419 C104.559716,181.432537 76.2432986,171.856053 79.3244989,143.495884 C82.0988925,115.076986 72.4286112,57.5325446 79.9650156,42.5962369 C87.171367,27.5967499 91.383981,20.6979208 119.567033,20.1064545 C147.750084,19.5149882 222.18992,20.0312165 251.492727,24.9858041 Z" id="Path-16" fill="#000000"></path>
                <rect id="Rectangle-2" fill="#F5A623" x="59" y="133" width="278" height="11"></rect>
                <rect id="Rectangle-2-Copy" fill="#F5A623" x="59" y="102" width="278" height="11"></rect>
                <polygon id="Rectangle-2-Copy-2" fill="#F5A623" points="29.7376704 67.6740061 322 71 322 82 29.7376704 78.6740061"></polygon>
                <polygon id="Rectangle-2-Copy-3" fill="#F5A623" points="34.9535867 35.3651512 306 46.6787086 306 57.6787086 34.9535867 46.3651512"></polygon>
            </g>
        </g>
    </g>
</svg>