<?xml version="1.0" encoding="UTF-8"?>
<svg width="144px" height="523px" viewBox="0 0 144 523" version="1.1" xmlns="http://www.w3.org/2000/svg" xmlns:xlink="http://www.w3.org/1999/xlink">
    <!-- Generator: Sketch 51.3 (57544) - http://www.bohemiancoding.com/sketch -->
    <title>ConstArmLeft</title>
    <desc>Created with Sketch.</desc>
    <defs>
        <path d="M1.22003745,53.6382814 C0.42322895,50.2605108 0,46.724187 0,43.0823206 C0,19.2886119 18.0655677,0 40.3505747,0 C62.6355818,0 80.7011494,19.2886119 80.7011494,43.0823206 C80.7011494,46.724187 80.2779205,50.2605108 79.481112,53.6382814 L79.8963215,53.6382814 L60.3857338,221.423337 C51.2761351,225.515675 41.9396605,228.647092 32.3763097,230.817587 C22.812959,232.988082 14.6980089,231.902835 8.03145951,227.561844 L0.790207546,53.6382814 L1.22003745,53.6382814 Z" id="path-1"></path>
        <path d="M1.78392031,60.2894283 C0.618838969,56.4928142 0,52.5179862 0,48.4245283 C0,21.6803998 26.4151998,0 59,0 C91.5848002,0 118,21.6803998 118,48.4245283 C118,52.5179862 117.381161,56.4928142 116.21608,60.2894283 L116.823193,60.2894283 L88.2951065,248.879831 C74.9751892,253.479619 61.3235371,256.999331 47.3401504,259.438968 C33.3567636,261.878605 21.4912064,260.658786 11.7434786,255.779513 L1.15542952,60.2894283 L1.78392031,60.2894283 Z" id="path-3"></path>
    </defs>
    <g id="const" stroke="none" stroke-width="1" fill="none" fill-rule="evenodd">
        <g id="ConstBot" transform="translate(-217.000000, -305.000000)">
            <g id="ConstArm" transform="translate(276.000000, 561.500000) scale(-1, 1) translate(-276.000000, -561.500000) translate(183.000000, 295.000000)">
                <g id="Hand" transform="translate(68.000000, 424.000000)" fill-rule="nonzero">
                    <path d="M49.724264,7.24507168 C59.6737962,21.735215 69,32.3053196 69,48.7582275 C69,65.2111354 62.4965641,81.9797327 56.1104141,93.3390607 C49.724264,104.698389 36.1797221,109 30.092717,109 C26.0347135,109 22.2253386,106.019709 18.6645921,100.059127 C23.7601582,90.6387726 25.6393679,81.801757 24.3022211,73.5480806 C22.9650742,65.2944042 21.7232496,58.0404108 20.5767472,51.7861006 C18.1598675,53.5521311 16.2477124,57.0873949 14.8402819,62.3918918 C13.4328514,67.6963887 13.4328514,73.534355 14.8402819,79.9057906 C14.2411136,83.7178544 12.8881529,85.6238864 10.7813999,85.6238864 C8.67464687,85.6238864 6.37988503,83.7178544 3.89711436,79.9057906 C-0.387553919,65.3657774 -1.13914992,54.9832564 1.64232635,48.7582275 C4.42380261,42.5331986 9.48246981,31.2704074 16.8183279,14.969854 L45.8274738,7.24507168 C41.7923125,-2.41502389 43.0912426,-2.41502389 49.724264,7.24507168 Z" id="Path-12" fill="#000000"></path>
                    <path d="M46.7023104,20.3129528 C42.2436854,21.7694988 37.5792778,23.4596359 32.5168999,26.5883979 C27.4545221,29.71716 26.5,36.4956295 26.5,43.6844285 C26.5,50.8732275 38.1694353,75.2414824 45.5572194,78.8417525 C52.9450034,82.4420227 57.5519402,82.2251166 63.0017828,70.7742059 C68.4516253,59.3232951 69.439753,46.3336489 65.7504957,37.543082 C62.0612384,28.752515 62.7267879,27.2020382 58.4319239,22.4851034 C54.1370599,17.7681686 51.1609354,18.8564068 46.7023104,20.3129528 Z" id="Path-2" fill="#4A4A4A"></path>
                </g>
                <g id="ConstArmUpper" transform="translate(103.367674, 329.599377) rotate(11.000000) translate(-103.367674, -329.599377) translate(43.738511, 204.688775)">
                    <path d="M20.3694627,62.6052934 C19.5726542,59.2231012 19.1494253,55.6821481 19.1494253,52.0355143 C19.1494253,28.2106587 37.2149929,8.89679715 59.5,8.89679715 C81.7850071,8.89679715 99.8505747,28.2106587 99.8505747,52.0355143 C99.8505747,55.6821481 99.4273458,59.2231012 98.6305373,62.6052934 L99.0457468,62.6052934 L79.5351591,230.609987 C70.4255604,234.707682 61.0890857,237.843198 51.525735,240.016535 C41.9623843,242.189871 33.8474342,241.103203 27.1808848,236.75653 L19.9396328,62.6052934 L20.3694627,62.6052934 Z" id="SteelArm" fill="#AB6B00" fill-rule="nonzero" transform="translate(59.500000, 125.000000) rotate(-13.000000) translate(-59.500000, -125.000000) "></path>
                    <g id="Path-13" stroke-width="1" fill-rule="evenodd" transform="translate(59.500000, 125.000000) rotate(-13.000000) translate(-59.500000, -125.000000) translate(19.149425, 8.896797)">
                        <mask id="mask-2" fill="white">
                            <use xlink:href="#path-1"></use>
                        </mask>
                        <g id="Mask" fill-rule="nonzero"></g>
                        <path d="M23.5191295,247.572752 C18.9891212,215.450866 12.4758258,129.612833 12.4758258,105.725354 C12.4758258,81.8378751 11.2227489,23.8408952 20.2219145,11.1740583 C29.2210801,-1.49277858 49.2167103,4.10190146 64.3545619,11.1740583 C74.446463,15.8888295 82.2443876,45.4608243 87.7483358,99.8900427 L69.5832281,242.071918 C41.8938345,267.153731 26.5391349,268.987342 23.5191295,247.572752 Z" fill="#F5A623" fill-rule="nonzero" mask="url(#mask-2)"></path>
                    </g>
                    <path d="M20.3694627,62.6052934 C19.5726542,59.2231012 19.1494253,55.6821481 19.1494253,52.0355143 C19.1494253,28.2106587 37.2149929,8.89679715 59.5,8.89679715 C81.7850071,8.89679715 99.8505747,28.2106587 99.8505747,52.0355143 C99.8505747,55.6821481 99.4273458,59.2231012 98.6305373,62.6052934 L99.0457468,62.6052934 L79.5351591,230.609987 C70.4255604,234.707682 61.0890857,237.843198 51.525735,240.016535 C41.9623843,242.189871 33.8474342,241.103203 27.1808848,236.75653 L19.9396328,62.6052934 L20.3694627,62.6052934 Z" id="Border" stroke="#000000" stroke-width="3" fill-rule="nonzero" transform="translate(59.500000, 125.000000) rotate(-13.000000) translate(-59.500000, -125.000000) "></path>
                    <path d="M71.1779498,45.2696885 C75.8440045,42.1908822 73.6502774,24.9291647 68.5793928,21.7593369 C63.22732,18.4137374 57.1838308,16.4162444 51.2459136,16.4146093 C46.9929346,16.4134381 40.0539371,38.6711548 44.8182601,40.8543512 C57.4480696,46.6418166 62.3484462,46.4703963 74.8064639,42.3759714" id="Path-14" fill="#F7C46E" fill-rule="nonzero" transform="translate(59.008886, 30.876428) rotate(-13.000000) translate(-59.008886, -30.876428) "></path>
                </g>
                <g id="ConstArmUpper">
                    <path d="M29.7839203,70.3683497 C28.618839,66.5667657 28,62.5867345 28,58.4879181 C28,31.7087804 54.4151998,10 87,10 C119.5848,10 146,31.7087804 146,58.4879181 C146,62.5867345 145.381161,66.5667657 144.21608,70.3683497 L144.823193,70.3683497 L116.295107,259.205626 C102.975189,263.811435 89.3235371,267.335755 75.3401504,269.778585 C61.3567636,272.221415 49.4912064,271 39.7434786,266.11434 L29.1554295,70.3683497 L29.7839203,70.3683497 Z" id="SteelArm" fill="#AB6B00" fill-rule="nonzero" transform="translate(87.000000, 140.500000) rotate(-13.000000) translate(-87.000000, -140.500000) "></path>
                    <g id="Path-13" stroke-width="1" fill-rule="evenodd" transform="translate(87.000000, 140.500000) rotate(-13.000000) translate(-87.000000, -140.500000) translate(28.000000, 10.000000)">
                        <mask id="mask-4" fill="white">
                            <use xlink:href="#path-3"></use>
                        </mask>
                        <g id="Mask" fill-rule="nonzero"></g>
                        <path d="M34.3893153,278.271773 C27.7656058,242.166773 18.2419638,145.684824 18.2419638,118.835298 C18.2419638,91.9857716 16.4097337,26.7971662 29.5681775,12.5596415 C42.7266214,-1.67788313 71.9639293,4.61053724 94.098267,12.5596415 C108.854492,17.8590444 120.2565,51.0979665 128.304289,112.276408 L101.743544,272.088836 C61.2565311,300.280793 38.8051217,302.341772 34.3893153,278.271773 Z" fill="#F5A623" fill-rule="nonzero" mask="url(#mask-4)"></path>
                    </g>
                    <path d="M29.7839203,70.3683497 C28.618839,66.5667657 28,62.5867345 28,58.4879181 C28,31.7087804 54.4151998,10 87,10 C119.5848,10 146,31.7087804 146,58.4879181 C146,62.5867345 145.381161,66.5667657 144.21608,70.3683497 L144.823193,70.3683497 L116.295107,259.205626 C102.975189,263.811435 89.3235371,267.335755 75.3401504,269.778585 C61.3567636,272.221415 49.4912064,271 39.7434786,266.11434 L29.1554295,70.3683497 L29.7839203,70.3683497 Z" id="Border" stroke="#000000" stroke-width="3" fill-rule="nonzero" transform="translate(87.000000, 140.500000) rotate(-13.000000) translate(-87.000000, -140.500000) "></path>
                    <path d="M104.075322,50.8831298 C110.897956,47.4225516 107.690322,28.0203812 100.275751,24.4574947 C92.4500309,20.6970408 83.6133325,18.4518588 74.9309997,18.4500208 C68.7123582,18.4487044 58.5662609,43.466378 65.532582,45.9202908 C83.9996985,52.4254019 91.164955,52.2327254 109.38088,47.6305919" id="Path-14" fill="#F7C46E" fill-rule="nonzero" transform="translate(86.281901, 34.705105) rotate(-13.000000) translate(-86.281901, -34.705105) "></path>
                </g>
                <g id="Handle" transform="translate(124.639468, 140.800100) rotate(-13.000000) translate(-124.639468, -140.800100) translate(100.139468, 67.300100)" fill-rule="nonzero">
                    <path d="M14.59375,0.94140625 C32.3763021,5.64322917 42.7213542,10.110026 45.6289063,14.3417969 C49.9902344,20.6894531 48.7070312,17.90625 48.7070312,31.8476562 C48.7070312,41.1419271 44.2011719,77.3216146 35.1894531,140.386719 C34.2715912,147.240885 28.9376068,148.357422 19.1875,143.736328 C9.43739315,139.115234 3.11252336,136.246094 0.212890625,135.128906 L0.212890625,127.5 L24.5480118,137.707031 L41.328125,20.5390625 L14.59375,8.24804688 L14.59375,0.94140625 Z" id="Path-8" fill="#AB6B00"></path>
                    <path d="M18.3139797,4.11298773 C34.8561005,8.38929177 43.7015897,12.1278516 44.8504475,15.3286673 C45.9993053,18.5294829 46.52333,28.4725311 46.4225216,45.1578117 L36.7502842,118.715132 C35.6419884,115.927691 35.0878405,113.070757 35.0878405,110.144331 C35.0878405,105.754692 47.6859073,21.298433 43.0895814,16.6627381 C40.0253641,13.5722749 31.7668302,10.0985607 18.3139797,6.24159576 L18.3139797,4.11298773 Z" id="Path-9" fill="#F7C46E"></path>
                    <path d="M14.59375,0.94140625 C32.3763021,5.64322917 42.7213542,10.110026 45.6289063,14.3417969 C49.9902344,20.6894531 48.7070312,17.90625 48.7070312,31.8476562 C48.7070312,41.1419271 44.2011719,77.3216146 35.1894531,140.386719 C34.2715912,147.240885 28.9376068,148.357422 19.1875,143.736328 C9.43739315,139.115234 3.11252336,136.246094 0.212890625,135.128906 L0.212890625,127.5 L24.5480118,137.707031 L41.328125,20.5390625 L14.59375,8.24804688 L14.59375,0.94140625 Z" id="Path-8" stroke="#000000" stroke-width="3"></path>
                </g>
            </g>
        </g>
    </g>
</svg>