<?xml version="1.0" encoding="UTF-8"?>
<svg width="543px" height="528px" viewBox="0 0 543 528" version="1.1" xmlns="http://www.w3.org/2000/svg" xmlns:xlink="http://www.w3.org/1999/xlink">
    <!-- Generator: Sketch 51.3 (57544) - http://www.bohemiancoding.com/sketch -->
    <title>ConstLegTreads</title>
    <desc>Created with Sketch.</desc>
    <defs></defs>
    <g id="const-Dozer" stroke="none" stroke-width="1" fill="none" fill-rule="evenodd">
        <g id="ConstBotDozer" transform="translate(-255.000000, -702.000000)">
            <g id="const-Treads" transform="translate(257.000000, 704.000000)">
                <g id="Treads" transform="translate(171.000000, 232.000000)" fill-rule="nonzero">
                    <path d="M133.994415,292.253399 C104.879932,292.253399 76.8856093,284.080828 54.9348278,244.67684 C32.9840463,205.272853 15.9130979,174.493855 8.25584852,151.147108 C0.598599144,127.80036 0.284083372,83.0108946 0.284083372,54.4238302 C0.284083372,36.0054135 -1.41584762,19.9222233 14.0864871,10.6625896 C22.6451911,5.55042645 46.8031799,1.50698717 54.9348278,2.68598574 C72.1064448,5.17567939 149.972706,37.6175106 196.163737,63.2122066 C211.466513,71.6915569 223.292768,79.4193983 228.283825,85.0576664 C248.340253,107.714899 255.467665,232.848628 232.280594,251.182478 C209.093524,269.516328 163.108899,292.253399 133.994415,292.253399 Z" id="Path-4" fill="#000000"></path>
                    <path d="M150.470002,4.69622441 C195.049707,14.6036472 241.451935,32.9065017 289.676685,59.604788 C362.01381,99.6522174 372.006259,136.078632 367.010035,189.440085 C362.01381,242.801538 320.069496,291.13904 289.676685,291.13904 C269.414811,291.13904 217.371267,291.13904 133.546053,291.13904 C195.659679,276.836123 226.716492,242.936471 226.716492,189.440085 C226.716492,109.195505 229.443291,86.3174883 180.218557,55.1423778 C147.402067,34.3589708 97.0835757,17.5435863 29.2630827,4.69622441 C48.6775768,1.77703483 65.2767515,0.317440044 79.0606068,0.317440044 C92.8444622,0.317440044 116.647594,1.77703483 150.470002,4.69622441 Z" id="Path-3" fill="#C5C5C5"></path>
                    <ellipse id="Oval-2" fill="#C5C5C5" cx="154.5" cy="163.5" rx="56.5" ry="95.5"></ellipse>
                    <ellipse id="Oval-2-Copy" fill="#C5C5C5" cx="20" cy="66" rx="13" ry="52"></ellipse>
                    <ellipse id="Oval-2-Copy-2" fill="#C5C5C5" cx="34" cy="155.5" rx="9" ry="27.5"></ellipse>
                    <ellipse id="Oval-2-Copy-3" fill="#C5C5C5" cx="57" cy="183.5" rx="9" ry="36.5"></ellipse>
                    <ellipse id="Oval-2-Copy-4" fill="#C5C5C5" cx="82" cy="213.5" rx="9" ry="42.5"></ellipse>
                    <path d="M318.5,263.5 L209.5,263.5" id="Line" stroke="#979797" stroke-width="5" stroke-linecap="square"></path>
                    <path d="M352.5,203.25 L237.5,203.25" id="Line-Copy" stroke="#979797" stroke-width="5" stroke-linecap="square"></path>
                    <path d="M343.5,110.208333 L241.5,110.208333" id="Line-Copy-2" stroke="#979797" stroke-width="5" stroke-linecap="square"></path>
                    <path d="M301.5,73.2013889 L217.5,73.2013889" id="Line-Copy-3" stroke="#979797" stroke-width="5" stroke-linecap="square"></path>
                    <path d="M275,52.2002315 L195.5,52.2002315" id="Line-Copy-4" stroke="#979797" stroke-width="4" stroke-linecap="square"></path>
                    <path d="M238,34.2000386 L161.5,34.2000386" id="Line-Copy-5" stroke="#979797" stroke-width="4" stroke-linecap="square"></path>
                    <path d="M199.5,19.2000386 L121.5,19.2000386" id="Line-Copy-6" stroke="#979797" stroke-width="3" stroke-linecap="square"></path>
                    <path d="M167.5,8.20003858 L89.5,8.20003858" id="Line-Copy-7" stroke="#979797" stroke-width="3" stroke-linecap="square"></path>
                    <path d="M146.244448,291.13904 C141.930156,291.861472 137.816887,292.253399 133.994415,292.253399 C104.879932,292.253399 76.8856093,284.080828 54.9348278,244.67684 C32.9840463,205.272853 15.9130979,174.493855 8.25584852,151.147108 C0.598599144,127.80036 0.284083372,83.0108946 0.284083372,54.4238302 C0.284083372,36.0054135 -1.41584762,19.9222233 14.0864871,10.6625896 C17.7287957,8.48701766 24.1962587,6.50500011 31.0513719,5.03667904 C30.4566338,4.92288623 29.8605374,4.80940135 29.2630827,4.69622441 C48.6775768,1.77703483 65.2767515,0.317440044 79.0606068,0.317440044 C92.8444622,0.317440044 116.647594,1.77703483 150.470002,4.69622441 C195.049707,14.6036472 241.451935,32.9065017 289.676685,59.604788 C362.01381,99.6522174 372.006259,136.078632 367.010035,189.440085 C362.01381,242.801538 320.069496,291.13904 289.676685,291.13904 L146.244448,291.13904 Z M176.39582,52.7867569 C164.389283,45.5855763 150.219148,38.8749226 133.885416,32.6547959 C148.303218,39.0933184 162.97469,46.0037005 176.39582,52.7867569 Z" id="Path-3" stroke="#000000" stroke-width="3"></path>
                </g>
                <g id="Const-Head-No-Foot" transform="translate(198.000000, 7.000000)" fill-rule="evenodd" stroke-width="1">
                    <g>
                        <path d="M1.405229,20.9632722 L1.405229,366.497035 C0.351905788,369.377337 -0.109259604,371.327323 0.0217328252,372.346995 C0.541712069,376.394617 4.52589537,377.310603 14.2759971,377.92329 C22.6600451,378.450135 28.3050548,376.18259 35.9500852,373.593547 C48.4319425,369.366478 55.8383161,365.141554 60.2710731,361.508774 C63.8082224,358.609972 64.4112531,352.923997 62.8232561,350.403599 C62.2627426,349.513977 60.7036299,348.232582 58.145918,346.559412 C83.0800375,267.636112 101.355635,206.512413 112.972712,163.188317 C124.589788,119.864221 130.598884,65.4681156 131,0 L1.405229,20.9632722 Z" id="SilverLeg" fill="#F5A623" fill-rule="nonzero"></path>
                        <path d="M56.6035268,348 C72.7386788,362.580877 26.9687891,375.67233 11.8235917,369.382445 C-6.7572515,361.665718 33.3118163,372.359809 47.9965887,358.5329 C50.9095845,355.790077 52.9609916,352.464553 55.4431931,349.43038 L56.6035268,348 Z" id="Path-13" fill="#F7C46E" fill-rule="nonzero"></path>
                        <path d="M26,167.220387 C26,189.650011 33.1451003,201.724542 35.2241554,223.606864 C35.7313631,228.94529 37.5513179,234.105322 39.2338703,239.210932 C49.7318035,271.066316 77.0633065,229.317428 83.1574853,219.788801 C105.734576,184.488117 112.719709,142.532083 120.465015,104.158831 C126.459968,74.4575103 113.719957,58.3866091 102.534056,51.7401853 C90.7566724,44.742315 53.0566135,51.6345878 35.2241554,66.8744111 C27.957745,73.0843689 31.1199006,96.6093229 29.1508165,110.868418 C27.7180572,121.243723 26,151.61091 26,167.220387 Z" id="Path-12" fill="#F7C46E" fill-rule="nonzero"></path>
                        <path d="M1.405229,20.9632722 L1.405229,366.497035 C0.351905788,369.377337 -0.109259604,371.327323 0.0217328252,372.346995 C0.541712069,376.394617 4.52589537,377.310603 14.2759971,377.92329 C22.6600451,378.450135 28.3050548,376.18259 35.9500852,373.593547 C48.4319425,369.366478 55.8383161,365.141554 60.2710731,361.508774 C63.8082224,358.609972 64.4112531,352.923997 62.8232561,350.403599 C62.2627426,349.513977 60.7036299,348.232582 58.145918,346.559412 C83.0800375,267.636112 101.355635,206.512413 112.972712,163.188317 C124.589788,119.864221 130.598884,65.4681156 131,0 L1.405229,20.9632722 Z" id="SilverLeg" stroke="#000000" stroke-width="3" fill-rule="nonzero"></path>
                    </g>
                </g>
                <g id="Const-Head-No-Foot" transform="translate(141.500000, 189.000000) scale(-1, 1) translate(-141.500000, -189.000000) translate(76.000000, 0.000000)" fill-rule="evenodd" stroke-width="1">
                    <g>
                        <path d="M1.405229,20.9632722 L1.405229,366.497035 C0.351905788,369.377337 -0.109259604,371.327323 0.0217328252,372.346995 C0.541712069,376.394617 4.52589537,377.310603 14.2759971,377.92329 C22.6600451,378.450135 28.3050548,376.18259 35.9500852,373.593547 C48.4319425,369.366478 55.8383161,365.141554 60.2710731,361.508774 C63.8082224,358.609972 64.4112531,352.923997 62.8232561,350.403599 C62.2627426,349.513977 60.7036299,348.232582 58.145918,346.559412 C83.0800375,267.636112 101.355635,206.512413 112.972712,163.188317 C124.589788,119.864221 130.598884,65.4681156 131,0 L1.405229,20.9632722 Z" id="SilverLeg" fill="#F5A623" fill-rule="nonzero"></path>
                        <path d="M56.6035268,348 C72.7386788,362.580877 26.9687891,375.67233 11.8235917,369.382445 C-6.7572515,361.665718 33.3118163,372.359809 47.9965887,358.5329 C50.9095845,355.790077 52.9609916,352.464553 55.4431931,349.43038 L56.6035268,348 Z" id="Path-13" fill="#F7C46E" fill-rule="nonzero"></path>
                        <path d="M26,167.220387 C26,189.650011 33.1451003,201.724542 35.2241554,223.606864 C35.7313631,228.94529 37.5513179,234.105322 39.2338703,239.210932 C49.7318035,271.066316 77.0633065,229.317428 83.1574853,219.788801 C105.734576,184.488117 112.719709,142.532083 120.465015,104.158831 C126.459968,74.4575103 113.719957,58.3866091 102.534056,51.7401853 C90.7566724,44.742315 53.0566135,51.6345878 35.2241554,66.8744111 C27.957745,73.0843689 31.1199006,96.6093229 29.1508165,110.868418 C27.7180572,121.243723 26,151.61091 26,167.220387 Z" id="Path-12" fill="#F7C46E" fill-rule="nonzero"></path>
                        <path d="M1.405229,20.9632722 L1.405229,366.497035 C0.351905788,369.377337 -0.109259604,371.327323 0.0217328252,372.346995 C0.541712069,376.394617 4.52589537,377.310603 14.2759971,377.92329 C22.6600451,378.450135 28.3050548,376.18259 35.9500852,373.593547 C48.4319425,369.366478 55.8383161,365.141554 60.2710731,361.508774 C63.8082224,358.609972 64.4112531,352.923997 62.8232561,350.403599 C62.2627426,349.513977 60.7036299,348.232582 58.145918,346.559412 C83.0800375,267.636112 101.355635,206.512413 112.972712,163.188317 C124.589788,119.864221 130.598884,65.4681156 131,0 L1.405229,20.9632722 Z" id="SilverLeg" stroke="#000000" stroke-width="3" fill-rule="nonzero"></path>
                    </g>
                </g>
                <g id="Treads" transform="translate(0.000000, 226.000000)" fill-rule="nonzero">
                    <path d="M107.122907,292.253399 C83.8471004,292.253399 61.466815,284.080828 43.9180873,244.67684 C26.3693595,205.272853 12.7218533,174.493855 6.6002041,151.147108 C0.478554871,127.80036 0.227112723,83.0108946 0.227112723,54.4238302 C0.227112723,36.0054135 -1.1319107,19.9222233 11.2615547,10.6625896 C18.1038791,5.55042645 37.4171764,1.50698717 43.9180873,2.68598574 C57.6460737,5.17567939 119.896879,37.6175106 156.824667,63.2122066 C169.058595,71.6915569 178.513189,79.4193983 182.503329,85.0576664 C198.537601,107.714899 204.235667,232.848628 185.698578,251.182478 C167.161489,269.516328 130.398713,292.253399 107.122907,292.253399 Z" id="Path-4" fill="#000000"></path>
                    <path d="M120.294446,4.69622441 C155.934048,14.6036472 193.03068,32.9065017 231.584342,59.604788 C289.414835,99.6522174 297.403378,136.078632 293.409106,189.440085 C289.414835,242.801538 255.882118,291.13904 231.584342,291.13904 C215.385825,291.13904 173.779197,291.13904 106.76446,291.13904 C156.421695,276.836123 181.250312,242.936471 181.250312,189.440085 C181.250312,109.195505 183.430273,86.3174883 144.077166,55.1423778 C117.841761,34.3589708 77.6142408,17.5435863 23.3946054,4.69622441 C38.9156779,1.77703483 52.1860209,0.317440044 63.2056342,0.317440044 C74.2252475,0.317440044 93.2548514,1.77703483 120.294446,4.69622441 Z" id="Path-3" fill="#C5C5C5"></path>
                    <ellipse id="Oval-2" fill="#C5C5C5" cx="123.51626" cy="163.5" rx="45.1693767" ry="95.5"></ellipse>
                    <ellipse id="Oval-2-Copy" fill="#C5C5C5" cx="15.9891599" cy="66" rx="10.3929539" ry="52"></ellipse>
                    <ellipse id="Oval-2-Copy-2" fill="#C5C5C5" cx="27.1815718" cy="155.5" rx="7.19512195" ry="27.5"></ellipse>
                    <ellipse id="Oval-2-Copy-3" fill="#C5C5C5" cx="45.5691057" cy="183.5" rx="7.19512195" ry="36.5"></ellipse>
                    <ellipse id="Oval-2-Copy-4" fill="#C5C5C5" cx="65.5555556" cy="213.5" rx="7.19512195" ry="42.5"></ellipse>
                    <path d="M254.627371,263.5 L167.48645,263.5" id="Line" stroke="#979797" stroke-width="5" stroke-linecap="square"></path>
                    <path d="M281.808943,203.25 L189.871274,203.25" id="Line-Copy" stroke="#979797" stroke-width="5" stroke-linecap="square"></path>
                    <path d="M274.613821,110.208333 L193.069106,110.208333" id="Line-Copy-2" stroke="#979797" stroke-width="5" stroke-linecap="square"></path>
                    <path d="M241.036585,73.2013889 L173.882114,73.2013889" id="Line-Copy-3" stroke="#979797" stroke-width="5" stroke-linecap="square"></path>
                    <path d="M219.850949,52.2002315 L156.294038,52.2002315" id="Line-Copy-4" stroke="#979797" stroke-width="4" stroke-linecap="square"></path>
                    <path d="M190.271003,34.2000386 L129.112466,34.2000386" id="Line-Copy-5" stroke="#979797" stroke-width="4" stroke-linecap="square"></path>
                    <path d="M159.49187,19.2000386 L97.1341463,19.2000386" id="Line-Copy-6" stroke="#979797" stroke-width="3" stroke-linecap="square"></path>
                    <path d="M133.909214,8.20003858 L71.5514905,8.20003858" id="Line-Copy-7" stroke="#979797" stroke-width="3" stroke-linecap="square"></path>
                    <path d="M116.916293,291.13904 C113.467198,291.861472 110.178812,292.253399 107.122907,292.253399 C83.8471004,292.253399 61.466815,284.080828 43.9180873,244.67684 C26.3693595,205.272853 12.7218533,174.493855 6.6002041,151.147108 C0.478554871,127.80036 0.227112723,83.0108946 0.227112723,54.4238302 C0.227112723,36.0054135 -1.1319107,19.9222233 11.2615547,10.6625896 C14.1734275,8.48701766 19.3438925,6.50500011 24.8242675,5.03667904 C24.3487993,4.92288623 23.8722453,4.80940135 23.3946054,4.69622441 C38.9156779,1.77703483 52.1860209,0.317440044 63.2056342,0.317440044 C74.2252475,0.317440044 93.2548514,1.77703483 120.294446,4.69622441 C155.934048,14.6036472 193.03068,32.9065017 231.584342,59.604788 C289.414835,99.6522174 297.403378,136.078632 293.409106,189.440085 C289.414835,242.801538 255.882118,291.13904 231.584342,291.13904 L116.916293,291.13904 Z M141.021048,52.7867569 C131.422326,45.5855763 120.093899,38.8749226 107.035767,32.6547959 C118.562193,39.0933184 130.291419,46.0037005 141.021048,52.7867569 Z" id="Path-3" stroke="#000000" stroke-width="3"></path>
                </g>
            </g>
        </g>
    </g>
</svg>