<?xml version="1.0" encoding="UTF-8"?>
<svg width="304px" height="311px" viewBox="0 0 304 311" version="1.1" xmlns="http://www.w3.org/2000/svg" xmlns:xlink="http://www.w3.org/1999/xlink">
    <!-- Generator: Sketch 51.3 (57544) - http://www.bohemiancoding.com/sketch -->
    <title>AquaHead</title>
    <desc>Created with Sketch.</desc>
    <defs></defs>
    <g id="Aqua" stroke="none" stroke-width="1" fill="none" fill-rule="evenodd">
        <g id="Aquabot" transform="translate(-323.000000, -23.000000)">
            <g id="AquaHead" transform="translate(325.000000, 25.000000)">
                <ellipse id="Oval" fill="#CFFFF4" fill-rule="nonzero" cx="150" cy="153.5" rx="150" ry="153.5"></ellipse>
                <ellipse id="Oval" stroke="#000000" stroke-width="3" fill-rule="nonzero" cx="150" cy="153.5" rx="150" ry="153.5"></ellipse>
                <path d="M112,14.9280693 C126.446889,9.15318499 142.061849,6 158.355262,6 C232.443062,6 292.50309,71.1956652 292.50309,151.618594 C292.50309,161.802838 291.539964,171.742896 289.707189,181.337298 C274.715478,88.4408024 201.197299,17.4458413 112,14.9280693 Z" id="Combined-Shape" fill="#FFFFFF" fill-rule="nonzero"></path>
                <g id="Group-2" stroke-width="1" fill-rule="evenodd" transform="translate(147.929308, 192.880103) rotate(17.000000) translate(-147.929308, -192.880103) translate(84.929308, 111.880103)">
                    <path d="M115.671071,147.344073 C129.881826,127.306628 127.696036,93.5018317 115.671071,51.9281145 C103.646106,10.3543973 90.7249673,0 73.1949352,0 C55.664903,0 9.99751427,19.678351 3.05919374,31.8688116 C-3.87912679,44.0592721 1.64155309,74.9913168 13.0139038,98.963183 C24.3862546,122.935049 74.3908743,160.31205 84.3330942,160.31205 C94.275314,160.31205 101.460317,167.381518 115.671071,147.344073 Z" id="Path-3" stroke="#000000" stroke-width="3" fill="#6E6E6E" fill-rule="nonzero"></path>
                    <path d="M19.5676986,25.9401254 C23.2896404,18.8710825 33.8796306,13.7496754 43.758407,9.52375897 C59.6141711,2.74102284 78.7759498,0.874534501 86.748534,5.69796778 C92.433937,9.13765078 101.697158,18.282364 108.464901,35.0954247 C117.100358,56.5484357 122.794579,86.9600992 123.922057,95.8553328 C125.933156,111.7219 121.83624,129.961462 117.518997,134.920082 C113.201754,139.878702 105.832307,144.656601 99.9672832,144.656601 C94.1022594,144.656601 82.8525511,152.519198 48.8385432,107.685532 C14.8245353,62.8518657 7.18640358,49.4557825 19.5676986,25.9401254 Z" id="Path-4" fill="#9B9B9B" fill-rule="nonzero"></path>
                    <ellipse id="Oval" fill="#000000" fill-rule="nonzero" cx="48" cy="44.5" rx="7" ry="7.5"></ellipse>
                    <ellipse id="Oval-Copy-2" fill="#C5C5C5" fill-rule="nonzero" transform="translate(50.500000, 44.000000) rotate(-19.000000) translate(-50.500000, -44.000000) " cx="50.5" cy="44" rx="1.5" ry="3"></ellipse>
                    <ellipse id="Oval-Copy" fill="#000000" fill-rule="nonzero" transform="translate(93.417087, 31.018448) rotate(-26.000000) translate(-93.417087, -31.018448) " cx="93.4170872" cy="31.0184479" rx="5.00392404" ry="6.5"></ellipse>
                    <ellipse id="Oval-Copy" fill="#C5C5C5" fill-rule="nonzero" transform="translate(95.331580, 30.341781) rotate(-26.000000) translate(-95.331580, -30.341781) " cx="95.33158" cy="30.3417805" rx="1" ry="2.33013726"></ellipse>
                    <path d="M115.23214,109.497756 L115.23214,106.237757 C111.563112,109.726082 107.509149,112.155787 103.07025,113.526873 C95.328387,115.918177 85.8755389,117.228463 74.7117054,117.457732 L77.4815466,121.263229 C89.1818646,121.07553 98.4348097,119.807031 105.240382,117.457732 C110.230802,115.735028 113.561388,113.081703 115.23214,109.497756 Z" id="Path-5" stroke="#000000" fill="#6E6E6E" fill-rule="nonzero"></path>
                </g>
            </g>
        </g>
    </g>
</svg>