<?xml version="1.0" encoding="UTF-8"?>
<svg width="136px" height="519px" viewBox="0 0 136 519" version="1.1" xmlns="http://www.w3.org/2000/svg" xmlns:xlink="http://www.w3.org/1999/xlink">
    <!-- Generator: Sketch 51.3 (57544) - http://www.bohemiancoding.com/sketch -->
    <title>AquaArmLeft</title>
    <desc>Created with Sketch.</desc>
    <defs>
        <path d="M1.04313984,55.9005427 C0.361863465,52.3803105 0,48.6948378 0,44.8993711 C0,20.1021332 15.4461761,0 34.5,0 C53.5538239,0 69,20.1021332 69,44.8993711 C69,48.6948378 68.6381365,52.3803105 67.9568602,55.9005427 L68.311867,55.9005427 L51.6301894,230.762142 C43.8414242,235.02708 35.8586785,238.290568 27.6819523,240.552606 C19.5052262,242.814645 12.5668919,241.683626 6.86694936,237.159549 L0.675632516,55.9005427 L1.04313984,55.9005427 Z" id="path-1"></path>
        <path d="M1.78392031,60.2894283 C0.618838969,56.4928142 0,52.5179862 0,48.4245283 C0,21.6803998 26.4151998,0 59,0 C91.5848002,0 118,21.6803998 118,48.4245283 C118,52.5179862 117.381161,56.4928142 116.21608,60.2894283 L116.823193,60.2894283 L88.2951065,248.879831 C74.9751892,253.479619 61.3235371,256.999331 47.3401504,259.438968 C33.3567636,261.878605 21.4912064,260.658786 11.7434786,255.779513 L1.15542952,60.2894283 L1.78392031,60.2894283 Z" id="path-3"></path>
    </defs>
    <g id="Aqua" stroke="none" stroke-width="1" fill="none" fill-rule="evenodd">
        <g id="Aquabot" transform="translate(-231.000000, -314.000000)">
            <g id="aquabot-arm" transform="translate(288.000000, 568.500000) scale(-1, 1) translate(-288.000000, -568.500000) translate(201.000000, 304.000000)">
                <g id="Hand" transform="translate(69.000000, 420.000000)" fill-rule="nonzero">
                    <path d="M49.724264,7.24507168 C59.6737962,21.735215 69,32.3053196 69,48.7582275 C69,65.2111354 62.4965641,81.9797327 56.1104141,93.3390607 C49.724264,104.698389 36.1797221,109 30.092717,109 C26.0347135,109 22.2253386,106.019709 18.6645921,100.059127 C23.7601582,90.6387726 25.6393679,81.801757 24.3022211,73.5480806 C22.9650742,65.2944042 21.7232496,58.0404108 20.5767472,51.7861006 C18.1598675,53.5521311 16.2477124,57.0873949 14.8402819,62.3918918 C13.4328514,67.6963887 13.4328514,73.534355 14.8402819,79.9057906 C14.2411136,83.7178544 12.8881529,85.6238864 10.7813999,85.6238864 C8.67464687,85.6238864 6.37988503,83.7178544 3.89711436,79.9057906 C-0.387553919,65.3657774 -1.13914992,54.9832564 1.64232635,48.7582275 C4.42380261,42.5331986 9.48246981,31.2704074 16.8183279,14.969854 L45.8274738,7.24507168 C41.7923125,-2.41502389 43.0912426,-2.41502389 49.724264,7.24507168 Z" id="Path-12" fill="#000000"></path>
                    <path d="M46.7023104,20.3129528 C42.2436854,21.7694988 37.5792778,23.4596359 32.5168999,26.5883979 C27.4545221,29.71716 26.5,36.4956295 26.5,43.6844285 C26.5,50.8732275 38.1694353,75.2414824 45.5572194,78.8417525 C52.9450034,82.4420227 57.5519402,82.2251166 63.0017828,70.7742059 C68.4516253,59.3232951 69.439753,46.3336489 65.7504957,37.543082 C62.0612384,28.752515 62.7267879,27.2020382 58.4319239,22.4851034 C54.1370599,17.7681686 51.1609354,18.8564068 46.7023104,20.3129528 Z" id="Path-2" fill="#4A4A4A"></path>
                </g>
                <path d="M74.0431398,261.973719 C73.3618635,258.448879 73,254.758581 73,250.958146 C73,226.128448 88.4461761,206 107.5,206 C126.553824,206 142,226.128448 142,250.958146 C142,254.758581 141.638137,258.448879 140.95686,261.973719 L141.311867,261.973719 L124.630189,437.06422 C116.841424,441.33474 108.858678,444.6025 100.681952,446.8675 C92.5052262,449.1325 85.5668919,448 79.8669494,443.470001 L73.6756325,261.973719 L74.0431398,261.973719 Z" id="SteelArm" fill="#6E6E6E" fill-rule="nonzero"></path>
                <g id="Path-13" stroke-width="1" fill-rule="evenodd" transform="translate(73.000000, 206.000000)">
                    <mask id="mask-2" fill="white">
                        <use xlink:href="#path-1"></use>
                    </mask>
                    <use id="Mask" fill="#00A17D" fill-rule="nonzero" xlink:href="#path-1"></use>
                    <path d="M20.1090064,258.014441 C16.2358204,224.537775 10.666911,135.079416 10.666911,110.184453 C10.666911,85.2894894 9.59552224,24.8464146 17.2898665,11.6453381 C24.9842108,-1.55573838 42.0806027,4.27490426 55.0235629,11.6453381 C63.652203,16.5589607 70.3194785,47.3781912 75.0253895,104.10303 L59.494106,252.281602 C35.819497,278.421272 22.6911305,280.332218 20.1090064,258.014441 Z" fill="#8CE6D1" fill-rule="nonzero" mask="url(#mask-2)"></path>
                </g>
                <path d="M74.0431398,261.973719 C73.3618635,258.448879 73,254.758581 73,250.958146 C73,226.128448 88.4461761,206 107.5,206 C126.553824,206 142,226.128448 142,250.958146 C142,254.758581 141.638137,258.448879 140.95686,261.973719 L141.311867,261.973719 L124.630189,437.06422 C116.841424,441.33474 108.858678,444.6025 100.681952,446.8675 C92.5052262,449.1325 85.5668919,448 79.8669494,443.470001 L73.6756325,261.973719 L74.0431398,261.973719 Z" id="Border" stroke="#000000" stroke-width="3" fill-rule="nonzero"></path>
                <path d="M131.411657,246.271312 C135.401164,243.062653 133.525513,225.072901 129.189874,221.769382 C124.613818,218.282678 119.446596,216.200938 114.369639,216.199234 C110.733314,216.198013 104.800427,239.394477 108.873954,241.669752 C119.672522,247.701311 123.862375,247.522661 134.51406,243.255549" id="Path-14" fill="#C5C5C5" fill-rule="nonzero"></path>
                <path d="M29.7839203,70.3683497 C28.618839,66.5667657 28,62.5867345 28,58.4879181 C28,31.7087804 54.4151998,10 87,10 C119.5848,10 146,31.7087804 146,58.4879181 C146,62.5867345 145.381161,66.5667657 144.21608,70.3683497 L144.823193,70.3683497 L116.295107,259.205626 C102.975189,263.811435 89.3235371,267.335755 75.3401504,269.778585 C61.3567636,272.221415 49.4912064,271 39.7434786,266.11434 L29.1554295,70.3683497 L29.7839203,70.3683497 Z" id="SteelArm" fill="#6E6E6E" fill-rule="nonzero" transform="translate(87.000000, 140.500000) rotate(-13.000000) translate(-87.000000, -140.500000) "></path>
                <g id="Path-13" stroke-width="1" fill-rule="evenodd" transform="translate(87.000000, 140.500000) rotate(-13.000000) translate(-87.000000, -140.500000) translate(28.000000, 10.000000)">
                    <mask id="mask-4" fill="white">
                        <use xlink:href="#path-3"></use>
                    </mask>
                    <use id="Mask" fill="#00A17D" fill-rule="nonzero" xlink:href="#path-3"></use>
                    <path d="M34.3893153,278.271773 C27.7656058,242.166773 18.2419638,145.684824 18.2419638,118.835298 C18.2419638,91.9857716 16.4097337,26.7971662 29.5681775,12.5596415 C42.7266214,-1.67788313 71.9639293,4.61053724 94.098267,12.5596415 C108.854492,17.8590444 120.2565,51.0979665 128.304289,112.276408 L101.743544,272.088836 C61.2565311,300.280793 38.8051217,302.341772 34.3893153,278.271773 Z" fill="#8CE6D1" fill-rule="nonzero" mask="url(#mask-4)"></path>
                </g>
                <path d="M29.7839203,70.3683497 C28.618839,66.5667657 28,62.5867345 28,58.4879181 C28,31.7087804 54.4151998,10 87,10 C119.5848,10 146,31.7087804 146,58.4879181 C146,62.5867345 145.381161,66.5667657 144.21608,70.3683497 L144.823193,70.3683497 L116.295107,259.205626 C102.975189,263.811435 89.3235371,267.335755 75.3401504,269.778585 C61.3567636,272.221415 49.4912064,271 39.7434786,266.11434 L29.1554295,70.3683497 L29.7839203,70.3683497 Z" id="Border" stroke="#000000" stroke-width="3" fill-rule="nonzero" transform="translate(87.000000, 140.500000) rotate(-13.000000) translate(-87.000000, -140.500000) "></path>
                <path d="M104.075322,50.8831298 C110.897956,47.4225516 107.690322,28.0203812 100.275751,24.4574947 C92.4500309,20.6970408 83.6133325,18.4518588 74.9309997,18.4500208 C68.7123582,18.4487044 58.5662609,43.466378 65.532582,45.9202908 C83.9996985,52.4254019 91.164955,52.2327254 109.38088,47.6305919" id="Path-14" fill="#CFFFF4" fill-rule="nonzero" transform="translate(86.281901, 34.705105) rotate(-13.000000) translate(-86.281901, -34.705105) "></path>
            </g>
        </g>
    </g>
</svg>