<?xml version="1.0" encoding="UTF-8"?>
<svg width="327px" height="495px" viewBox="0 0 327 495" version="1.1" xmlns="http://www.w3.org/2000/svg" xmlns:xlink="http://www.w3.org/1999/xlink">
    <!-- Generator: Sketch 51.3 (57544) - http://www.bohemiancoding.com/sketch -->
    <title>AquaTorso</title>
    <desc>Created with Sketch.</desc>
    <defs>
        <path d="M233.839844,13.2788044 C194.765625,3.06005444 176.730469,-1.17808448 134.921875,1.6328125 C107.049479,3.50674382 87.9817708,7.38874114 77.71875,13.2788044 C60.0390625,17.283039 40.1992187,43.9726563 18.1992187,93.3476563 C-14.8007813,167.410156 5.08203125,279.042969 18.1992187,312.53125 C26.9440104,334.856771 22.7539062,380.019531 5.62890625,448.019531 C3.82161458,462.02474 27.8515625,473.075521 77.71875,481.171875 C152.519531,493.316406 171.046875,496.867188 233.839844,481.171875 C275.701823,470.708333 303.200521,456.614583 316.335937,438.890625 C287.291667,393.104167 276.130208,347.380208 282.851562,301.71875 C292.933594,233.226563 339.738281,152.65625 316.335937,93.3476563 C292.933594,34.0390625 272.914062,23.4975544 233.839844,13.2788044 Z" id="path-1"></path>
    </defs>
    <g id="Aqua" stroke="none" stroke-width="1" fill="none" fill-rule="evenodd">
        <g id="Aquabot" transform="translate(-306.000000, -287.000000)">
            <g id="Aqua-body" transform="translate(308.000000, 288.000000)">
                <g stroke-width="1" fill-rule="evenodd">
                    <path d="M233.839844,13.2788044 C194.765625,3.06005444 176.730469,-1.17808448 134.921875,1.6328125 C107.049479,3.50674382 87.9817708,7.38874114 77.71875,13.2788044 C60.0390625,17.283039 40.1992188,43.9726563 18.1992188,93.3476563 C-14.8007812,167.410156 5.08203125,279.042969 18.1992188,312.53125 C26.9440104,334.856771 22.7539062,380.019531 5.62890625,448.019531 C3.82161458,462.02474 27.8515625,473.075521 77.71875,481.171875 C152.519531,493.316406 171.046875,496.867188 233.839844,481.171875 C275.701823,470.708333 303.200521,456.614583 316.335938,438.890625 C287.291667,393.104167 276.130208,347.380208 282.851562,301.71875 C292.933594,233.226563 339.738281,152.65625 316.335938,93.3476563 C292.933594,34.0390625 272.914062,23.4975544 233.839844,13.2788044 Z" id="Path-2" fill="#8CE6D1" fill-rule="nonzero"></path>
                    <mask id="mask-2" fill="white">
                        <use xlink:href="#path-1"></use>
                    </mask>
                    <use id="Mask" fill="#8CE6D1" fill-rule="nonzero" xlink:href="#path-1"></use>
                    <path d="M239.699806,-1.87032228 C286.496681,39.0359277 312.22715,66.711709 312.22715,111.766396 C312.22715,156.821084 276.91465,206.696084 223.609962,222.227334 C170.305275,237.758584 111.516212,243.746865 82.2896499,204.789834 C53.0630874,165.832803 6.2349624,99.2038965 44.2623061,33.539834 C82.2896499,-32.1242285 192.902931,-42.7765723 239.699806,-1.87032228 Z" id="Path-4" fill="#CFFFF4" fill-rule="nonzero" mask="url(#mask-2)"></path>
                    <path d="M243.414895,415.71427 C291.040834,445.74469 317.22715,466.062254 317.22715,499.138158 C317.22715,532.214062 281.289046,568.828692 227.04,580.230616 C172.790955,591.63254 112.960372,596.028705 83.2160252,567.429261 C53.4716783,538.829816 5.81393562,489.915676 44.5149804,441.709854 C83.2160252,393.504033 195.788956,385.68385 243.414895,415.71427 Z" id="Path-4-Copy" fill="#CFFFF4" fill-rule="nonzero" mask="url(#mask-2)"></path>
                    <path d="M314.226562,373 C243.410156,399.066406 231.40625,410.941406 161.675781,410.941406 C91.9453125,410.941406 28.7109375,399.636719 -7,378.972656" id="Path-3" stroke="#00A17D" stroke-width="3" fill-rule="nonzero" mask="url(#mask-2)"></path>
                    <path d="M314.226562,312 C243.410156,338.066406 231.40625,349.941406 161.675781,349.941406 C91.9453125,349.941406 28.7109375,338.636719 -7,317.972656" id="Path-3-Copy" stroke="#00A17D" stroke-width="3" fill-rule="nonzero" mask="url(#mask-2)"></path>
                    <path d="M317.226562,255 C246.410156,266.639041 234.40625,271.941406 164.675781,271.941406 C94.9453125,271.941406 31.7109375,266.893694 -4,257.66688" id="Path-3-Copy-2" stroke="#00A17D" stroke-width="3" fill-rule="nonzero" mask="url(#mask-2)"></path>
                    <path d="M418,184 C310.196889,195.639041 291.923462,200.941406 185.773464,200.941406 C79.6234647,200.941406 -16.6375952,195.893694 -71,186.66688" id="Path-3-Copy-3" stroke="#00A17D" stroke-width="3" fill-rule="nonzero" mask="url(#mask-2)"></path>
                    <path d="M410,127 C302.196889,138.639041 283.923462,143.941406 177.773464,143.941406 C71.6234647,143.941406 -24.6375952,138.893694 -79,129.66688" id="Path-3-Copy-4" stroke="#00A17D" stroke-width="3" fill-rule="nonzero" mask="url(#mask-2)" transform="translate(165.500000, 135.470703) scale(1, -1) translate(-165.500000, -135.470703) "></path>
                    <path d="M398,66 C296.149208,92.0664062 278.884744,103.941406 178.595788,103.941406 C78.3068317,103.941406 -12.6392003,92.6367187 -64,71.9726562" id="Path-3-Copy-5" stroke="#00A17D" stroke-width="3" fill-rule="nonzero" mask="url(#mask-2)" transform="translate(167.000000, 84.970703) scale(1, -1) translate(-167.000000, -84.970703) "></path>
                </g>
                <path d="M233.839844,13.2788044 C194.765625,3.06005444 176.730469,-1.17808448 134.921875,1.6328125 C107.049479,3.50674382 87.9817708,7.38874114 77.71875,13.2788044 C60.0390625,17.283039 40.1992187,43.9726563 18.1992187,93.3476563 C-14.8007813,167.410156 5.08203125,279.042969 18.1992187,312.53125 C26.9440104,334.856771 22.7539062,380.019531 5.62890625,448.019531 C3.82161458,462.02474 27.8515625,473.075521 77.71875,481.171875 C152.519531,493.316406 171.046875,496.867188 233.839844,481.171875 C275.701823,470.708333 303.200521,456.614583 316.335937,438.890625 C287.291667,393.104167 276.130208,347.380208 282.851562,301.71875 C292.933594,233.226563 339.738281,152.65625 316.335937,93.3476563 C292.933594,34.0390625 272.914062,23.4975544 233.839844,13.2788044 Z" id="Path-2" stroke="#000000" stroke-width="3" fill-rule="nonzero"></path>
            </g>
        </g>
    </g>
</svg>