<?xml version="1.0" encoding="UTF-8"?>
<svg width="338px" height="709px" viewBox="0 0 338 709" version="1.1" xmlns="http://www.w3.org/2000/svg" xmlns:xlink="http://www.w3.org/1999/xlink">
    <!-- Generator: Sketch 51.3 (57544) - http://www.bohemiancoding.com/sketch -->
    <title>LegsAquaTail</title>
    <desc>Created with Sketch.</desc>
    <defs>
        <path d="M151.921875,573 C239.459008,573 310.421875,345.756573 310.421875,65.4375996 C273.417969,5.46051933 258.638695,0 171.101562,0 C83.5644297,0 61.3320312,6.49599413 0,71.9335938 C0,352.252567 64.3847422,573 151.921875,573 Z" id="path-1"></path>
    </defs>
    <g id="Aqua-Fish" stroke="none" stroke-width="1" fill="none" fill-rule="evenodd">
        <g id="AquabotFish" transform="translate(-313.000000, -663.000000)">
            <g id="LegsAquabot" transform="translate(315.000000, 665.000000)">
                <path d="M26.7756813,663 C12.4081062,603.744831 12.4081062,558.335429 26.7756813,526.771793 C41.1432563,495.208157 66.7444863,478.950893 103.579372,478 C104.591838,498.831115 107.344606,515.088379 111.837674,526.771793 C116.330742,538.455207 128.890059,549.755979 149.515625,560.67411 C117.786733,563.720964 95.5341287,569.951024 82.7578125,579.364289 C63.5933382,593.484187 50.6582783,597.913118 44.3175567,617.472807 C40.0904089,630.512599 34.2431171,645.68833 26.7756813,663 Z" id="Path-2-Copy" fill="#CFFFF4" fill-rule="nonzero"></path>
                <path d="M151.921875,573 C239.459008,573 310.421875,345.756573 310.421875,65.4375996 C273.417969,5.46051933 258.638695,0 171.101562,0 C83.5644297,0 61.3320312,6.49599413 0,71.9335938 C0,352.252567 64.3847422,573 151.921875,573 Z" id="Oval" fill="#8CE6D1" fill-rule="nonzero"></path>
                <path d="M32,117.204915 C68.4713984,125.331643 110.395786,129.956232 154.994284,129.956232 C203.481462,129.956232 248.807872,124.49002 287.402515,115 C286.380785,263.351651 228.388428,382.956232 156.998909,382.956232 C85.404967,382.956232 32.6326876,266.104328 32.0000341,117.204923 Z" id="Combined-Shape" fill="#CFFFF4" fill-rule="nonzero"></path>
                <g id="Path-3-+-Path-3-Copy-+-Path-3-Copy-2-+-Path-3-Copy-3-+-Path-3-Copy-4-+-Path-3-Copy-5-Mask" stroke-width="1" fill-rule="evenodd">
                    <mask id="mask-2" fill="white">
                        <use xlink:href="#path-1"></use>
                    </mask>
                    <use id="Mask" fill="#8CE6D1" fill-rule="nonzero" xlink:href="#path-1"></use>
                    <path d="M327.765625,134 C289.054688,173.335938 235.842448,193.003906 168.128906,193.003906 C100.415365,193.003906 35.3723958,176.597656 -27,143.785156" id="Path-3" stroke="#00A17D" stroke-width="3" fill-rule="nonzero" mask="url(#mask-2)"></path>
                    <path d="M331.765625,193 C293.054688,232.335938 239.842448,252.003906 172.128906,252.003906 C104.415365,252.003906 39.3723958,235.597656 -23,202.785156" id="Path-3-Copy" stroke="#00A17D" stroke-width="3" fill-rule="nonzero" mask="url(#mask-2)"></path>
                    <path d="M336.765625,249 C298.054688,288.335938 244.842448,308.003906 177.128906,308.003906 C109.415365,308.003906 44.3723958,291.597656 -18,258.785156" id="Path-3-Copy-2" stroke="#00A17D" stroke-width="3" fill-rule="nonzero" mask="url(#mask-2)"></path>
                    <path d="M336.765625,308 C298.054688,347.335938 244.842448,367.003906 177.128906,367.003906 C109.415365,367.003906 44.3723958,350.597656 -18,317.785156" id="Path-3-Copy-3" stroke="#00A17D" stroke-width="3" fill-rule="nonzero" mask="url(#mask-2)"></path>
                    <path d="M336.765625,356 C298.054688,395.335938 244.842448,415.003906 177.128906,415.003906 C109.415365,415.003906 44.3723958,398.597656 -18,365.785156" id="Path-3-Copy-4" stroke="#00A17D" stroke-width="3" fill-rule="nonzero" mask="url(#mask-2)"></path>
                    <path d="M336.765625,402 C298.054688,441.335938 244.842448,461.003906 177.128906,461.003906 C109.415365,461.003906 44.3723958,444.597656 -18,411.785156" id="Path-3-Copy-5" stroke="#00A17D" stroke-width="3" fill-rule="nonzero" mask="url(#mask-2)"></path>
                </g>
                <path d="M331.152344,704.582031 C337.558594,627.236175 331.264323,570.409491 312.269531,534.101979 C293.27474,497.794467 259.428385,479.093808 210.730469,478 C209.391927,501.96194 205.752604,520.662599 199.8125,534.101979 C193.872396,547.541359 177.268229,560.540588 150,573.099666 C191.947489,576.604449 221.36676,583.770859 238.257812,594.598896 C263.594391,610.840953 280.695312,615.935534 289.078125,638.434957 C294.666667,653.434573 308.691406,675.483598 331.152344,704.582031 Z" id="Path-2" fill="#CFFFF4" fill-rule="nonzero"></path>
                <g id="Aqua-Legs" stroke-width="1" fill-rule="evenodd" stroke="#000000">
                    <path d="M64.5818375,486.577446 C24.8161235,397.035743 0,245.965142 0,71.9335938 C61.3320312,6.49599413 83.5644297,0 171.101562,0 C258.638695,0 273.417969,5.46051933 310.421875,65.4375996 C310.421875,237.712867 283.619577,389.941782 242.639627,481.696613 C274.534264,488.869204 297.744232,506.337659 312.269531,534.101979 C331.264323,570.409491 337.558594,627.236175 331.152344,704.582031 C308.691406,675.483598 294.666667,653.434573 289.078125,638.434957 C280.695312,615.935534 263.594391,610.840953 238.257812,594.598896 C221.36676,583.770859 191.947489,576.604449 150,573.099666 C150.091054,573.057729 150.18199,573.015786 150.272806,572.973839 C140.76399,572.671866 131.533282,569.759681 122.634064,564.445957 C104.848134,567.909194 91.5560496,572.881971 82.7578125,579.364289 C63.5933382,593.484187 50.6582783,597.913118 44.3175567,617.472807 C40.0904089,630.512599 34.2431171,645.68833 26.7756813,663 C12.4081062,603.744831 12.4081062,558.335429 26.7756813,526.771793 C35.3638952,507.904638 47.9659473,494.506522 64.5818375,486.577446 Z" id="Combined-Shape" stroke-width="3" fill-rule="nonzero"></path>
                </g>
            </g>
        </g>
    </g>
</svg>