<?xml version="1.0" encoding="UTF-8"?>
<svg width="228px" height="296px" viewBox="0 0 228 296" version="1.1" xmlns="http://www.w3.org/2000/svg" xmlns:xlink="http://www.w3.org/1999/xlink">
    <!-- Generator: Sketch 51.3 (57544) - http://www.bohemiancoding.com/sketch -->
    <title>BasicHead</title>
    <desc>Created with Sketch.</desc>
    <defs></defs>
    <g id="Basic-Silver" stroke="none" stroke-width="1" fill="none" fill-rule="evenodd">
        <g id="Head" transform="translate(2.000000, -20.000000)">
            <g id="Group" stroke-width="1" fill-rule="evenodd" transform="translate(68.000000, 22.000000)">
                <path d="M110,17.0794353 C110,35.9152174 108.66472,41.3905581 95.946222,46.3015879 C87.4672231,49.5756078 61.7705436,55.9812989 18.8561834,65.5186611 C6.59307893,67.4200329 0.461526674,63.8587737 0.461526674,54.8348835 C0.461526674,41.2990482 -4.60798218,26.3486228 18.8561834,17.0794353 C34.4989605,10.899977 60.19564,5.26703593 95.946222,0.18061218 C105.315407,-1.1106938 110,4.52224724 110,17.0794353 Z" id="Path-2" stroke="#000000" stroke-width="3" fill-rule="nonzero"></path>
                <rect id="Rectangle" fill="#000000" fill-rule="nonzero" x="41" y="51" width="19" height="62" rx="5"></rect>
            </g>
            <path d="M163.242907,304.040945 C188.708516,276.769403 204.786454,250.590819 211.476721,225.505192 C221.512121,187.876753 224.332861,149.304046 211.476721,134.395105 C198.62058,119.486164 178.169333,106.247987 136.32256,102.19825 C94.4757865,98.1485131 33.5682924,104.114222 13.9562346,123.916658 C-5.65582321,143.719095 -2.95701398,189.466348 11.8910058,211.285276 C16.8406463,218.558694 53.6913968,276.049935 66.2494709,287.133695 C91.3633315,309.299198 79.0474923,300.766337 112.018047,310.701062 C133.049191,317.03819 150.124144,314.818151 163.242907,304.040945 Z" id="Path" fill="#6E6E6E" fill-rule="nonzero"></path>
            <path d="M159.377553,306.893551 C154.34794,306.399882 149.049395,305.347755 143.481919,303.73717 C109.491834,293.90436 122.18851,302.349686 96.2980668,280.411569 C83.3516663,269.441512 45.3614003,212.540046 40.2587049,205.341243 C24.9515479,183.746144 22.1692849,138.46819 42.3877955,118.868897 C47.4024764,114.007797 53.2811609,109.389826 59.9449969,105.25457 C84.466862,100.774842 113.283495,99.968636 136.32256,102.19825 C178.169333,106.247987 198.62058,119.486164 211.476721,134.395105 C224.332861,149.304046 221.512121,187.876753 211.476721,225.505192 C204.786454,250.590819 188.708516,276.769403 163.242907,304.040945 C161.990511,305.069801 160.70206,306.02067 159.377553,306.893551 Z" id="Combined-Shape" fill="#9B9B9B" fill-rule="nonzero"></path>
            <path d="M163.242907,304.040945 C188.708516,276.769403 204.786454,250.590819 211.476721,225.505192 C221.512121,187.876753 224.332861,149.304046 211.476721,134.395105 C198.62058,119.486164 178.169333,106.247987 136.32256,102.19825 C94.4757865,98.1485131 33.5682924,104.114222 13.9562346,123.916658 C-5.65582321,143.719095 -2.95701398,189.466348 11.8910058,211.285276 C16.8406463,218.558694 53.6913968,276.049935 66.2494709,287.133695 C91.3633315,309.299198 79.0474923,300.766337 112.018047,310.701062 C133.049191,317.03819 150.124144,314.818151 163.242907,304.040945 Z" id="Path" stroke="#000000" stroke-width="3" fill-rule="nonzero"></path>
            <g id="Left-Eye" transform="translate(53.000000, 113.000000)" fill-rule="nonzero">
                <ellipse id="Oval" fill="#000000" cx="41" cy="55.5" rx="41" ry="42.5"></ellipse>
                <path d="M16.3097036,21.5673943 C23.1775238,16.1893955 31.729446,13 41,13 C63.6436747,13 82,32.0278981 82,55.5 C82,63.1104416 80.070248,70.2536759 76.6902964,76.4326057 C69.8224762,81.8106045 61.270554,85 52,85 C29.3563253,85 11,65.9721019 11,42.5 C11,34.8895584 12.929752,27.7463241 16.3097036,21.5673943 Z" id="Combined-Shape" fill="#4A4A4A"></path>
                <ellipse id="Oval" stroke="#000000" stroke-width="3" cx="41" cy="55.5" rx="41" ry="42.5"></ellipse>
            </g>
            <g id="Right-eye" transform="translate(155.000000, 137.000000)" fill-rule="nonzero">
                <ellipse id="Oval-Copy" fill="#000000" cx="34.5" cy="38" rx="34.5" ry="38"></ellipse>
                <path d="M13.1278413,8.16763031 C19.0045786,3.0529442 26.4286006,0 34.5,0 C53.5538239,0 69,17.0131795 69,38 C69,43.6503121 67.8803751,49.0125926 65.8721587,53.8323697 C59.9954214,58.9470558 52.5713994,62 44.5,62 C25.4461761,62 10,44.9868205 10,24 C10,18.3496879 11.1196249,12.9874074 13.1278413,8.16763031 Z" id="Combined-Shape" fill="#4A4A4A"></path>
                <ellipse id="Oval-Copy" stroke="#000000" stroke-width="3" cx="34.5" cy="38" rx="34.5" ry="38"></ellipse>
            </g>
            <g id="Mouth" transform="translate(119.000000, 228.000000)" fill-rule="nonzero">
                <circle id="Oval" fill="#C5C5C5" cx="32" cy="32" r="32"></circle>
                <circle id="Oval" stroke="#000000" stroke-width="3" cx="32" cy="32" r="32"></circle>
                <path d="M26.6381831,10.1846948 C24.5068735,14.9643957 27.9773645,19.7968105 33.1408902,19.4804734 C38.3044158,19.1641363 38.5912083,13.2312287 38.1339064,11.8864535 C35.9569781,5.48481934 28.5640564,5.86570788 26.6381831,10.1846948 Z" id="Path-2" fill="#4A4A4A"></path>
                <path d="M7.63818312,25.1846948 C5.5068735,29.9643957 8.9773645,34.7968105 14.1408902,34.4804734 C19.3044158,34.1641363 19.5912083,28.2312287 19.1339064,26.8864535 C16.9569781,20.4848193 9.56405642,20.8657079 7.63818312,25.1846948 Z" id="Path-2-Copy" fill="#4A4A4A"></path>
                <path d="M19.6381831,45.1846948 C17.5068735,49.9643957 20.9773645,54.7968105 26.1408902,54.4804734 C31.3044158,54.1641363 31.5912083,48.2312287 31.1339064,46.8864535 C28.9569781,40.4848193 21.5640564,40.8657079 19.6381831,45.1846948 Z" id="Path-2-Copy-2" fill="#4A4A4A"></path>
                <path d="M42.6381831,39.1846948 C40.5068735,43.9643957 43.9773645,48.7968105 49.1408902,48.4804734 C54.3044158,48.1641363 54.5912083,42.2312287 54.1339064,40.8864535 C51.9569781,34.4848193 44.5640564,34.8657079 42.6381831,39.1846948 Z" id="Path-2-Copy-3" fill="#4A4A4A"></path>
                <path d="M44.6381831,19.1846948 C42.5068735,23.9643957 45.9773645,28.7968105 51.1408902,28.4804734 C56.3044158,28.1641363 56.5912083,22.2312287 56.1339064,20.8864535 C53.9569781,14.4848193 46.5640564,14.8657079 44.6381831,19.1846948 Z" id="Path-2-Copy-4" fill="#4A4A4A"></path>
            </g>
        </g>
    </g>
</svg>