<?xml version="1.0" encoding="UTF-8"?>
<svg width="330px" height="468px" viewBox="0 0 330 468" version="1.1" xmlns="http://www.w3.org/2000/svg" xmlns:xlink="http://www.w3.org/1999/xlink">
    <!-- Generator: Sketch 51.3 (57544) - http://www.bohemiancoding.com/sketch -->
    <title>BasicTorso</title>
    <desc>Created with Sketch.</desc>
    <defs></defs>
    <g id="Basic-Silver" stroke="none" stroke-width="1" fill="none" fill-rule="evenodd">
        <g id="SilverTorso" transform="translate(2.000000, 2.000000)">
            <g>
                <path d="M185.17184,464.14954 C109.852324,464.14954 91.3063196,455.267052 52.7317401,435.323338 C27.0153537,422.027528 9.43810705,402.053301 2.34827323e-14,375.400658 C7.01759218,290.945951 10.5263883,221.911484 10.5263883,168.297257 C10.5263883,114.683031 7.01759218,65.1574758 0,19.7205917 C31.7993556,6.57353057 80.2175735,1.80716221e-14 145.254653,0 C210.291734,0 263.142282,11.585204 303.806298,34.755612 C318.728582,97.0201241 326.189724,149.585484 326.189724,192.451693 C326.189724,256.751005 326.189724,362.133454 312.469777,422.496657 C292.576566,440.472317 260.491356,464.14954 185.17184,464.14954 Z" id="back" fill="#6E6E6E" fill-rule="nonzero"></path>
                <path d="M49.5266863,433.608371 C65.5063586,381.685827 73.4961948,320.058929 73.4961948,248.727677 C73.4961948,136.758575 70.1873499,59.3020899 54.466193,5.74548616 C79.8871989,1.91516205 110.150019,9.75439992e-15 145.254653,0 C201.015664,0 247.818504,8.51614183 285.663173,25.5484255 C299.84575,56.2308711 308.863954,85.0364155 312.717785,111.965059 C320.498465,166.332562 325.498465,230.157024 317.717785,333.228153 C314.375748,377.500312 309.649166,409.798138 303.53804,430.12163 C282.985132,446.50936 250.183857,464.14954 185.17184,464.14954 C109.852324,464.14954 91.3063196,455.267052 52.7317401,435.323338 C51.6489597,434.763522 50.5806084,434.191866 49.5266863,433.608371 Z" id="highlight" fill="#9B9B9B" fill-rule="nonzero"></path>
                <path d="M185.17184,464.14954 C109.852324,464.14954 91.3063196,455.267052 52.7317401,435.323338 C27.0153537,422.027528 9.43810705,402.053301 2.34827323e-14,375.400658 C7.01759218,290.945951 10.5263883,221.911484 10.5263883,168.297257 C10.5263883,114.683031 7.01759218,65.1574758 0,19.7205917 C31.7993556,6.57353057 80.2175735,1.80716221e-14 145.254653,0 C210.291734,0 263.142282,11.585204 303.806298,34.755612 C318.728582,97.0201241 326.189724,149.585484 326.189724,192.451693 C326.189724,256.751005 326.189724,362.133454 312.469777,422.496657 C292.576566,440.472317 260.491356,464.14954 185.17184,464.14954 Z" id="outline" stroke="#000000" stroke-width="3" fill-rule="nonzero"></path>
            </g>
        </g>
    </g>
</svg>