<?xml version="1.0" encoding="UTF-8"?>
<svg width="136px" height="523px" viewBox="0 0 136 523" version="1.1" xmlns="http://www.w3.org/2000/svg" xmlns:xlink="http://www.w3.org/1999/xlink">
    <!-- Generator: Sketch 51.3 (57544) - http://www.bohemiancoding.com/sketch -->
    <title>BasicArmLeft</title>
    <desc>Created with Sketch.</desc>
    <defs>
        <path d="M1.04313984,55.9005427 C0.361863465,52.3803105 0,48.6948378 0,44.8993711 C0,20.1021332 15.4461761,0 34.5,0 C53.5538239,0 69,20.1021332 69,44.8993711 C69,48.6948378 68.6381365,52.3803105 67.9568602,55.9005427 L68.311867,55.9005427 L51.6301894,230.762142 C43.8414242,235.02708 35.8586785,238.290568 27.6819523,240.552606 C19.5052262,242.814645 12.5668919,241.683626 6.86694936,237.159549 L0.675632516,55.9005427 L1.04313984,55.9005427 Z" id="path-1"></path>
        <path d="M1.78392031,60.2894283 C0.618838969,56.4928142 0,52.5179862 0,48.4245283 C0,21.6803998 26.4151998,0 59,0 C91.5848002,0 118,21.6803998 118,48.4245283 C118,52.5179862 117.381161,56.4928142 116.21608,60.2894283 L116.823193,60.2894283 L88.2951065,248.879831 C74.9751892,253.479619 61.3235371,256.999331 47.3401504,259.438968 C33.3567636,261.878605 21.4912064,260.658786 11.7434786,255.779513 L1.15542952,60.2894283 L1.78392031,60.2894283 Z" id="path-3"></path>
    </defs>
    <g id="Basic-Silver" stroke="none" stroke-width="1" fill="none" fill-rule="evenodd">
        <g id="SilverArm" transform="translate(49.500000, 256.500000) scale(-1, 1) translate(-49.500000, -256.500000) translate(-46.000000, -10.000000)">
            <path d="M118.724264,431.245072 C128.673796,445.735215 138,456.30532 138,472.758228 C138,489.211135 131.496564,505.979733 125.110414,517.339061 C118.724264,528.698389 105.179722,533 99.092717,533 C95.0347135,533 91.2253386,530.019709 87.6645921,524.059127 C92.7601582,514.638773 94.6393679,505.801757 93.3022211,497.548081 C91.9650742,489.294404 90.7232496,482.040411 89.5767472,475.786101 C87.1598675,477.552131 85.2477124,481.087395 83.8402819,486.391892 C82.4328514,491.696389 82.4328514,497.534355 83.8402819,503.905791 C83.2411136,507.717854 81.8881529,509.623886 79.7813999,509.623886 C77.6746469,509.623886 75.379885,507.717854 72.8971144,503.905791 C68.6124461,489.365777 67.8608501,478.983256 70.6423263,472.758228 C73.4238026,466.533199 78.4824698,455.270407 85.8183279,438.969854 L114.827474,431.245072 C110.792313,421.584976 112.091243,421.584976 118.724264,431.245072 Z" id="Path-12" fill="#000000" fill-rule="nonzero"></path>
            <g id="SteelArmUpper" transform="translate(74.000000, 206.000000)">
                <path d="M1.04313984,55.9737189 C0.361863465,52.4488786 0,48.7585814 0,44.9581463 C0,20.1284477 15.4461761,0 34.5,0 C53.5538239,0 69,20.1284477 69,44.9581463 C69,48.7585814 68.6381365,52.4488786 67.9568602,55.9737189 L68.311867,55.9737189 L51.6301894,231.06422 C43.8414242,235.33474 35.8586785,238.6025 27.6819523,240.8675 C19.5052262,243.1325 12.5668919,242 6.86694936,237.470001 L0.675632516,55.9737189 L1.04313984,55.9737189 Z" id="SteelArm" fill="#6E6E6E" fill-rule="nonzero"></path>
                <g id="Path-13" stroke-width="1" fill-rule="evenodd">
                    <mask id="mask-2" fill="white">
                        <use xlink:href="#path-1"></use>
                    </mask>
                    <g id="Mask" fill-rule="nonzero"></g>
                    <path d="M20.1090064,258.014441 C16.2358204,224.537775 10.666911,135.079416 10.666911,110.184453 C10.666911,85.2894894 9.59552224,24.8464146 17.2898665,11.6453381 C24.9842108,-1.55573838 42.0806027,4.27490426 55.0235629,11.6453381 C63.652203,16.5589607 70.3194785,47.3781912 75.0253895,104.10303 L59.494106,252.281602 C35.819497,278.421272 22.6911305,280.332218 20.1090064,258.014441 Z" fill="#9B9B9B" fill-rule="nonzero" mask="url(#mask-2)"></path>
                </g>
                <path d="M1.04313984,55.9737189 C0.361863465,52.4488786 0,48.7585814 0,44.9581463 C0,20.1284477 15.4461761,0 34.5,0 C53.5538239,0 69,20.1284477 69,44.9581463 C69,48.7585814 68.6381365,52.4488786 67.9568602,55.9737189 L68.311867,55.9737189 L51.6301894,231.06422 C43.8414242,235.33474 35.8586785,238.6025 27.6819523,240.8675 C19.5052262,243.1325 12.5668919,242 6.86694936,237.470001 L0.675632516,55.9737189 L1.04313984,55.9737189 Z" id="Border" stroke="#000000" stroke-width="3" fill-rule="nonzero"></path>
                <path d="M58.4116573,40.2713118 C62.401164,37.062653 60.5255133,19.0729011 56.1898744,15.7693819 C51.6138179,12.2826775 46.4465959,10.2009378 41.3696386,10.1992337 C37.7333143,10.1980132 31.8004269,33.3944768 35.8739537,35.6697522 C46.6725218,41.7013112 50.8623751,41.522661 61.5140601,37.2555486" id="Path-14" fill="#C5C5C5" fill-rule="nonzero"></path>
            </g>
            <g id="SteelArmUpper" transform="translate(88.000000, 140.500000) rotate(-13.000000) translate(-88.000000, -140.500000) translate(29.000000, 10.000000)">
                <path d="M1.78392031,60.3683497 C0.618838969,56.5667657 0,52.5867345 0,48.4879181 C0,21.7087804 26.4151998,0 59,0 C91.5848002,0 118,21.7087804 118,48.4879181 C118,52.5867345 117.381161,56.5667657 116.21608,60.3683497 L116.823193,60.3683497 L88.2951065,249.205626 C74.9751892,253.811435 61.3235371,257.335755 47.3401504,259.778585 C33.3567636,262.221415 21.4912064,261 11.7434786,256.11434 L1.15542952,60.3683497 L1.78392031,60.3683497 Z" id="SteelArm" fill="#6E6E6E" fill-rule="nonzero"></path>
                <g id="Path-13" stroke-width="1" fill-rule="evenodd">
                    <mask id="mask-4" fill="white">
                        <use xlink:href="#path-3"></use>
                    </mask>
                    <g id="Mask" fill-rule="nonzero"></g>
                    <path d="M34.3893153,278.271773 C27.7656058,242.166773 18.2419638,145.684824 18.2419638,118.835298 C18.2419638,91.9857716 16.4097337,26.7971662 29.5681775,12.5596415 C42.7266214,-1.67788313 71.9639293,4.61053724 94.098267,12.5596415 C108.854492,17.8590444 120.2565,51.0979665 128.304289,112.276408 L101.743544,272.088836 C61.2565311,300.280793 38.8051217,302.341772 34.3893153,278.271773 Z" fill="#9B9B9B" fill-rule="nonzero" mask="url(#mask-4)"></path>
                </g>
                <path d="M1.78392031,60.3683497 C0.618838969,56.5667657 0,52.5867345 0,48.4879181 C0,21.7087804 26.4151998,0 59,0 C91.5848002,0 118,21.7087804 118,48.4879181 C118,52.5867345 117.381161,56.5667657 116.21608,60.3683497 L116.823193,60.3683497 L88.2951065,249.205626 C74.9751892,253.811435 61.3235371,257.335755 47.3401504,259.778585 C33.3567636,262.221415 21.4912064,261 11.7434786,256.11434 L1.15542952,60.3683497 L1.78392031,60.3683497 Z" id="Border" stroke="#000000" stroke-width="3" fill-rule="nonzero"></path>
                <path d="M99.8923994,43.433109 C106.715034,39.9725308 103.5074,20.5703603 96.0928288,17.0074739 C88.2671088,13.2470199 79.4304104,11.0018379 70.7480776,11 C64.5294361,10.9986836 54.3833388,36.0163572 61.3496599,38.4702699 C79.8167764,44.9753811 86.9820328,44.7827046 105.197958,40.180571" id="Path-14" fill="#C5C5C5" fill-rule="nonzero"></path>
            </g>
            <path d="M115.70231,444.312953 C111.243685,445.769499 106.579278,447.459636 101.5169,450.588398 C96.4545221,453.71716 95.5,460.49563 95.5,467.684428 C95.5,474.873227 107.169435,499.241482 114.557219,502.841753 C121.945003,506.442023 126.55194,506.225117 132.001783,494.774206 C137.451625,483.323295 138.439753,470.333649 134.750496,461.543082 C131.061238,452.752515 131.726788,451.202038 127.431924,446.485103 C123.13706,441.768169 120.160935,442.856407 115.70231,444.312953 Z" id="Path-2" fill="#4A4A4A" fill-rule="nonzero"></path>
        </g>
    </g>
</svg>