<?xml version="1.0" encoding="UTF-8"?>
<svg width="80px" height="80px" viewBox="0 0 80 80" version="1.1" xmlns="http://www.w3.org/2000/svg" xmlns:xlink="http://www.w3.org/1999/xlink">
    <!-- Generator: Sketch 51.3 (57544) - http://www.bohemiancoding.com/sketch -->
    <title>AquaIcon</title>
    <desc>Created with Sketch.</desc>
    <defs></defs>
    <g id="Page-13" stroke="none" stroke-width="1" fill="none" fill-rule="evenodd">
        <g id="AquaHead" transform="translate(7.000000, 6.000000)">
            <ellipse id="Oval" fill="#CFFFF4" fill-rule="nonzero" cx="33" cy="34" rx="33" ry="34"></ellipse>
            <ellipse id="Oval" stroke="#000000" stroke-width="3" fill-rule="nonzero" cx="33" cy="34" rx="33" ry="34"></ellipse>
            <path d="M24.64,3.30654304 C27.8183155,2.02741557 31.2536068,1.32899023 34.8381577,1.32899023 C51.1374736,1.32899023 64.3506798,15.7697239 64.3506798,33.5832716 C64.3506798,35.839065 64.138792,38.0407717 63.7355815,40.1659161 C60.4374051,19.5894937 44.2634057,3.86422543 24.64,3.30654304 Z" id="Combined-Shape" fill="#FFFFFF" fill-rule="nonzero"></path>
            <g id="Group-2" stroke-width="1" fill-rule="evenodd" transform="translate(32.544448, 42.722629) rotate(17.000000) translate(-32.544448, -42.722629) translate(18.684448, 24.781261)">
                <path d="M25.4476357,32.6364723 C28.5740017,28.1982108 28.093128,20.7105034 25.4476357,11.5019928 C22.8021433,2.29348215 19.9594928,0 16.1028857,0 C12.2462787,0 2.19945314,4.3587227 0.673022623,7.05888986 C-0.853407893,9.75905702 0.361141681,16.6104545 2.86305885,21.9201838 C5.36497601,27.2299132 16.3659923,35.5088581 18.5532807,35.5088581 C20.7405691,35.5088581 22.3212696,37.0747337 25.4476357,32.6364723 Z" id="Path-3" stroke="#000000" stroke-width="3" fill="#6E6E6E" fill-rule="nonzero"></path>
                <path d="M4.3048937,5.74569553 C5.12372088,4.17991404 7.45351874,3.0455307 9.62684954,2.1094971 C13.1151176,0.607132096 17.330709,0.193707968 19.0846775,1.26209058 C20.3354661,2.02397476 22.3733749,4.04951385 23.8622783,7.77357942 C25.7620788,12.5253864 27.0148074,19.2615203 27.2628525,21.2318001 C27.7052943,24.746219 26.8039729,28.7862522 25.8541794,29.8845784 C24.9043859,30.9829046 23.2831075,32.0412015 21.9928023,32.0412015 C20.7024971,32.0412015 18.2275612,33.782754 10.7444795,23.8521699 C3.26139777,13.9215859 1.58100879,10.9543753 4.3048937,5.74569553 Z" id="Path-4" fill="#9B9B9B" fill-rule="nonzero"></path>
                <ellipse id="Oval" fill="#000000" fill-rule="nonzero" cx="10.56" cy="9.85667752" rx="1.54" ry="1.66123779"></ellipse>
                <ellipse id="Oval-Copy-2" fill="#C5C5C5" fill-rule="nonzero" transform="translate(11.110000, 9.745928) rotate(-19.000000) translate(-11.110000, -9.745928) " cx="11.11" cy="9.74592834" rx="1" ry="1"></ellipse>
                <ellipse id="Oval-Copy" fill="#000000" fill-rule="nonzero" transform="translate(20.551759, 6.870536) rotate(-26.000000) translate(-20.551759, -6.870536) " cx="20.5517592" cy="6.87053569" rx="1.10086329" ry="1.43973941"></ellipse>
                <ellipse id="Oval-Copy" fill="#C5C5C5" fill-rule="nonzero" transform="translate(20.972948, 6.720655) rotate(-26.000000) translate(-20.972948, -6.720655) " cx="21.0987543" cy="6.72065496" rx="1" ry="1"></ellipse>
                <path d="M25.3510708,24.2535747 L25.3510708,23.5314902 C24.5438846,24.3041485 23.6520127,24.8423242 22.6754549,25.1460175 C20.9722451,25.6756874 18.8926186,25.9659137 16.4365752,26.0166964 L17.0459403,26.8596077 C19.6200102,26.8180326 21.6556581,26.5370622 23.1528841,26.0166964 C24.2507765,25.6351203 24.9835054,25.0474131 25.3510708,24.2535747 Z" id="Path-5" stroke="#000000" fill="#6E6E6E" fill-rule="nonzero"></path>
            </g>
        </g>
    </g>
</svg>