<?xml version="1.0" encoding="UTF-8"?>
<svg width="80px" height="80px" viewBox="0 0 80 80" version="1.1" xmlns="http://www.w3.org/2000/svg" xmlns:xlink="http://www.w3.org/1999/xlink">
    <!-- Generator: Sketch 51.3 (57544) - http://www.bohemiancoding.com/sketch -->
    <title>BasicIcon</title>
    <desc>Created with Sketch.</desc>
    <defs></defs>
    <g id="Page-13" stroke="none" stroke-width="1" fill="none" fill-rule="evenodd">
        <g id="Head" transform="translate(14.000000, 3.000000)">
            <g id="Group" stroke-width="1" fill-rule="evenodd" transform="translate(15.785714, 5.098413)">
                <path d="M25.5357143,3.95809135 C25.5357143,8.32320911 25.2257386,9.59209759 22.2732301,10.7302093 C20.3048911,11.4889504 14.3395905,12.9734439 4.3773283,15.1836897 C1.53053618,15.6243251 0.107140121,14.7990174 0.107140121,12.7077667 C0.107140121,9.57089054 -1.06971015,6.10618878 4.3773283,3.95809135 C8.00868726,2.52602641 13.9739879,1.22061467 22.2732301,0.041856156 C24.4482196,-0.25739888 25.5357143,1.04801285 25.5357143,3.95809135 Z" id="Path-2" stroke="#000000" stroke-width="3" fill-rule="nonzero"></path>
                <rect id="Rectangle" fill="#000000" fill-rule="nonzero" x="9.51785714" y="11.8190476" width="4.41071429" height="14.368254" rx="2.20535714"></rect>
            </g>
            <path d="M37.8956748,70.4602824 C43.8073341,64.1402108 47.5397126,58.0734279 49.0928102,52.2599335 C51.4224566,43.5396919 52.0772714,34.6006202 49.0928102,31.1455323 C46.108349,27.6904443 41.360738,24.6225493 31.6463085,23.6840389 C21.931879,22.7455284 7.7926393,24.1280577 3.23984017,28.7171938 C-1.31295896,33.3063299 -0.686449675,43.9080743 2.76041207,48.9645244 C3.90943575,50.65011 12.4640743,63.9734769 15.3793415,66.5420944 C21.2093448,71.6788617 18.3503107,69.7014051 26.0041894,72.0037382 C30.8864192,73.4723425 34.8502477,72.9578572 37.8956748,70.4602824 Z" id="Path" fill="#6E6E6E" fill-rule="nonzero"></path>
            <path d="M36.9983604,71.1213626 C35.8307718,71.0069568 34.6007525,70.7631306 33.3083026,70.3898838 C25.4177473,68.1111692 28.3651897,70.06834 22.3549084,64.9842684 C19.349494,62.4420011 10.5303251,49.2553122 9.34577077,47.5870181 C5.79232362,42.5824398 5.14644113,32.0894536 9.84002396,27.5473952 C11.0041463,26.4208546 12.3688409,25.3506581 13.9158029,24.3923289 C19.6083787,23.3541697 26.2979542,23.1673347 31.6463085,23.6840389 C41.360738,24.6225493 46.108349,27.6904443 49.0928102,31.1455323 C52.0772714,34.6006202 51.4224566,43.5396919 49.0928102,52.2599335 C47.5397126,58.0734279 43.8073341,64.1402108 37.8956748,70.4602824 C37.6049401,70.6987159 37.3058353,70.9190759 36.9983604,71.1213626 Z" id="Combined-Shape" fill="#9B9B9B" fill-rule="nonzero"></path>
            <path d="M37.8956748,70.4602824 C43.8073341,64.1402108 47.5397126,58.0734279 49.0928102,52.2599335 C51.4224566,43.5396919 52.0772714,34.6006202 49.0928102,31.1455323 C46.108349,27.6904443 41.360738,24.6225493 31.6463085,23.6840389 C21.931879,22.7455284 7.7926393,24.1280577 3.23984017,28.7171938 C-1.31295896,33.3063299 -0.686449675,43.9080743 2.76041207,48.9645244 C3.90943575,50.65011 12.4640743,63.9734769 15.3793415,66.5420944 C21.2093448,71.6788617 18.3503107,69.7014051 26.0041894,72.0037382 C30.8864192,73.4723425 34.8502477,72.9578572 37.8956748,70.4602824 Z" id="Path" stroke="#000000" stroke-width="3" fill-rule="nonzero"></path>
            <g id="Left-Eye" transform="translate(12.303571, 26.187302)" fill-rule="nonzero">
                <ellipse id="Oval" fill="#000000" cx="9.69892473" cy="13.0255102" rx="9.69892473" ry="9.9744898"></ellipse>
                <path d="M3.85820945,5.06173541 C5.4828551,3.799552 7.50589045,3.05102041 9.69892473,3.05102041 C15.0554929,3.05102041 19.3978495,7.5167516 19.3978495,13.0255102 C19.3978495,14.8116343 18.941349,16.4881076 18.1417906,17.9382646 C16.5171449,19.200448 14.4941095,19.9489796 12.3010753,19.9489796 C6.94450705,19.9489796 2.60215054,15.4832484 2.60215054,9.9744898 C2.60215054,8.18836574 3.05865101,6.51189239 3.85820945,5.06173541 Z" id="Combined-Shape" fill="#4A4A4A"></path>
                <ellipse id="Oval" stroke="#000000" stroke-width="3" cx="9.69892473" cy="13.0255102" rx="9.69892473" ry="9.9744898"></ellipse>
            </g>
            <g id="Right-eye" transform="translate(35.982143, 31.749206)" fill-rule="nonzero">
                <ellipse id="Oval-Copy" fill="#000000" cx="8" cy="9" rx="8" ry="9"></ellipse>
                <path d="M3.0441371,1.93443876 C4.4068588,0.723065731 6.12837116,0 8,0 C12.418278,0 16,4.02943725 16,9 C16,10.3382318 15.7403768,11.6082456 15.2747035,12.7497718 C13.9119818,13.9611448 12.1904694,14.6842105 10.3188406,14.6842105 C5.90056258,14.6842105 2.31884058,10.6547733 2.31884058,5.68421053 C2.31884058,4.34597871 2.57846376,3.07596491 3.0441371,1.93443876 Z" id="Combined-Shape" fill="#4A4A4A"></path>
                <ellipse id="Oval-Copy" stroke="#000000" stroke-width="3" cx="8" cy="9" rx="8" ry="9"></ellipse>
            </g>
            <g id="Mouth" transform="translate(27.625000, 52.838095)" fill-rule="nonzero">
                <circle id="Oval" fill="#C5C5C5" cx="7.5" cy="7.5" r="7.5"></circle>
                <circle id="Oval" stroke="#000000" stroke-width="3" cx="7.5" cy="7.5" r="7.5"></circle>
                <path d="M6.24332417,2.38703784 C5.74379848,3.50728024 6.55719481,4.63987747 7.76739613,4.56573596 C8.97759745,4.49159444 9.04481445,3.10106924 8.93763432,2.78588754 C8.42741675,1.28550453 6.69470072,1.37477529 6.24332417,2.38703784 Z" id="Path-2" fill="#4A4A4A"></path>
                <path d="M1.79019917,5.90266284 C1.29067348,7.02290524 2.10406981,8.15550247 3.31427113,8.08136096 C4.52447245,8.00721944 4.59168945,6.61669424 4.48450932,6.30151254 C3.97429175,4.80112953 2.24157572,4.89040029 1.79019917,5.90266284 Z" id="Path-2-Copy" fill="#4A4A4A"></path>
                <path d="M4.60269917,10.5901628 C4.10317348,11.7104052 4.91656981,12.8430025 6.12677113,12.768861 C7.33697245,12.6947194 7.40418945,11.3041942 7.29700932,10.9890125 C6.78679175,9.48862953 5.05407572,9.57790029 4.60269917,10.5901628 Z" id="Path-2-Copy-2" fill="#4A4A4A"></path>
                <path d="M9.99332417,9.18391284 C9.49379848,10.3041552 10.3071948,11.4367525 11.5173961,11.362611 C12.7275975,11.2884694 12.7948144,9.89794424 12.6876343,9.58276254 C12.1774167,8.08237953 10.4447007,8.17165029 9.99332417,9.18391284 Z" id="Path-2-Copy-3" fill="#4A4A4A"></path>
                <path d="M10.4620742,4.49641284 C9.96254848,5.61665524 10.7759448,6.74925247 11.9861461,6.67511096 C13.1963475,6.60096944 13.2635644,5.21044424 13.1563843,4.89526254 C12.6461667,3.39487953 10.9134507,3.48415029 10.4620742,4.49641284 Z" id="Path-2-Copy-4" fill="#4A4A4A"></path>
            </g>
        </g>
    </g>
</svg>