<?xml version="1.0" encoding="UTF-8"?>
<svg width="80px" height="80px" viewBox="0 0 80 80" version="1.1" xmlns="http://www.w3.org/2000/svg" xmlns:xlink="http://www.w3.org/1999/xlink">
    <!-- Generator: Sketch 51.3 (57544) - http://www.bohemiancoding.com/sketch -->
    <title>ConstIcon</title>
    <desc>Created with Sketch.</desc>
    <defs>
        <polygon id="path-1" points="41.5112305 1.86302083 12.1500651 0 0 15.5239583 7.61474609 20.8432292 15.9773763 12.5589844 38.0859375 12.5589844 46.4054362 20.8432292 54.9690755 15.5239583"></polygon>
    </defs>
    <g id="Page-13" stroke="none" stroke-width="1" fill="none" fill-rule="evenodd">
        <g id="ConstHead" transform="translate(3.000000, 5.000000)">
            <g id="Const-head">
                <path d="M15.9432779,2.56612535 L23.4804675,0 L64.7875,23.0449759 L64.7875,52.1695235 C54.7309087,61.3610136 49.7026131,65.9567587 49.7026131,65.9567587 C49.7026131,65.9567587 38.4495013,66.6378391 15.9432779,68 L0,52.1695235 L0,23.0449759 L15.9432779,2.56612535 Z" id="consHeadBack" stroke="#979797" fill="#AB6B00" fill-rule="nonzero"></path>
                <path d="M23.2432779,0 L55.0983108,1.75307315 L72.0875,20.6271413 L72.0875,49.9625846 C62.0309087,59.2206319 57.0026131,63.8496555 57.0026131,63.8496555 C57.0026131,63.8496555 45.7495013,64.5356678 23.2432779,65.9076923 L7.3,49.9625846 L7.3,20.6271413 L23.2432779,0 Z" id="consHead" fill="#F5A623" fill-rule="nonzero"></path>
                <path d="M23.7173901,0.0804744419 L23.7805684,0 L55.8803039,1.73921114 L73,20.4640371 L73,49.5675174 C62.8661564,58.7523589 57.7992346,63.3447796 57.7992346,63.3447796 L52.6252826,63.6553146 L50.0844165,65.9582367 C50.0844165,65.9582367 38.7448611,66.6388244 16.0657503,68 L0,52.1809745 L0,23.0774942 L16.0657503,2.61345708 L23.6608388,0.049187935 L23.7173901,0.0804744419 Z" id="Combined-Shape" stroke="#000000" stroke-width="3" fill-rule="nonzero"></path>
                <polygon id="Path-2-Copy" fill="#C5C5C5" fill-rule="nonzero" transform="translate(40.150000, 48.123077) scale(1, -1) translate(-40.150000, -48.123077) " points="54.1207903 39.5316963 24.8766418 37.6615385 12.775 53.2449671 20.359398 58.5846154 28.6886996 50.2686347 50.7091486 50.2686347 58.9954905 58.5846154 67.525 53.2449671"></polygon>
                <g id="const-mouth" transform="translate(12.775000, 37.661538)">
                    <g fill-rule="evenodd" stroke-width="1">
                        <mask id="mask-2" fill="white">
                            <use xlink:href="#path-1"></use>
                        </mask>
                        <use id="Mask" fill="#C5C5C5" fill-rule="nonzero" transform="translate(27.484538, 10.421615) scale(1, -1) translate(-27.484538, -10.421615) " xlink:href="#path-1"></use>
                        <g id="Group" mask="url(#mask-2)" fill="#4A4A4A" fill-rule="nonzero">
                            <g transform="translate(2.916667, 1.866667)">
                                <path d="M41.1746215,0.743095454 C40.7305986,1.858359 41.4536176,2.98592246 42.5293521,2.91211047 C43.6050866,2.83829847 43.6648351,1.45395337 43.5695638,1.14017249 C43.1160371,-0.353542154 41.5758451,-0.264668161 41.1746215,0.743095454 Z" id="Path-2"></path>
                                <path d="M30.1329548,8.20976212 C29.688932,9.32502566 30.4119509,10.4525891 31.4876854,10.3787771 C32.56342,10.3049651 32.6231684,8.92062004 32.5278972,8.60683915 C32.0743704,7.11312451 30.5341784,7.20199851 30.1329548,8.20976212 Z" id="Path-2-Copy-5"></path>
                                <path d="M4.09128815,1.67642879 C3.64726531,2.79169233 4.37028427,3.91925579 5.44601878,3.8454438 C6.52175329,3.7716318 6.58150173,2.38728671 6.48623051,2.07350582 C6.03270378,0.579791179 4.49251175,0.668665173 4.09128815,1.67642879 Z" id="Path-2-Copy-10"></path>
                                <path d="M13.8829548,8.90976212 C13.438932,10.0250257 14.1619509,11.1525891 15.2376854,11.0787771 C16.31342,11.0049651 16.3731684,9.62062004 16.2778972,9.30683915 C15.8243704,7.81312451 14.2841784,7.90199851 13.8829548,8.90976212 Z" id="Path-2-Copy-15"></path>
                                <path d="M22.0079548,13.8097621 C21.563932,14.9250257 22.2869509,16.0525891 23.3626854,15.9787771 C24.43842,15.9049651 24.4981684,14.52062 24.4028972,14.2068392 C23.9493704,12.7131245 22.4091784,12.8019985 22.0079548,13.8097621 Z" id="Path-2-Copy-20"></path>
                                <path d="M37.2162882,4.24309545 C36.7722653,5.358359 37.4952843,6.48592246 38.5710188,6.41211047 C39.6467533,6.33829847 39.7065017,4.95395337 39.6112305,4.64017249 C39.1577038,3.14645785 37.6175118,3.23533184 37.2162882,4.24309545 Z" id="Path-2-Copy"></path>
                                <path d="M26.3829548,9.84309545 C25.938932,10.958359 26.6619509,12.0859225 27.7376854,12.0121105 C28.81342,11.9382985 28.8731684,10.5539534 28.7778972,10.2401725 C28.3243704,8.74645785 26.7841784,8.83533184 26.3829548,9.84309545 Z" id="Path-2-Copy-6"></path>
                                <path d="M0.132954817,5.17642879 C-0.31106802,6.29169233 0.411950938,7.41925579 1.48768545,7.3454438 C2.56341996,7.2716318 2.6231684,5.88728671 2.52789718,5.57350582 C2.07437044,4.07979118 0.534178422,4.16866517 0.132954817,5.17642879 Z" id="Path-2-Copy-11"></path>
                                <path d="M9.92462148,12.4097621 C9.48059865,13.5250257 10.2036176,14.6525891 11.2793521,14.5787771 C12.3550866,14.5049651 12.4148351,13.12062 12.3195638,12.8068392 C11.8660371,11.3131245 10.3258451,11.4019985 9.92462148,12.4097621 Z" id="Path-2-Copy-16"></path>
                                <path d="M21.3829548,17.3097621 C20.938932,18.4250257 21.6619509,19.5525891 22.7376854,19.4787771 C23.81342,19.4049651 23.8731684,18.02062 23.7778972,17.7068392 C23.3243704,16.2131245 21.7841784,16.3019985 21.3829548,17.3097621 Z" id="Path-2-Copy-21"></path>
                                <path d="M39.7162882,8.90976212 C39.2722653,10.0250257 39.9952843,11.1525891 41.0710188,11.0787771 C42.1467533,11.0049651 42.2065017,9.62062004 42.1112305,9.30683915 C41.6577038,7.81312451 40.1175118,7.90199851 39.7162882,8.90976212 Z" id="Path-2-Copy-2"></path>
                                <path d="M28.8829548,14.5097621 C28.438932,15.6250257 29.1619509,16.7525891 30.2376854,16.6787771 C31.31342,16.6049651 31.3731684,15.22062 31.2778972,14.9068392 C30.8243704,13.4131245 29.2841784,13.5019985 28.8829548,14.5097621 Z" id="Path-2-Copy-7"></path>
                                <path d="M2.63295482,9.84309545 C2.18893198,10.958359 2.91195094,12.0859225 3.98768545,12.0121105 C5.06341996,11.9382985 5.1231684,10.5539534 5.02789718,10.2401725 C4.57437044,8.74645785 3.03417842,8.83533184 2.63295482,9.84309545 Z" id="Path-2-Copy-12"></path>
                                <path d="M10.3412882,17.3097621 C9.89726531,18.4250257 10.6202843,19.5525891 11.6960188,19.4787771 C12.7717533,19.4049651 12.8315017,18.02062 12.7362305,17.7068392 C12.2827038,16.2131245 10.7425118,16.3019985 10.3412882,17.3097621 Z" id="Path-2-Copy-17"></path>
                                <path d="M21.3829548,9.60976212 C20.938932,10.7250257 21.6619509,11.8525891 22.7376854,11.7787771 C23.81342,11.7049651 23.8731684,10.32062 23.7778972,10.0068392 C23.3243704,8.51312451 21.7841784,8.60199851 21.3829548,9.60976212 Z" id="Path-2-Copy-22"></path>
                                <path d="M44.5079548,7.50976212 C44.063932,8.62502566 44.7869509,9.75258913 45.8626854,9.67877713 C46.93842,9.60496514 46.9981684,8.22062004 46.9028972,7.90683915 C46.4493704,6.41312451 44.9091784,6.50199851 44.5079548,7.50976212 Z" id="Path-2-Copy-3"></path>
                                <path d="M33.6746215,13.1097621 C33.2305986,14.2250257 33.9536176,15.3525891 35.0293521,15.2787771 C36.1050866,15.2049651 36.1648351,13.82062 36.0695638,13.5068392 C35.6160371,12.0131245 34.0758451,12.1019985 33.6746215,13.1097621 Z" id="Path-2-Copy-8"></path>
                                <path d="M7.42462148,8.44309545 C6.98059865,9.558359 7.7036176,10.6859225 8.77935211,10.6121105 C9.85508663,10.5382985 9.91483506,9.15395337 9.81956384,8.84017249 C9.36603711,7.34645785 7.82584509,7.43533184 7.42462148,8.44309545 Z" id="Path-2-Copy-13"></path>
                                <path d="M15.5496215,15.2097621 C15.1055986,16.3250257 15.8286176,17.4525891 16.9043521,17.3787771 C17.9800866,17.3049651 18.0398351,15.92062 17.9445638,15.6068392 C17.4910371,14.1131245 15.9508451,14.2019985 15.5496215,15.2097621 Z" id="Path-2-Copy-18"></path>
                                <path d="M37.8412882,13.8097621 C37.3972653,14.9250257 38.1202843,16.0525891 39.1960188,15.9787771 C40.2717533,15.9049651 40.3315017,14.52062 40.2362305,14.2068392 C39.7827038,12.7131245 38.2425118,12.8019985 37.8412882,13.8097621 Z" id="Path-2-Copy-23"></path>
                                <path d="M44.9246215,2.84309545 C44.4805986,3.958359 45.2036176,5.08592246 46.2793521,5.01211047 C47.3550866,4.93829847 47.4148351,3.55395337 47.3195638,3.24017249 C46.8660371,1.74645785 45.3258451,1.83533184 44.9246215,2.84309545 Z" id="Path-2-Copy-4"></path>
                                <path d="M34.0912882,8.44309545 C33.6472653,9.558359 34.3702843,10.6859225 35.4460188,10.6121105 C36.5217533,10.5382985 36.5815017,9.15395337 36.4862305,8.84017249 C36.0327038,7.34645785 34.4925118,7.43533184 34.0912882,8.44309545 Z" id="Path-2-Copy-9"></path>
                                <path d="M7.84128815,3.77642879 C7.39726531,4.89169233 8.12028427,6.01925579 9.19601878,5.9454438 C10.2717533,5.8716318 10.3315017,4.48728671 10.2362305,4.17350582 C9.78270378,2.67979118 8.24251175,2.76866517 7.84128815,3.77642879 Z" id="Path-2-Copy-14"></path>
                                <path d="M17.6329548,11.0097621 C17.188932,12.1250257 17.9119509,13.2525891 18.9876854,13.1787771 C20.06342,13.1049651 20.1231684,11.72062 20.0278972,11.4068392 C19.5743704,9.91312451 18.0341784,10.0019985 17.6329548,11.0097621 Z" id="Path-2-Copy-19"></path>
                                <path d="M25.7579548,15.9097621 C25.313932,17.0250257 26.0369509,18.1525891 27.1126854,18.0787771 C28.18842,18.0049651 28.2481684,16.62062 28.1528972,16.3068392 C27.6993704,14.8131245 26.1591784,14.9019985 25.7579548,15.9097621 Z" id="Path-2-Copy-24"></path>
                            </g>
                        </g>
                    </g>
                    <polygon id="Mask" stroke="#000000" stroke-width="3" fill-rule="nonzero" transform="translate(27.484538, 10.421615) scale(1, -1) translate(-27.484538, -10.421615) " points="41.5112305 1.86302083 12.1500651 0 0 15.5239583 7.61474609 20.8432292 15.9773763 12.5589844 38.0859375 12.5589844 46.4054362 20.8432292 54.9690755 15.5239583"></polygon>
                </g>
                <g id="const-eye" transform="translate(12.775000, 2.092308)" fill-rule="nonzero">
                    <g id="Group-2">
                        <polygon id="const-eye" fill="#000000" points="42.0627663 2.06572274 12.4600638 0.229923922 0.21004717 15.5270499 7.88743533 20.7685968 16.31886 12.6053994 38.6092954 12.6053994 46.9972337 20.7685968 55.6313211 15.5270499"></polygon>
                        <polygon id="Path-2" stroke="#000000" stroke-width="3" points="42.0266644 1.95076078 12.4239619 0.114961961 0.173945313 15.4120879 7.85133347 20.6536348 16.2827581 12.4904374 38.5731935 12.4904374 46.9611319 20.6536348 55.5952193 15.4120879"></polygon>
                    </g>
                    <path d="M47.4653692,7.34648534 C47.3446569,11.1486446 45.169555,14.4002783 42.0764699,15.8998493 L38.5731935,12.4904374 L30.5740462,12.4904374 C29.5719472,10.9280577 28.9865094,9.04265521 28.9865094,7.01267963 C28.9865094,4.85867837 29.6456697,2.86745588 30.7623498,1.25220917 L42.0266644,1.95076078 L47.4653692,7.34648534 Z" id="Combined-Shape" fill="#D0021B"></path>
                </g>
            </g>
        </g>
    </g>
</svg>