<?xml version="1.0" encoding="UTF-8"?>
<svg width="80px" height="80px" viewBox="0 0 80 80" version="1.1" xmlns="http://www.w3.org/2000/svg" xmlns:xlink="http://www.w3.org/1999/xlink">
    <!-- Generator: Sketch 51.3 (57544) - http://www.bohemiancoding.com/sketch -->
    <title>NoneIcon</title>
    <desc>Created with Sketch.</desc>
    <defs></defs>
    <g id="Page-13" stroke="none" stroke-width="1" fill="none" fill-rule="evenodd">
        <g id="Skeleton-head" transform="translate(11.000000, 9.000000)">
            <g id="Group-2" transform="translate(27.046473, 31.043346) rotate(17.000000) translate(-27.046473, -31.043346) translate(6.916295, 5.022620)">
                <path d="M36.9599872,47.3333292 C41.5007017,40.8964298 40.8022838,30.0368578 36.9599872,16.6815705 C33.1176907,3.32628308 28.9890428,0 23.3877308,0 C17.7864187,0 3.19447202,6.32154282 0.977493859,10.2376493 C-1.2394843,14.1537558 0.524519924,24.0904748 4.1582888,31.7912816 C7.79205768,39.4920883 23.7698652,51.4992079 26.9466691,51.4992079 C30.1234731,51.4992079 32.4192727,53.7702287 36.9599872,47.3333292 Z" id="Path-3" stroke="#000000" stroke-width="3" fill="#6E6E6E" fill-rule="nonzero"></path>
                <path d="M6.25240075,8.33309727 C7.44166023,6.06221303 10.8254441,4.41699416 13.9819762,3.05944589 C19.048315,0.880535836 25.1710136,0.280938544 27.7184665,1.83043525 C29.5351041,2.93541113 32.4949501,5.87309103 34.6574241,11.2741779 C37.4166825,18.1658187 39.2361378,27.9353687 39.5963968,30.7929049 C40.2389966,35.8899369 38.9299229,41.749278 37.5504488,43.3422025 C36.1709747,44.9351269 33.8162401,46.4699961 31.9422088,46.4699961 C30.0681776,46.4699961 26.4735962,48.9958045 15.605215,34.5932797 C4.73683377,20.1907548 2.2962473,15.8873498 6.25240075,8.33309727 Z" id="Path-4" fill="#9B9B9B" fill-rule="nonzero"></path>
                <ellipse id="Oval" fill="#000000" fill-rule="nonzero" cx="15.3372781" cy="14.2953368" rx="2.23668639" ry="2.40932642"></ellipse>
                <ellipse id="Oval-Copy-2" fill="#C5C5C5" fill-rule="nonzero" transform="translate(16.136095, 14.134715) rotate(-19.000000) translate(-16.136095, -14.134715) " cx="16.1360947" cy="14.134715" rx="1" ry="1"></ellipse>
                <ellipse id="Oval-Copy" fill="#000000" fill-rule="nonzero" transform="translate(29.849247, 9.964475) rotate(-26.000000) translate(-29.849247, -9.964475) " cx="29.8492468" cy="9.96447548" rx="1.59888697" ry="2.0880829"></ellipse>
                <ellipse id="Oval-Copy" fill="#C5C5C5" fill-rule="nonzero" transform="translate(30.460978, 9.747100) rotate(-26.000000) translate(-30.460978, -9.747100) " cx="30.5306007" cy="9.74710047" rx="1" ry="1"></ellipse>
                <path d="M36.819737,35.175445 L36.819737,34.1281915 C35.6473849,35.2487932 34.3520356,36.0293203 32.9336892,36.4697726 C30.459958,37.2379635 27.4395213,37.6588846 23.8723792,37.7325358 L24.7574173,38.9550269 C28.4959804,38.8947297 31.4525428,38.4872327 33.6271044,37.7325358 C35.2216765,37.1791283 36.2858874,36.3267647 36.819737,35.175445 Z" id="Path-5" stroke="#000000" fill="#6E6E6E" fill-rule="nonzero"></path>
            </g>
        </g>
    </g>
</svg>